<svg fill="none" height="147" viewBox="0 0 198 147" width="198" xmlns="http://www.w3.org/2000/svg"><g fill="#ced1d6" fill-opacity=".6"><path d="m91.2375 147h3.72152v3.72399h-3.72152z" transform="matrix(0 -1 1 0 -55.7625 238.2375)"/><path d="m39.1021 147h3.72152v3.72399h-3.72152z" transform="matrix(0 -1 1 0 -107.8979 186.1021)"/><path d="m91.2375 68.8481h3.72152v3.72399h-3.72152z" transform="matrix(0 -1 1 0 22.3894 160.0856)"/><path d="m39.1021 68.8481h3.72152v3.72399h-3.72152z" transform="matrix(0 -1 1 0 -29.746 107.9502)"/><path d="m91.2375 133.975h3.72152v3.72399h-3.72152z" transform="matrix(0 -1 1 0 -42.7375 225.2125)"/><path d="m39.1021 133.975h3.72152v3.72399h-3.72152z" transform="matrix(0 -1 1 0 -94.8729 173.0771)"/><path d="m91.2375 55.8228h3.72152v3.72399h-3.72152z" transform="matrix(0 -1 1 0 35.4147 147.0603)"/><path d="m39.1021 55.8228h3.72152v3.72399h-3.72152z" transform="matrix(0 -1 1 0 -16.7207 94.9249)"/><path d="m91.2375 120.949h3.72152v3.72399h-3.72152z" transform="matrix(0 -1 1 0 -29.7115 212.1865)"/><path d="m39.1021 120.949h3.72152v3.72399h-3.72152z" transform="matrix(0 -1 1 0 -81.8469 160.0511)"/><path d="m91.2375 42.7975h3.72152v3.72399h-3.72152z" transform="matrix(0 -1 1 0 48.44 134.035)"/><path d="m39.1021 42.7975h3.72152v3.72399h-3.72152z" transform="matrix(0 -1 1 0 -3.6954 81.8996)"/><path d="m91.2375 107.924h3.72152v3.72399h-3.72152z" transform="matrix(0 -1 1 0 -16.6865 199.1615)"/><path d="m39.1021 107.924h3.72152v3.72399h-3.72152z" transform="matrix(0 -1 1 0 -68.8219 147.0261)"/><path d="m91.2375 29.7721h3.72152v3.72399h-3.72152z" transform="matrix(0 -1 1 0 61.4654 121.0096)"/><path d="m39.1021 29.7721h3.72152v3.72399h-3.72152z" transform="matrix(0 -1 1 0 9.33 68.8742)"/><path d="m91.2375 94.8987h3.72152v3.72399h-3.72152z" transform="matrix(0 -1 1 0 -3.6612 186.1362)"/><path d="m39.1021 94.8987h3.72152v3.72399h-3.72152z" transform="matrix(0 -1 1 0 -55.7966 134.0008)"/><path d="m91.2375 16.7468h3.72152v3.72399h-3.72152z" transform="matrix(0 -1 1 0 74.4907 107.9843)"/><path d="m39.1021 16.7468h3.72152v3.72399h-3.72152z" transform="matrix(0 -1 1 0 22.3553 55.8489)"/><path d="m91.2375 81.8734h3.72152v3.72399h-3.72152z" transform="matrix(0 -1 1 0 9.3641 173.1109)"/><path d="m39.1021 81.8734h3.72152v3.72399h-3.72152z" transform="matrix(0 -1 1 0 -42.7713 120.9755)"/><path d="m91.2375 3.72156h3.72152v3.72399h-3.72152z" transform="matrix(0 -1 1 0 87.51594 94.95906)"/><path d="m39.1021 3.72156h3.72152v3.72399h-3.72152z" transform="matrix(0 -1 1 0 35.38054 42.82366)"/><path d="m78.2035 147h3.72152v3.72399h-3.72152z" transform="matrix(0 -1 1 0 -68.7965 225.2035)"/><path d="m26.0681 147h3.72152v3.72399h-3.72152z" transform="matrix(0 -1 1 0 -120.9319 173.0681)"/><path d="m78.2035 68.8481h3.72152v3.72399h-3.72152z" transform="matrix(0 -1 1 0 9.3554 147.0516)"/><path d="m26.0681 68.8481h3.72152v3.72399h-3.72152z" transform="matrix(0 -1 1 0 -42.78 94.9162)"/><path d="m78.2035 133.975h3.72152v3.72399h-3.72152z" transform="matrix(0 -1 1 0 -55.7715 212.1785)"/><path d="m26.0681 133.975h3.72152v3.72399h-3.72152z" transform="matrix(0 -1 1 0 -107.9069 160.0431)"/><path d="m78.2035 55.8228h3.72152v3.72399h-3.72152z" transform="matrix(0 -1 1 0 22.3807 134.0263)"/><path d="m26.0681 55.8228h3.72152v3.72399h-3.72152z" transform="matrix(0 -1 1 0 -29.7547 81.8909)"/><path d="m78.2035 120.949h3.72152v3.72399h-3.72152z" transform="matrix(0 -1 1 0 -42.7455 199.1525)"/><path d="m26.0681 120.949h3.72152v3.72399h-3.72152z" transform="matrix(0 -1 1 0 -94.8809 147.0171)"/><path d="m78.2035 42.7975h3.72152v3.72399h-3.72152z" transform="matrix(0 -1 1 0 35.406 121.001)"/><path d="m26.0681 42.7975h3.72152v3.72399h-3.72152z" transform="matrix(0 -1 1 0 -16.7294 68.8656)"/><path d="m78.2035 107.924h3.72152v3.72399h-3.72152z" transform="matrix(0 -1 1 0 -29.7205 186.1275)"/><path d="m26.0681 107.924h3.72152v3.72399h-3.72152z" transform="matrix(0 -1 1 0 -81.8559 133.9921)"/><path d="m78.2035 29.7721h3.72152v3.72399h-3.72152z" transform="matrix(0 -1 1 0 48.4314 107.9756)"/><path d="m26.0681 29.7721h3.72152v3.72399h-3.72152z" transform="matrix(0 -1 1 0 -3.704 55.8402)"/><path d="m78.2035 94.8987h3.72152v3.72399h-3.72152z" transform="matrix(0 -1 1 0 -16.6952 173.1022)"/><path d="m26.0681 94.8987h3.72152v3.72399h-3.72152z" transform="matrix(0 -1 1 0 -68.8306 120.9668)"/><path d="m78.2035 16.7468h3.72152v3.72399h-3.72152z" transform="matrix(0 -1 1 0 61.4567 94.9503)"/><path d="m26.0681 16.7468h3.72152v3.72399h-3.72152z" transform="matrix(0 -1 1 0 9.3213 42.8149)"/><path d="m78.2035 81.8734h3.72152v3.72399h-3.72152z" transform="matrix(0 -1 1 0 -3.6699 160.0769)"/><path d="m26.0681 81.8734h3.72152v3.72399h-3.72152z" transform="matrix(0 -1 1 0 -55.8053 107.9415)"/><path d="m78.2035 3.72156h3.72152v3.72399h-3.72152z" transform="matrix(0 -1 1 0 74.48194 81.92506)"/><path d="m26.0681 3.72156h3.72152v3.72399h-3.72152z" transform="matrix(0 -1 1 0 22.34654 29.78966)"/><path d="m65.1697 147h3.72152v3.72399h-3.72152z" transform="matrix(0 -1 1 0 -81.8303 212.1697)"/><path d="m13.0345 147h3.72152v3.72399h-3.72152z" transform="matrix(0 -1 1 0 -133.9655 160.0345)"/><path d="m65.1697 68.8481h3.72152v3.72399h-3.72152z" transform="matrix(0 -1 1 0 -3.6784 134.0178)"/><path d="m13.0345 68.8481h3.72152v3.72399h-3.72152z" transform="matrix(0 -1 1 0 -55.8136 81.8826)"/><path d="m65.1697 133.975h3.72152v3.72399h-3.72152z" transform="matrix(0 -1 1 0 -68.8053 199.1447)"/><path d="m13.0345 133.975h3.72152v3.72399h-3.72152z" transform="matrix(0 -1 1 0 -120.9405 147.0095)"/><path d="m65.1697 55.8228h3.72152v3.72399h-3.72152z" transform="matrix(0 -1 1 0 9.3469 120.9925)"/><path d="m13.0345 55.8228h3.72152v3.72399h-3.72152z" transform="matrix(0 -1 1 0 -42.7883 68.8573)"/><path d="m65.1697 120.949h3.72152v3.72399h-3.72152z" transform="matrix(0 -1 1 0 -55.7793 186.1187)"/><path d="m13.0345 120.949h3.72152v3.72399h-3.72152z" transform="matrix(0 -1 1 0 -107.9145 133.9835)"/><path d="m65.1697 42.7975h3.72152v3.72399h-3.72152z" transform="matrix(0 -1 1 0 22.3722 107.9672)"/><path d="m13.0345 42.7975h3.72152v3.72399h-3.72152z" transform="matrix(0 -1 1 0 -29.763 55.832)"/><path d="m65.1697 107.924h3.72152v3.72399h-3.72152z" transform="matrix(0 -1 1 0 -42.7543 173.0937)"/><path d="m13.0345 107.924h3.72152v3.72399h-3.72152z" transform="matrix(0 -1 1 0 -94.8895 120.9585)"/><path d="m65.1697 29.7721h3.72152v3.72399h-3.72152z" transform="matrix(0 -1 1 0 35.3976 94.9418)"/><path d="m13.0345 29.7721h3.72152v3.72399h-3.72152z" transform="matrix(0 -1 1 0 -16.7376 42.8066)"/><path d="m65.1697 94.8987h3.72152v3.72399h-3.72152z" transform="matrix(0 -1 1 0 -29.729 160.0684)"/><path d="m13.0345 94.8987h3.72152v3.72399h-3.72152z" transform="matrix(0 -1 1 0 -81.8642 107.9332)"/><path d="m65.1697 16.7468h3.72152v3.72399h-3.72152z" transform="matrix(0 -1 1 0 48.4229 81.9165)"/><path d="m13.0345 16.7468h3.72152v3.72399h-3.72152z" transform="matrix(0 -1 1 0 -3.7123 29.7813)"/><path d="m65.1697 81.8734h3.72152v3.72399h-3.72152z" transform="matrix(0 -1 1 0 -16.7037 147.0431)"/><path d="m13.0345 81.8734h3.72152v3.72399h-3.72152z" transform="matrix(0 -1 1 0 -68.8389 94.9079)"/><path d="m65.1697 3.72156h3.72152v3.72399h-3.72152z" transform="matrix(0 -1 1 0 61.44814 68.89126)"/><path d="m13.0345 3.72156h3.72152v3.72399h-3.72152z" transform="matrix(0 -1 1 0 9.31294 16.75606)"/><path d="m52.1367 147h3.72152v3.72399h-3.72152z" transform="matrix(0 -1 1 0 -94.8633 199.1367)"/><path d="m0 147h3.72152v3.72399h-3.72152z" transform="matrix(0 -1 1 0 -147 147)"/><path d="m52.1367 68.8481h3.72152v3.72399h-3.72152z" transform="matrix(0 -1 1 0 -16.7114 120.9848)"/><path d="m0 68.8481h3.72152v3.72399h-3.72152z" transform="matrix(0 -1 1 0 -68.8481 68.8481)"/><path d="m52.1367 133.975h3.72152v3.72399h-3.72152z" transform="matrix(0 -1 1 0 -81.8383 186.1117)"/><path d="m0 133.975h3.72152v3.72399h-3.72152z" transform="matrix(0 -1 1 0 -133.975 133.975)"/><path d="m52.1367 55.8228h3.72152v3.72399h-3.72152z" transform="matrix(0 -1 1 0 -3.6861 107.9595)"/><path d="m0 55.8228h3.72152v3.72399h-3.72152z" transform="matrix(0 -1 1 0 -55.8228 55.8228)"/><path d="m52.1367 120.949h3.72152v3.72399h-3.72152z" transform="matrix(0 -1 1 0 -68.8123 173.0857)"/><path d="m0 120.949h3.72152v3.72399h-3.72152z" transform="matrix(0 -1 1 0 -120.949 120.949)"/><path d="m52.1367 42.7975h3.72152v3.72399h-3.72152z" transform="matrix(0 -1 1 0 9.3392 94.9342)"/><path d="m0 42.7975h3.72152v3.72399h-3.72152z" transform="matrix(0 -1 1 0 -42.7975 42.7975)"/><path d="m52.1367 107.924h3.72152v3.72399h-3.72152z" transform="matrix(0 -1 1 0 -55.7873 160.0607)"/><path d="m0 107.924h3.72152v3.72399h-3.72152z" transform="matrix(0 -1 1 0 -107.924 107.924)"/><path d="m52.1367 29.7721h3.72152v3.72399h-3.72152z" transform="matrix(0 -1 1 0 22.3646 81.9088)"/><path d="m0 29.7721h3.72152v3.72399h-3.72152z" transform="matrix(0 -1 1 0 -29.7721 29.7721)"/><path d="m52.1367 94.8987h3.72152v3.72399h-3.72152z" transform="matrix(0 -1 1 0 -42.762 147.0354)"/><path d="m0 94.8987h3.72152v3.72399h-3.72152z" transform="matrix(0 -1 1 0 -94.8987 94.8987)"/><path d="m52.1367 16.7468h3.72152v3.72399h-3.72152z" transform="matrix(0 -1 1 0 35.3899 68.8835)"/><path d="m0 16.7468h3.72152v3.72399h-3.72152z" transform="matrix(0 -1 1 0 -16.7468 16.7468)"/><path d="m52.1367 81.8734h3.72152v3.72399h-3.72152z" transform="matrix(0 -1 1 0 -29.7367 134.0101)"/><path d="m0 81.8734h3.72152v3.72399h-3.72152z" transform="matrix(0 -1 1 0 -81.8734 81.8734)"/><path d="m52.1367 3.72156h3.72152v3.72399h-3.72152z" transform="matrix(0 -1 1 0 48.41514 55.85826)"/><path d="m0 3.72156h3.72152v3.72399h-3.72152z" transform="matrix(0 -1 1 0 -3.72156 3.72156)"/><path d="m194.238 147h3.72152v3.72399h-3.72152z" transform="matrix(0 -1 1 0 47.238 341.238)"/><path d="m142.102 147h3.72152v3.72399h-3.72152z" transform="matrix(0 -1 1 0 -4.898 289.102)"/><path d="m194.238 68.8481h3.72152v3.72399h-3.72152z" transform="matrix(0 -1 1 0 125.3899 263.0861)"/><path d="m142.102 68.8481h3.72152v3.72399h-3.72152z" transform="matrix(0 -1 1 0 73.2539 210.9501)"/><path d="m194.238 133.975h3.72152v3.72399h-3.72152z" transform="matrix(0 -1 1 0 60.263 328.213)"/><path d="m142.102 133.975h3.72152v3.72399h-3.72152z" transform="matrix(0 -1 1 0 8.127 276.077)"/><path d="m194.238 55.8228h3.72152v3.72399h-3.72152z" transform="matrix(0 -1 1 0 138.4152 250.0608)"/><path d="m142.102 55.8228h3.72152v3.72399h-3.72152z" transform="matrix(0 -1 1 0 86.2792 197.9248)"/><path d="m194.238 120.949h3.72152v3.72399h-3.72152z" transform="matrix(0 -1 1 0 73.289 315.187)"/><path d="m142.102 120.949h3.72152v3.72399h-3.72152z" transform="matrix(0 -1 1 0 21.153 263.051)"/><path d="m194.238 42.7975h3.72152v3.72399h-3.72152z" transform="matrix(0 -1 1 0 151.4405 237.0355)"/><path d="m142.102 42.7975h3.72152v3.72399h-3.72152z" transform="matrix(0 -1 1 0 99.3045 184.8995)"/><path d="m194.238 107.924h3.72152v3.72399h-3.72152z" transform="matrix(0 -1 1 0 86.314 302.162)"/><path d="m142.102 107.924h3.72152v3.72399h-3.72152z" transform="matrix(0 -1 1 0 34.178 250.026)"/><path d="m194.238 29.7721h3.72152v3.72399h-3.72152z" transform="matrix(0 -1 1 0 164.4659 224.0101)"/><path d="m142.102 29.7721h3.72152v3.72399h-3.72152z" transform="matrix(0 -1 1 0 112.3299 171.8741)"/><path d="m194.238 94.8987h3.72152v3.72399h-3.72152z" transform="matrix(0 -1 1 0 99.3393 289.1367)"/><path d="m142.102 94.8987h3.72152v3.72399h-3.72152z" transform="matrix(0 -1 1 0 47.2033 237.0007)"/><path d="m194.238 16.7468h3.72152v3.72399h-3.72152z" transform="matrix(0 -1 1 0 177.4912 210.9848)"/><path d="m142.102 16.7468h3.72152v3.72399h-3.72152z" transform="matrix(0 -1 1 0 125.3552 158.8488)"/><path d="m194.238 81.8734h3.72152v3.72399h-3.72152z" transform="matrix(0 -1 1 0 112.3646 276.1114)"/><path d="m142.102 81.8734h3.72152v3.72399h-3.72152z" transform="matrix(0 -1 1 0 60.2286 223.9754)"/><path d="m194.238 3.72156h3.72152v3.72399h-3.72152z" transform="matrix(0 -1 1 0 190.51644 197.95956)"/><path d="m142.102 3.72156h3.72152v3.72399h-3.72152z" transform="matrix(0 -1 1 0 138.38044 145.82356)"/><path d="m181.203 147h3.72152v3.72399h-3.72152z" transform="matrix(0 -1 1 0 34.203 328.203)"/><path d="m129.068 147h3.72152v3.72399h-3.72152z" transform="matrix(0 -1 1 0 -17.932 276.068)"/><path d="m181.203 68.8481h3.72152v3.72399h-3.72152z" transform="matrix(0 -1 1 0 112.3549 250.0511)"/><path d="m129.068 68.8481h3.72152v3.72399h-3.72152z" transform="matrix(0 -1 1 0 60.2199 197.9161)"/><path d="m181.203 133.975h3.72152v3.72399h-3.72152z" transform="matrix(0 -1 1 0 47.228 315.178)"/><path d="m129.068 133.975h3.72152v3.72399h-3.72152z" transform="matrix(0 -1 1 0 -4.907 263.043)"/><path d="m181.203 55.8228h3.72152v3.72399h-3.72152z" transform="matrix(0 -1 1 0 125.3802 237.0258)"/><path d="m129.068 55.8228h3.72152v3.72399h-3.72152z" transform="matrix(0 -1 1 0 73.2452 184.8908)"/><path d="m181.203 120.949h3.72152v3.72399h-3.72152z" transform="matrix(0 -1 1 0 60.254 302.152)"/><path d="m129.068 120.949h3.72152v3.72399h-3.72152z" transform="matrix(0 -1 1 0 8.119 250.017)"/><path d="m181.203 42.7975h3.72152v3.72399h-3.72152z" transform="matrix(0 -1 1 0 138.4055 224.0005)"/><path d="m129.068 42.7975h3.72152v3.72399h-3.72152z" transform="matrix(0 -1 1 0 86.2705 171.8655)"/><path d="m181.203 107.924h3.72152v3.72399h-3.72152z" transform="matrix(0 -1 1 0 73.279 289.127)"/><path d="m129.068 107.924h3.72152v3.72399h-3.72152z" transform="matrix(0 -1 1 0 21.144 236.992)"/><path d="m181.203 29.7721h3.72152v3.72399h-3.72152z" transform="matrix(0 -1 1 0 151.4309 210.9751)"/><path d="m129.068 29.7721h3.72152v3.72399h-3.72152z" transform="matrix(0 -1 1 0 99.2959 158.8401)"/><path d="m181.203 94.8987h3.72152v3.72399h-3.72152z" transform="matrix(0 -1 1 0 86.3043 276.1017)"/><path d="m129.068 94.8987h3.72152v3.72399h-3.72152z" transform="matrix(0 -1 1 0 34.1693 223.9667)"/><path d="m181.203 16.7468h3.72152v3.72399h-3.72152z" transform="matrix(0 -1 1 0 164.4562 197.9498)"/><path d="m129.068 16.7468h3.72152v3.72399h-3.72152z" transform="matrix(0 -1 1 0 112.3212 145.8148)"/><path d="m181.203 81.8734h3.72152v3.72399h-3.72152z" transform="matrix(0 -1 1 0 99.3296 263.0764)"/><path d="m129.068 81.8734h3.72152v3.72399h-3.72152z" transform="matrix(0 -1 1 0 47.1946 210.9414)"/><path d="m181.203 3.72156h3.72152v3.72399h-3.72152z" transform="matrix(0 -1 1 0 177.48144 184.92456)"/><path d="m129.068 3.72156h3.72152v3.72399h-3.72152z" transform="matrix(0 -1 1 0 125.34644 132.78956)"/><path d="m168.17 147h3.72152v3.72399h-3.72152z" transform="matrix(0 -1 1 0 21.17 315.17)"/><path d="m116.035 147h3.72152v3.72399h-3.72152z" transform="matrix(0 -1 1 0 -30.965 263.035)"/><path d="m168.17 68.8481h3.72152v3.72399h-3.72152z" transform="matrix(0 -1 1 0 99.3219 237.0181)"/><path d="m116.035 68.8481h3.72152v3.72399h-3.72152z" transform="matrix(0 -1 1 0 47.1869 184.8831)"/><path d="m168.17 133.975h3.72152v3.72399h-3.72152z" transform="matrix(0 -1 1 0 34.195 302.145)"/><path d="m116.035 133.975h3.72152v3.72399h-3.72152z" transform="matrix(0 -1 1 0 -17.94 250.01)"/><path d="m168.17 55.8228h3.72152v3.72399h-3.72152z" transform="matrix(0 -1 1 0 112.3472 223.9928)"/><path d="m116.035 55.8228h3.72152v3.72399h-3.72152z" transform="matrix(0 -1 1 0 60.2122 171.8578)"/><path d="m168.17 120.949h3.72152v3.72399h-3.72152z" transform="matrix(0 -1 1 0 47.221 289.119)"/><path d="m116.035 120.949h3.72152v3.72399h-3.72152z" transform="matrix(0 -1 1 0 -4.914 236.984)"/><path d="m168.17 42.7975h3.72152v3.72399h-3.72152z" transform="matrix(0 -1 1 0 125.3725 210.9675)"/><path d="m116.035 42.7975h3.72152v3.72399h-3.72152z" transform="matrix(0 -1 1 0 73.2375 158.8325)"/><path d="m168.17 107.924h3.72152v3.72399h-3.72152z" transform="matrix(0 -1 1 0 60.246 276.094)"/><path d="m116.035 107.924h3.72152v3.72399h-3.72152z" transform="matrix(0 -1 1 0 8.111 223.959)"/><path d="m168.17 29.7721h3.72152v3.72399h-3.72152z" transform="matrix(0 -1 1 0 138.3979 197.9421)"/><path d="m116.035 29.7721h3.72152v3.72399h-3.72152z" transform="matrix(0 -1 1 0 86.2629 145.8071)"/><path d="m168.17 94.8987h3.72152v3.72399h-3.72152z" transform="matrix(0 -1 1 0 73.2713 263.0687)"/><path d="m116.035 94.8987h3.72152v3.72399h-3.72152z" transform="matrix(0 -1 1 0 21.1363 210.9337)"/><path d="m168.17 16.7468h3.72152v3.72399h-3.72152z" transform="matrix(0 -1 1 0 151.4232 184.9168)"/><path d="m116.035 16.7468h3.72152v3.72399h-3.72152z" transform="matrix(0 -1 1 0 99.2882 132.7818)"/><path d="m168.17 81.8734h3.72152v3.72399h-3.72152z" transform="matrix(0 -1 1 0 86.2966 250.0434)"/><path d="m116.035 81.8734h3.72152v3.72399h-3.72152z" transform="matrix(0 -1 1 0 34.1616 197.9084)"/><path d="m168.17 3.72156h3.72152v3.72399h-3.72152z" transform="matrix(0 -1 1 0 164.44844 171.89156)"/><path d="m116.035 3.72156h3.72152v3.72399h-3.72152z" transform="matrix(0 -1 1 0 112.31344 119.75656)"/><path d="m155.137 147h3.72152v3.72399h-3.72152z" transform="matrix(0 -1 1 0 8.137 302.137)"/><path d="m103 147h3.72152v3.72399h-3.72152z" transform="matrix(0 -1 1 0 -44 250)"/><path d="m155.137 68.8481h3.72152v3.72399h-3.72152z" transform="matrix(0 -1 1 0 86.2889 223.9851)"/><path d="m103 68.8481h3.72152v3.72399h-3.72152z" transform="matrix(0 -1 1 0 34.1519 171.8481)"/><path d="m155.137 133.975h3.72152v3.72399h-3.72152z" transform="matrix(0 -1 1 0 21.162 289.112)"/><path d="m103 133.975h3.72152v3.72399h-3.72152z" transform="matrix(0 -1 1 0 -30.975 236.975)"/><path d="m155.137 55.8228h3.72152v3.72399h-3.72152z" transform="matrix(0 -1 1 0 99.3142 210.9598)"/><path d="m103 55.8228h3.72152v3.72399h-3.72152z" transform="matrix(0 -1 1 0 47.1772 158.8228)"/><path d="m155.137 120.949h3.72152v3.72399h-3.72152z" transform="matrix(0 -1 1 0 34.188 276.086)"/><path d="m103 120.949h3.72152v3.72399h-3.72152z" transform="matrix(0 -1 1 0 -17.949 223.949)"/><path d="m155.137 42.7975h3.72152v3.72399h-3.72152z" transform="matrix(0 -1 1 0 112.3395 197.9345)"/><path d="m103 42.7975h3.72152v3.72399h-3.72152z" transform="matrix(0 -1 1 0 60.2025 145.7975)"/><path d="m155.137 107.924h3.72152v3.72399h-3.72152z" transform="matrix(0 -1 1 0 47.213 263.061)"/><path d="m103 107.924h3.72152v3.72399h-3.72152z" transform="matrix(0 -1 1 0 -4.924 210.924)"/><path d="m155.137 29.7721h3.72152v3.72399h-3.72152z" transform="matrix(0 -1 1 0 125.3649 184.9091)"/><path d="m103 29.7721h3.72152v3.72399h-3.72152z" transform="matrix(0 -1 1 0 73.2279 132.7721)"/><path d="m155.137 94.8987h3.72152v3.72399h-3.72152z" transform="matrix(0 -1 1 0 60.2383 250.0357)"/><path d="m103 94.8987h3.72152v3.72399h-3.72152z" transform="matrix(0 -1 1 0 8.1013 197.8987)"/><path d="m155.137 16.7468h3.72152v3.72399h-3.72152z" transform="matrix(0 -1 1 0 138.3902 171.8838)"/><path d="m103 16.7468h3.72152v3.72399h-3.72152z" transform="matrix(0 -1 1 0 86.2532 119.7468)"/><path d="m155.137 81.8734h3.72152v3.72399h-3.72152z" transform="matrix(0 -1 1 0 73.2636 237.0104)"/><path d="m103 81.8734h3.72152v3.72399h-3.72152z" transform="matrix(0 -1 1 0 21.1266 184.8734)"/><path d="m155.137 3.72156h3.72152v3.72399h-3.72152z" transform="matrix(0 -1 1 0 151.41544 158.85856)"/><path d="m103 3.72156h3.72152v3.72399h-3.72152z" transform="matrix(0 -1 1 0 99.27844 106.72156)"/></g></svg>