<svg viewBox="0 0 25.9662838 25.964323" xmlns="http://www.w3.org/2000/svg" xmlns:xlink="http://www.w3.org/1999/xlink"><radialGradient id="a" cx="12.983" cy="12.982" gradientUnits="userSpaceOnUse" r="12.983"><stop offset=".574" stop-color="#171718"/><stop offset=".798" stop-color="#171718"/><stop offset="1" stop-color="#171718"/></radialGradient><path d="m21.42 8.44c-1.074-1.077-.898 1.273-1.975 2.352l-.005.002a2.751 2.751 0 1 1 -3.891-3.892v-.007c1.05-1.05 3.5-.828 2.424-1.903l-4.99-4.992-4.593 4.592c-1.073 1.078-.854-1.372-1.906-2.424h-.008a2.75 2.75 0 0 0 -3.888 0 2.75 2.75 0 0 0 -.002 3.89l.004.006c1.076 1.075 3.427.904 2.353 1.979l-4.943 4.941 5.215 5.214c.893.891.748-1.063 1.645-1.959l.004-.002a2.286 2.286 0 0 1 3.237 0 2.288 2.288 0 0 1 0 3.237v.01c-.877.874-2.914.686-2.018 1.582l4.9 4.898 12.983-12.98z" fill="url(#a)"/></svg>