<svg viewBox="0 0 33.1713867 33.0111237" xmlns="http://www.w3.org/2000/svg" xmlns:xlink="http://www.w3.org/1999/xlink"><linearGradient id="a"><stop offset=".574" stop-color="#171718"/><stop offset=".798" stop-color="#171718"/><stop offset="1" stop-color="#171718"/></linearGradient><radialGradient id="b" cx="25.338" cy="20.449" gradientUnits="userSpaceOnUse" r="10.468" xlink:href="#a"/><radialGradient id="c" cx="7.833" cy="20.449" gradientUnits="userSpaceOnUse" r="10.468" xlink:href="#a"/><radialGradient id="d" cx="16.864" cy="6.292" gradientUnits="userSpaceOnUse" r="12.077" xlink:href="#a"/><path d="m17.505 14.19v18.821l15.666-6.308v-18.815zm14.615-4.747v16.322l-13.564-5.515v-5.35l13.564-5.458zm-13.564 11.574 12.9 5.246-12.9 5.191z" fill="url(#b)"/><path d="m0 26.703 15.667 6.308v-18.82l-15.667-6.304v18.815zm2.198-.247 12.418-5.465v10.463zm-1.148-17.013 13.566 5.457v5.317l-13.337 5.87-.228-.092v-16.552z" fill="url(#c)"/><path d="m16.653 0-15.667 6.305 15.468 6.28 16.287-6.305zm.012 1.133 13.177 5.143-13.177 5.1v-10.242zm-.709.28v9.837l-12.165-4.941 12.165-4.895z" fill="url(#d)"/></svg>