<svg viewBox="0 0 33.2490349 37.7122612" xmlns="http://www.w3.org/2000/svg" xmlns:xlink="http://www.w3.org/1999/xlink"><linearGradient id="a"><stop offset=".574" stop-color="#171718"/><stop offset=".798" stop-color="#171718"/><stop offset="1" stop-color="#171718"/></linearGradient><radialGradient id="b" cx="16.625" cy="3.353" gradientUnits="userSpaceOnUse" r="11.992" xlink:href="#a"/><radialGradient id="c" cx="16.622" cy="22.884" gradientUnits="userSpaceOnUse" r="14.387" xlink:href="#a"/><radialGradient id="d" cx="11.749" cy="17.827" gradientUnits="userSpaceOnUse" r="5.612" xlink:href="#a"/><path d="m17.522 2.061v-1.157a.899.899 0 1 0 -1.797 0v1.156h-15.725v4.645h33.249v-4.645h-15.727z" fill="url(#b)"/><path d="m30.553 26.63v-18.575h-27.862v18.575h12.236v5.766h-3.237v-.827h-1.645l-2.37 6.143h1.645l1.185-3.07h12.403l1.185 3.07h1.647l-2.37-6.143h-1.647v.827h-3.4v-5.766zm-9.985-12.97h8.077v1.843h-8.077zm0 3.408h8.077v1.848h-8.077zm-.041 3.588h8.073v1.847h-8.073zm-16.1 2.227v-10.08h14.438v10.08h-14.439z" fill="url(#c)"/><path d="m16.24 16.096-.85 1.489-1.203-.688.002-.002-2.598-1.487-.481.843-.825 1.39-2.36-1.434-.611 1.006-.006-.002-2.442 3.828 1.062.738 2.352-3.84 1.346.82v.003l1.113.66 1.328-2.247 1.19.682-.003.002 2.599 1.488.01-.016.015.008 1.269-2.218 1.485-2.6-1.125-.643z" fill="url(#d)"/></svg>