<svg width="40" height="34" viewBox="0 0 40 34" fill="none" xmlns="http://www.w3.org/2000/svg">
<path d="M37.0615 14.1518C37.1881 13.6644 37.2874 13.1703 37.3607 12.6681C37.8126 9.57256 37.28 5.31404 34.0311 2.69108C30.3948 -0.244476 23.3296 -0.261513 20 5.39626C16.6689 -0.261513 9.60519 -0.244476 5.96815 2.69108C2.72 5.3133 2.18741 9.57256 2.63926 12.6689C2.75297 13.4561 2.93514 14.2318 3.1837 14.9874M5.96296 20.0185C8.66519 23.5155 12.6052 28.1926 20 32.5926C24.2363 26.9348 31.7363 23.5822 34.6541 19.1814" stroke="#323232" stroke-linejoin="round"/>
<path d="M0 17.5051H9.16667L11.6667 19.1813L15.8333 7.44653L17.5 24.2102L21.6667 14.9902L23.3333 18.3428L25.8333 16.6665H40" stroke="#1476F2" stroke-linejoin="round"/>
</svg>
