<svg width="42" height="48" viewBox="0 0 42 48" fill="none" xmlns="http://www.w3.org/2000/svg">
<path fill-rule="evenodd" clip-rule="evenodd" d="M20.7007 1C18.7567 3.623 5.7827 9 0.689697 9V28C0.689697 36.933 19.5777 46.705 20.6897 46.987C21.8007 46.705 40.6897 36.25 40.6897 29V9C35.1337 9 22.6457 3.623 20.7007 1Z" stroke="#323232"/>
<path fill-rule="evenodd" clip-rule="evenodd" d="M31.6897 32.9868H9.68968C9.13768 32.9868 8.68968 32.5388 8.68968 31.9868V17.9868C8.68968 17.4348 9.13768 16.9868 9.68968 16.9868H31.6897C32.2427 16.9868 32.6897 17.4348 32.6897 17.9868V31.9868C32.6897 32.5388 32.2427 32.9868 31.6897 32.9868Z" stroke="#3F7FE7"/>
<path d="M17.6897 16.9866V13.9866C17.6897 13.4346 18.1377 12.9866 18.6897 12.9866H22.6897C23.2427 12.9866 23.6897 13.4346 23.6897 13.9866V16.9866" stroke="#3F7FE7"/>
<path d="M18.6897 24.9868V26.9868C18.6897 27.5388 19.1377 27.9868 19.6897 27.9868H21.6897C22.2427 27.9868 22.6897 27.5388 22.6897 26.9868V24.9868" stroke="#3F7FE7"/>
<path d="M32.6897 22.9866C32.6897 24.0906 27.3167 24.9866 20.6897 24.9866C14.0627 24.9866 8.68968 24.0906 8.68968 22.9866" stroke="#3F7FE7"/>
</svg>
