<svg width="41" height="42" viewBox="0 0 41 42" fill="none" xmlns="http://www.w3.org/2000/svg">
<path d="M5.61845 41.1688V38.9856C5.61845 38.2625 6.20611 37.6764 6.9284 37.6764H13.4782C13.7076 37.6765 13.9347 37.6313 14.1467 37.5436C14.3586 37.4559 14.5512 37.3272 14.7134 37.165C14.8756 37.0028 15.0043 36.8102 15.092 36.5983C15.1797 36.3863 15.2249 36.1592 15.2248 35.9298V35.4931C15.2247 35.3211 15.2585 35.1508 15.3242 34.9919C15.39 34.8329 15.4864 34.6885 15.608 34.5669C15.7295 34.4452 15.8739 34.3487 16.0328 34.2829C16.1917 34.217 16.362 34.1832 16.534 34.1832H16.9706C17.2 34.1833 17.4272 34.1381 17.6391 34.0504C17.8511 33.9627 18.0437 33.834 18.2059 33.6718C18.3681 33.5096 18.4967 33.317 18.5845 33.1051C18.6722 32.8931 18.7173 32.6659 18.7172 32.4366V31.5633C18.7173 31.3339 18.6722 31.1067 18.5845 30.8947C18.4967 30.6828 18.3681 30.4902 18.2059 30.328C18.0437 30.1658 17.8511 30.0371 17.6391 29.9494C17.4272 29.8617 17.2 29.8166 16.9706 29.8167H11.7316C11.0085 29.8167 10.4216 30.4036 10.4216 31.1266C10.4216 31.4738 10.2837 31.8068 10.0381 32.0524C9.79262 32.2979 9.45962 32.4358 9.1124 32.4358H2.99855M21.3371 41.1688V38.5489C21.337 38.3195 21.3821 38.0924 21.4699 37.8804C21.5576 37.6685 21.6863 37.4759 21.8485 37.3137C22.0107 37.1515 22.2033 37.0228 22.4152 36.9351C22.6272 36.8473 22.8543 36.8022 23.0837 36.8023H29.1961C29.6592 36.8023 30.1034 36.6183 30.4309 36.2909C30.7583 35.9634 30.9423 35.5192 30.9423 35.0561C30.9423 34.593 30.7583 34.1488 30.4309 33.8213C30.1034 33.4938 29.6592 33.3099 29.1961 33.3099H28.3228C27.8596 33.3099 27.4153 33.1258 27.0878 32.7983C26.7602 32.4707 26.5762 32.0265 26.5762 31.5633C26.5762 31.1 26.7602 30.6558 27.0878 30.3282C27.4153 30.0007 27.8596 29.8167 28.3228 29.8167H36.1817" stroke="#323232" stroke-linejoin="round"/>
<path fill-rule="evenodd" clip-rule="evenodd" d="M1.2527 41.1689C1.2527 30.5591 9.85404 21.9578 20.4638 21.9578C31.0736 21.9578 39.675 30.5591 39.675 41.1689H1.2527Z" stroke="#323232"/>
<path d="M23.0837 6.23906L23.106 5.3665L19.5898 1H16.9699L18.7165 5.3665V6.23906M33.5626 9.73301C33.5628 9.50355 33.5177 9.27631 33.43 9.06427C33.3423 8.85223 33.2137 8.65956 33.0515 8.49727C32.8893 8.33499 32.6967 8.20627 32.4847 8.11849C32.2727 8.0307 32.0454 7.98556 31.816 7.98566H12.221C12.1258 7.98566 9.11165 5.3665 9.11165 5.3665H7.36505L8.20041 8.8731C7.71095 9.13122 7.36505 9.39008 7.36505 9.85054C7.36505 11.2326 10.4625 11.4789 11.3485 11.4789H18.7172V13.2255L16.0973 18.4645H18.7172L23.0837 14.098L24.7701 11.4789H31.816C32.0454 11.479 32.2725 11.4339 32.4845 11.3461C32.6964 11.2584 32.889 11.1297 33.0512 10.9675C33.2134 10.8053 33.3421 10.6127 33.4298 10.4008C33.5176 10.1888 33.5627 9.9624 33.5626 9.73301Z" stroke="#1476F2"/>
<path d="M0.379395 23.8919C4.08571 19.7851 8.96229 16.9136 14.3515 15.6647M25.7029 15.478C31.3456 16.59 36.4868 19.4722 40.3794 23.7059" stroke="#323232"/>
</svg>
