<svg width="40" height="57" viewBox="0 0 40 57" fill="none" xmlns="http://www.w3.org/2000/svg">
<path d="M30.5887 45.7795V56.3846M9.41128 45.7795V56.3846M34.118 37.5303C34.118 39.0718 33.7487 42.2072 32.9415 43.4226C32.1313 44.6369 28.2349 48.1354 28.2349 48.1354C26.6532 49.6529 24.5447 50.4978 22.3528 50.4923H17.6472C15.4553 50.4978 13.3468 49.6529 11.7651 48.1354C11.7651 48.1354 7.86769 44.638 7.05846 43.4226C6.24923 42.2072 5.88205 39.0718 5.88205 37.5303M40 24.5692H0M12.9415 8.07077V2.17846C7.35282 4.0441 3.52821 8.01949 3.52821 13.9631V18.6759L1.17538 19.8544V22.2113M27.0585 8.07077V2.17846C32.6472 4.0441 36.4708 8.01949 36.4708 13.9631V18.6759L38.8236 19.8544V22.2113M16.4718 11.6051V1H23.5303V11.6051H16.4718Z" stroke="#323232" stroke-linejoin="round"/>
<path d="M34.1539 27.0266H36.4205V32.9702C34.7897 34.5343 33.8513 35.3425 33.6041 35.3968C31.8554 35.7825 29.2903 36.2584 25.9097 36.8245C24.9716 36.8264 24.0479 36.5937 23.2226 36.1476L21.8421 35.3958C21.2923 35.0963 20.6267 34.5671 20.0092 34.5589C19.358 34.5517 18.7549 35.0799 18.1754 35.3958L16.7959 36.1476C15.9707 36.594 15.0469 36.8267 14.1087 36.8245C10.7282 36.2604 8.15693 35.7845 6.3959 35.3968C6.16001 35.3455 5.17026 34.5363 3.42462 32.9702V27.0071H5.81949" stroke="#1476F2"/>
</svg>
