<svg width="43" height="43" viewBox="0 0 43 43" fill="none" xmlns="http://www.w3.org/2000/svg">
<path d="M9.46037 34.6694C9.46037 34.6694 14.3379 29.7918 14.8479 29.2818C15.358 28.7718 15.9757 28.1495 15.9353 26.9176C15.8787 25.1576 15.2735 23.932 15.8671 23.3375" stroke="#323232" stroke-linecap="round"/>
<path d="M19.7918 24.4913L24.8714 19.4127C25.8259 18.4582 27.5059 18.4761 28.3688 19.3929C30.9495 22.137 35.6932 27.6386 34.3957 28.9361L28.6804 34.6505C27.1934 36.1383 23.6682 35.7262 22.9292 36.4652L17.5416 41.8527" stroke="#323232" stroke-linecap="round"/>
<path d="M33.7605 29.571L35.665 31.4755" stroke="#1476F2" stroke-linecap="round"/>
<path d="M31.2211 35.9206L29.3157 34.0161" stroke="#1476F2" stroke-linecap="round"/>
<path d="M34.3953 32.7454L36.2998 30.8409L39.4749 30.2061L41.3794 32.1106L31.856 41.6349L29.9506 39.7295L30.5863 36.5553L32.4908 34.6508" stroke="#1476F2" stroke-linecap="round"/>
<path d="M10.268 22.5867C8.02584 24.8288 5.96241 24.6304 4.55356 23.2215C3.14472 21.8136 1.37939 20.0473 1.37939 20.0473L4.55356 16.8732" stroke="#1476F2" stroke-linecap="round"/>
<path d="M22.967 9.88857C25.2091 7.64645 25.0098 5.58301 23.6018 4.17417C22.193 2.76442 20.4267 1 20.4267 1L17.2526 4.17417" stroke="#1476F2" stroke-linecap="round"/>
<path d="M24.2367 20.047C21.9946 17.8049 25.8503 12.7711 22.3322 9.25304L15.983 2.90381L3.28362 15.6023C4.92502 17.2437 6.98756 19.3062 9.63285 21.9515C13.1518 25.4705 18.1847 21.6139 20.4268 23.856" stroke="#1476F2" stroke-linecap="round"/>
</svg>
