<svg width="664" height="317" viewBox="0 0 664 317" fill="none" xmlns="http://www.w3.org/2000/svg">
<path fill-rule="evenodd" clip-rule="evenodd" d="M22.9999 0C22.4476 0 21.9999 0.447715 21.9999 1C21.9999 1.55228 22.4476 2 22.9999 2H583C597.018 2 607.471 2.00078 615.758 2.67789C624.034 3.35404 630.062 4.69964 635.245 7.34068C644.465 12.0385 651.961 19.5345 656.659 28.7545C659.3 33.9378 660.646 39.9658 661.322 48.2415C661.999 56.529 662 66.9822 662 81V236C662 250.018 661.999 260.471 661.322 268.758C660.646 277.034 659.3 283.062 656.659 288.246C651.961 297.465 644.465 304.962 635.245 309.659C630.062 312.3 624.034 313.646 615.758 314.322C607.471 314.999 597.018 315 583 315H113.129C99.1115 315 88.6583 314.999 80.3709 314.322C72.0951 313.646 66.0672 312.3 60.8838 309.659C51.6639 304.962 44.1678 297.465 39.47 288.246C36.829 283.062 35.4834 277.034 34.8073 268.758C34.1301 260.471 34.1294 250.018 34.1294 236V128.765L64.2019 168.602C64.5347 169.043 65.1617 169.131 65.6025 168.798C66.0433 168.465 66.1309 167.838 65.7982 167.398L34.0936 125.398C33.9055 125.148 33.612 125.001 33.2999 125C32.9878 124.999 32.6929 125.143 32.5027 125.39L0.207314 167.39C-0.12934 167.828 -0.0473311 168.456 0.390485 168.793C0.828301 169.129 1.45613 169.047 1.79279 168.61L32.1294 129.157V236V236.047C32.1294 250.009 32.1294 260.543 32.8139 268.921C33.5002 277.321 34.8794 283.641 37.688 289.154C42.5776 298.75 50.3796 306.552 59.9758 311.441C65.4881 314.25 71.8086 315.629 80.208 316.315C88.5864 317 99.1211 317 113.083 317H113.129H583H583.047C597.008 317 607.543 317 615.921 316.315C624.321 315.629 630.641 314.25 636.153 311.441C645.75 306.552 653.552 298.75 658.441 289.154C661.25 283.641 662.629 277.321 663.315 268.921C664 260.543 664 250.009 664 236.048V236V81V80.9515C664 66.9908 664 56.4567 663.315 48.0787C662.629 39.6792 661.25 33.3587 658.441 27.8465C653.552 18.2502 645.75 10.4482 636.153 5.55867C630.641 2.75003 624.321 1.37079 615.921 0.68453C607.543 0 597.009 0 583.047 0H583H22.9999Z" fill="url(#paint0_linear_47_1044)"/>
<defs>
<linearGradient id="paint0_linear_47_1044" x1="-70.3721" y1="181.092" x2="6.5791" y2="-82.7844" gradientUnits="userSpaceOnUse">
<stop stop-color="#1476F2"/>
<stop offset="0.585032" stop-color="#1476F2" stop-opacity="0.44"/>
</linearGradient>
</defs>
</svg>
