<svg width="70" height="70" viewBox="0 0 70 70" fill="none" xmlns="http://www.w3.org/2000/svg">
<path fill-rule="evenodd" clip-rule="evenodd" d="M64.3755 -0.00012207H5.56792C2.50425 -0.00012207 0 2.50646 0 5.56896V47.405H69.9458V5.56896C69.9458 2.50646 67.4392 -0.00012207 64.3755 -0.00012207Z" fill="#FECB00"/>
<path fill-rule="evenodd" clip-rule="evenodd" d="M0 47.4048V64.3786C0 67.4423 2.50425 69.9465 5.56792 69.9465H64.3755C67.4392 69.9465 69.9458 67.4423 69.9458 64.3786V47.4048H0Z" fill="#808080"/>
<path fill-rule="evenodd" clip-rule="evenodd" d="M60.7809 23.0843C61.2529 23.0843 61.6355 22.7016 61.6355 22.2291V18.207C61.6355 17.7351 61.2529 17.3524 60.7809 17.3524H45.6679C45.196 17.3524 44.8134 17.7351 44.8134 18.207V22.2291C44.8134 22.7016 45.196 23.0843 45.6679 23.0843H60.7809Z" fill="#444444"/>
<path fill-rule="evenodd" clip-rule="evenodd" d="M37.9545 16.769C37.9545 13.3034 40.765 10.4935 44.23 10.4935L60.8626 10.49C61.3333 10.49 61.7171 10.8727 61.7171 11.3446V15.3958C61.7171 15.8683 61.3333 16.251 60.8626 16.251L45.6562 16.2481C44.5817 16.2481 43.7102 17.1202 43.7102 18.1947L43.7114 36.0592C43.7114 36.5323 43.3299 36.915 42.858 36.915H38.8114C38.3383 36.915 37.9556 36.5323 37.9556 36.0592L37.9545 16.769Z" fill="#444444"/>
<path fill-rule="evenodd" clip-rule="evenodd" d="M22.6612 17.6822C23.143 16.8241 24.0612 16.2454 25.1152 16.2454L29.1507 16.2484C30.2264 16.2484 31.0979 17.1199 31.0979 18.1949L31.0956 36.0595C31.0956 36.532 31.4771 36.9153 31.949 36.9153H35.9962C36.4687 36.9153 36.8519 36.532 36.8519 36.0595V16.7693C36.8519 13.3031 34.0408 10.4938 30.5758 10.4938L25.1018 10.4967C21.8696 10.4967 19.055 12.2834 17.5932 14.9248L6.0385 35.6722C5.97491 35.7906 5.93933 35.9259 5.93933 36.0694C5.93933 36.5344 6.31558 36.9118 6.78108 36.9118L11.4617 36.9106C11.7797 36.9106 12.055 36.735 12.1979 36.4766L22.6612 17.6822Z" fill="#444444"/>
<path fill-rule="evenodd" clip-rule="evenodd" d="M13.91 35.6721C13.8475 35.7905 13.8108 35.9265 13.8108 36.07C13.8108 36.5349 14.187 36.9117 14.6514 36.9117L19.3332 36.9105C19.6511 36.9105 19.9265 36.735 20.0694 36.4765L27.2858 23.5125C27.4293 23.257 27.7035 23.0844 28.0173 23.0844H29.1484C29.6215 23.0844 30.0041 22.7017 30.0041 22.2292V18.2071C30.0041 17.7352 29.6215 17.3525 29.1484 17.3525H25.1187C24.4747 17.3525 23.9141 17.7066 23.6213 18.231L13.91 35.6721Z" fill="#444444"/>
<path fill-rule="evenodd" clip-rule="evenodd" d="M11.5538 59.366L11.2423 57.6417C11.1426 57.1517 11.0422 56.4621 10.9641 55.9395H10.9308C10.8526 56.4621 10.7418 57.1855 10.6526 57.6522L10.3189 59.366H11.5538ZM10.1853 60.3005L9.78456 62.2476H8.62781L10.2967 54.7489H11.6874L13.2338 62.2476H12.0765L11.6763 60.3005H10.1853Z" fill="white"/>
<path fill-rule="evenodd" clip-rule="evenodd" d="M14.9083 54.7489H17.9901V55.7831H16.0989V58.0196H17.8676V59.0101H16.0989V62.2476H14.9083V54.7489Z" fill="white"/>
<path fill-rule="evenodd" clip-rule="evenodd" d="M25.8254 62.0474C25.5028 62.1816 24.8909 62.3146 24.3676 62.3146C23.6 62.3146 22.9659 62.1034 22.4654 61.5802C21.8756 60.9682 21.5198 59.8891 21.5309 58.5649C21.5531 55.7503 23.0884 54.6823 24.5572 54.6823C25.0799 54.6823 25.4806 54.782 25.714 54.9045L25.4806 55.9283C25.28 55.8168 25.0017 55.7503 24.6237 55.7503C23.656 55.7503 22.7658 56.4626 22.7658 58.576C22.7658 60.6124 23.5446 61.3025 24.3344 61.3025C24.5351 61.3025 24.657 61.2803 24.7241 61.2465V59.1442H23.9226V58.1648H25.8254V62.0474Z" fill="white"/>
<path fill-rule="evenodd" clip-rule="evenodd" d="M28.9869 58.2199H29.2984C30.0106 58.2199 30.4557 57.664 30.4557 56.8957C30.4557 56.1619 30.1553 55.6608 29.3877 55.6503C29.2319 55.6503 29.0872 55.6608 28.9869 55.6946V58.2199ZM27.808 54.8599C28.2192 54.7595 28.7425 54.7152 29.2319 54.7152C30.0106 54.7152 30.6558 54.8488 31.0898 55.2606C31.5127 55.6608 31.6574 56.1619 31.6574 56.7849C31.6574 57.6523 31.2345 58.3313 30.4779 58.676V58.6982C31.0122 58.8872 31.2788 59.3883 31.4346 60.2785C31.5903 61.1908 31.7688 61.9923 31.8913 62.2478H30.6558C30.5671 62.0366 30.3997 61.3022 30.2778 60.4231C30.1331 59.4443 29.8549 59.1322 29.2541 59.1322H28.9869V62.2478H27.808V54.8599Z" fill="white"/>
<path fill-rule="evenodd" clip-rule="evenodd" d="M34.699 54.7489V59.6891C34.699 60.9013 35.077 61.291 35.5448 61.291C36.0681 61.291 36.4128 60.9124 36.4128 59.6891V54.7489H37.6034V59.4885C37.6034 61.424 36.8352 62.3369 35.5448 62.3369C34.1763 62.3369 33.5084 61.4018 33.5084 59.5445V54.7489H34.699Z" fill="white"/>
<path fill-rule="evenodd" clip-rule="evenodd" d="M40.894 58.3424C40.9827 58.3645 41.0603 58.3645 41.1833 58.3645C41.9615 58.3645 42.3955 57.8308 42.3955 56.9739C42.3955 56.2727 42.1062 55.683 41.3053 55.683C41.139 55.683 40.9943 55.7051 40.894 55.739V58.3424ZM39.7151 54.8599C40.0931 54.7712 40.5825 54.7152 41.1052 54.7152C41.8956 54.7152 42.5402 54.8599 42.9858 55.2828C43.3854 55.6608 43.5861 56.2395 43.5861 56.8852C43.5861 57.6418 43.3749 58.1534 43.0302 58.5535C42.5845 59.0768 41.8618 59.3329 41.2277 59.3329C41.1052 59.3329 41.0048 59.3329 40.894 59.3218V62.2478H39.7151V54.8599Z" fill="white"/>
<path fill-rule="evenodd" clip-rule="evenodd" d="M46.4563 58.3424C46.5455 58.3645 46.6237 58.3645 46.7456 58.3645C47.5249 58.3645 47.9589 57.8308 47.9589 56.9739C47.9589 56.2727 47.6696 55.683 46.8687 55.683C46.7013 55.683 46.5566 55.7051 46.4563 55.739V58.3424ZM45.2773 54.8599C45.6553 54.7712 46.1453 54.7152 46.668 54.7152C47.4578 54.7152 48.1036 54.8599 48.5481 55.2828C48.9488 55.6608 49.1489 56.2395 49.1489 56.8852C49.1489 57.6418 48.9378 58.1534 48.5924 58.5535C48.1479 59.0768 47.4246 59.3329 46.7899 59.3329C46.668 59.3329 46.5677 59.3329 46.4563 59.3218V62.2478H45.2773V54.8599Z" fill="white"/>
<path fill-rule="evenodd" clip-rule="evenodd" d="M53.8106 58.8322H52.0308V61.2128H54.0555V62.2476H50.8402V54.7489H53.922V55.7831H52.0308V57.8417H53.8106V58.8322Z" fill="white"/>
<path fill-rule="evenodd" clip-rule="evenodd" d="M55.8135 62.2479V54.7491H56.9037L58.1719 57.9534C58.4385 58.6318 58.8171 59.5996 59.051 60.3229H59.0731C59.0066 59.3662 58.9396 58.2089 58.9396 56.8736V54.7491H59.9855V62.2479H58.8952L57.616 59.0541C57.3371 58.3646 57.0035 57.4634 56.7923 56.6736H56.7701C56.825 57.5416 56.8594 58.5986 56.8594 60.1561V62.2479H55.8135Z" fill="white"/>
</svg>
