<svg width="186" height="52" viewBox="0 0 186 52" version="1.1" xmlns="http://www.w3.org/2000/svg" xmlns:xlink="http://www.w3.org/1999/xlink"><title>Group 3 Copy</title><g id="Page-1" stroke="none" stroke-width="1" fill="none" fill-rule="evenodd"><g id="Group-3-Copy" fill="#0054B2"><g id="Group"><path d="M26.1822034,-4.26325641e-14 C40.642235,-4.26325641e-14 52.3644068,11.6405965 52.3644068,26 C52.3644068,40.3594035 40.642235,52 26.1822034,52 C11.7221717,52 1.42108547e-14,40.3594035 1.42108547e-14,26 C1.42108547e-14,11.6405965 11.7221717,-4.26325641e-14 26.1822034,-4.26325641e-14 Z M11.6290831,36.6557377 C9.94751183,36.6557377 8.58432898,38.0094341 8.58432898,39.6793032 C8.58432898,41.3491723 9.94751183,42.7028687 11.6290831,42.7028687 C13.3106544,42.7028687 14.6738372,41.3491723 14.6738372,39.6793032 C14.6738372,38.0094341 13.3106544,36.6557377 11.6290831,36.6557377 Z M20.0900124,25.920082 C16.5120435,25.920082 13.6115266,28.800414 13.6115266,32.3534836 C13.6115266,35.9065532 16.5120435,38.7868853 20.0900124,38.7868853 C23.6679813,38.7868853 26.5684982,35.9065532 26.5684982,32.3534836 C26.5684982,28.800414 23.6679813,25.920082 20.0900124,25.920082 Z M35.4613264,6.81967213 C28.7217072,6.81967213 23.2581663,12.2451919 23.2581663,18.9379098 C23.2581663,25.6306276 28.7217072,31.0561474 35.4613264,31.0561474 C42.2009456,31.0561474 47.6644865,25.6306276 47.6644865,18.9379098 C47.6644865,12.2451919 42.2009456,6.81967213 35.4613264,6.81967213 Z" id="Combined-Shape"/><path d="M27.4913136,23.325277 L27.4913136,14.4278023 L28.9560185,14.4278023 L28.9560185,23.325277 L27.4913136,23.325277 Z M36.8746592,23.325277 L31.8064125,23.325277 L31.8064125,14.4278023 L36.8746592,14.4278023 L36.8746592,15.6571388 L33.2711174,15.6571388 L33.2711174,18.0792967 L36.6479057,18.0792967 L36.6479057,19.2964615 L33.2711174,19.2964615 L33.2711174,22.0898547 L36.8746592,22.0898547 L36.8746592,23.325277 Z M42.6231662,15.5475939 C41.7815185,15.5475939 41.1196501,15.8437677 40.6375412,16.4361242 C40.1554323,17.0284807 39.9143815,17.8460016 39.9143815,18.8887113 C39.9143815,19.9801079 40.1462397,20.8057431 40.6099631,21.3656417 C41.0736865,21.9255403 41.7447475,22.2054854 42.6231662,22.2054854 C43.0031334,22.2054854 43.3708381,22.1679565 43.7262913,22.0928976 C44.0817444,22.0178388 44.4514919,21.9214808 44.8355448,21.803821 L44.8355448,23.0514149 C44.1328098,23.3151353 43.3361163,23.4469935 42.4454405,23.4469935 C41.1339409,23.4469935 40.1268387,23.0524332 39.4241037,22.2633007 C38.7213687,21.4741682 38.3700064,20.3452592 38.3700064,18.8765396 C38.3700064,17.9514898 38.5405805,17.1420833 38.8817339,16.4482959 C39.2228872,15.7545085 39.7162243,15.2230185 40.3617599,14.85381 C41.0072956,14.4846015 41.7651758,14.3 42.6354232,14.3 C43.550613,14.3 44.3963337,14.4906872 45.1726108,14.8720675 L44.6455621,16.0831464 C44.3432226,15.9411432 44.0235239,15.816385 43.6864562,15.7088683 C43.3493885,15.6013515 42.9949621,15.5475939 42.6231662,15.5475939 Z" id="IEC" fill-rule="nonzero"/></g><g id="Group-2" transform="translate(66.161017, 5.916168)"><path d="M37.8938008,4.04790419 C39.6804619,4.04790419 41.0204576,4.52162884 41.9234562,5.46907814 C42.8225876,6.41652743 43.2711864,7.77301609 43.2711864,9.53854409 L43.2711864,10.8265424 L35.3104901,10.8265424 C35.3452952,11.3573423 35.4574449,11.8006269 35.6508065,12.160201 C35.8480353,12.5159701 36.0994054,12.8013464 36.4203856,13.0125248 C36.7316977,13.2237033 37.0932839,13.3740015 37.5090113,13.4672244 C37.9247387,13.5585448 38.3772048,13.604205 38.8683432,13.604205 C39.2918051,13.604205 39.7075325,13.5585448 40.1135918,13.4653219 C40.5215847,13.3740015 40.8967062,13.2541434 41.2331554,13.1019428 C41.5309322,12.9744747 41.8074393,12.8317865 42.0588093,12.6814883 C42.312113,12.5311902 42.5170763,12.3999171 42.6756328,12.2819615 L43.0604223,12.2819615 L43.0604223,15.2403625 C42.7626455,15.354513 42.4900056,15.462956 42.2444364,15.5618864 C41.9988672,15.6627194 41.6624181,15.7616498 41.2331554,15.8643853 C40.8386977,15.9671207 40.4326384,16.0470261 40.016911,16.1041014 C39.5973164,16.1611766 39.0868418,16.1916168 38.4835537,16.1916168 C36.2850325,16.1916168 34.6008531,15.6722319 33.4271483,14.6391697 C32.2553771,13.6023025 31.6694915,12.1259558 31.6694915,10.2101296 C31.6694915,8.33806115 32.2147712,6.84268937 33.3091977,5.72401429 C34.3997571,4.60724173 35.9292472,4.04790419 37.8938008,4.04790419 Z M49.7223477,4.04790419 C50.5403708,4.04790419 51.2962163,4.12811113 51.9879413,4.28852501 C52.6738371,4.44893889 53.2548084,4.64181748 53.728912,4.8652511 L53.728912,7.77752688 L53.4374549,7.77752688 C53.3111568,7.68204243 53.114909,7.55218357 52.8409392,7.39176969 C52.5708556,7.2332655 52.3066011,7.09576789 52.0520619,6.97927686 C51.7450603,6.84177925 51.4030839,6.73101729 51.0241896,6.6412619 C50.6433523,6.55341621 50.2566858,6.50949336 49.8622471,6.50949336 C49.3337381,6.50949336 48.8868372,6.59733905 48.5215442,6.77494013 C48.1581943,6.95254121 47.9755478,7.18743297 47.9755478,7.47961539 C47.9755478,7.7393331 48.066871,7.94557951 48.2456314,8.09644495 C48.4282779,8.24540069 48.8188305,8.39244675 49.4250614,8.53567342 C49.735949,8.6101513 50.0973559,8.68462917 50.5034528,8.75528766 C50.9134359,8.82785585 51.3039885,8.92524999 51.6789967,9.04937977 C52.5183933,9.31482655 53.155713,9.7063128 53.5928987,10.2219288 C54.0242553,10.7375449 54.2457627,11.4231232 54.2457627,12.2767542 C54.2457627,12.8152866 54.1155785,13.3309026 53.8590962,13.819783 C53.6006709,14.3086634 53.2353779,14.7192465 52.7651604,15.0534421 C52.2638541,15.416283 51.6731676,15.6950976 50.996987,15.895615 C50.3169203,16.0923129 49.5047263,16.1916168 48.5604052,16.1916168 C47.699635,16.1916168 46.883555,16.0999517 46.1121651,15.9147119 C45.3466043,15.7313817 44.7112277,15.5136772 44.2118644,15.269237 L44.2118644,12.2385605 L44.5110938,12.2385605 C44.685968,12.3665096 44.8822159,12.5097363 45.1076094,12.6663308 C45.3271738,12.8229253 45.6380614,12.9871586 46.0325001,13.1571209 C46.3744765,13.3137154 46.7572569,13.4473936 47.1866704,13.561975 C47.6121979,13.6746466 48.0746432,13.7300276 48.5759495,13.7300276 C49.0908572,13.7300276 49.5435873,13.6517303 49.938026,13.4951358 C50.3285786,13.3385413 50.5267694,13.0883721 50.5267694,12.7465377 C50.5267694,12.4830007 50.4354462,12.2805736 50.2527997,12.143076 C50.0740393,12.0074881 49.7223477,11.8776292 49.2016109,11.7554091 C48.919869,11.6866603 48.5720634,11.6121825 48.146536,11.5319755 C47.7210085,11.4536783 47.3460003,11.3658326 47.0195683,11.2627094 C46.1005068,10.9819851 45.4107248,10.5675826 44.9502225,10.0175921 C44.4877772,9.46569198 44.2565545,8.74573922 44.2565545,7.85009506 C44.2565545,7.33638871 44.3750804,6.85323738 44.6179614,6.39873139 C44.8569562,5.94613509 45.2086479,5.54128102 45.6769224,5.18416917 C46.1393677,4.83660576 46.7164529,4.55970085 47.4023487,4.35536413 C48.0863015,4.14911771 48.8596345,4.04790419 49.7223477,4.04790419 Z M59.8706867,1.24550898 L59.8706867,4.52321414 L63.3389831,4.52321414 L63.3389831,7.01328315 L59.8706867,7.01328315 L59.8706867,11.0710328 C59.8706867,11.4714936 59.8745297,11.8207106 59.8822157,12.1186838 C59.8899017,12.4204528 59.941782,12.6880593 60.0474642,12.9252991 C60.1416174,13.1625389 60.3145518,13.3523308 60.5585815,13.4908788 C60.7987682,13.6313248 61.1542446,13.6996498 61.6192461,13.6996498 C61.8152385,13.6996498 62.0669542,13.6597936 62.3782361,13.580081 C62.6895181,13.5003684 62.9066469,13.4263496 63.031544,13.3599224 L63.3389831,13.3599224 L63.3389831,15.8670727 C62.9489198,15.9676624 62.5319557,16.047375 62.0919336,16.1043125 C61.64999,16.1612501 61.1138932,16.1916168 60.4721143,16.1916168 C59.00025,16.1916168 57.9318995,15.8936436 57.2593767,15.2939013 C56.5906968,14.6979549 56.2525139,13.718629 56.2525139,12.3597194 L56.2525139,7.01328315 L54.8728814,7.01328315 L54.8728814,4.52321414 L56.2525139,4.52321414 L56.2525139,1.24550898 L59.8706867,1.24550898 Z M90.5717669,4.04790419 C92.358428,4.04790419 93.6984237,4.52162884 94.6014223,5.46907814 C95.5005537,6.41652743 95.9491525,7.77301609 95.9491525,9.53854409 L95.9491525,10.8265424 L87.9884562,10.8265424 C88.0232613,11.3573423 88.135411,11.8006269 88.3287726,12.160201 C88.5240678,12.5159701 88.7773715,12.8013464 89.0983517,13.0125248 C89.4077302,13.2237033 89.77125,13.3740015 90.1869774,13.4672244 C90.6027048,13.5585448 91.0551709,13.604205 91.5463093,13.604205 C91.9697712,13.604205 92.383565,13.5585448 92.7915579,13.4653219 C93.1995508,13.3740015 93.5746723,13.2541434 93.9111215,13.1019428 C94.2088983,12.9744747 94.4834718,12.8317865 94.7367754,12.6814883 C94.9900791,12.5311902 95.1950424,12.3999171 95.3535989,12.2819615 L95.7383884,12.2819615 L95.7383884,15.2403625 C95.4406116,15.354513 95.1679718,15.462956 94.9224025,15.5618864 C94.6768333,15.6627194 94.3403842,15.7616498 93.9111215,15.8643853 C93.5166638,15.9671207 93.1086709,16.0470261 92.6948771,16.1041014 C92.2752825,16.1611766 91.7648079,16.1916168 91.1615198,16.1916168 C88.9629986,16.1916168 87.2788192,15.6722319 86.1031808,14.6391697 C84.9333432,13.6023025 84.3474576,12.1259558 84.3474576,10.2101296 C84.3474576,8.33806115 84.8908037,6.84268937 85.9871638,5.72401429 C87.0777232,4.60724173 88.6072133,4.04790419 90.5717669,4.04790419 Z M3.67357504,4.42405237 L3.67357504,15.8802395 L0.102412521,15.8802395 L0.102412521,4.42405237 L3.67357504,4.42405237 Z M13.8693928,4.04790419 C15.0643936,4.04790419 15.9795893,4.4184406 16.6110938,5.1614234 C17.2425982,5.90058624 17.559322,6.97590582 17.559322,8.38356217 L17.559322,15.8802395 L13.8849375,15.8802395 L13.8849375,10.1693949 C13.8849375,9.70335938 13.8674497,9.24114386 13.8285879,8.77892834 C13.7916692,8.3186228 13.7178317,7.9786461 13.6148479,7.75899823 C13.488547,7.49924074 13.3097827,7.31397254 13.0727256,7.20128363 C12.8376116,7.08668474 12.5208878,7.03129528 12.1264404,7.03129528 C11.8291476,7.03129528 11.5279685,7.08477476 11.2209602,7.19555369 C10.9158949,7.30633261 10.5894557,7.47823095 10.2416425,7.71697863 L10.2416425,15.8802395 L6.58474576,15.8802395 L6.58474576,4.36114116 L10.2416425,4.36114116 L10.2416425,5.63700879 C10.8401144,5.13850362 11.4210985,4.7488674 11.988481,4.46619014 C12.5558635,4.18733284 13.1815387,4.04790419 13.8693928,4.04790419 Z M22.6030126,4.35928144 L24.9846254,11.9756071 L27.3278251,4.35928144 L31.0423729,4.35928144 L26.8841537,15.8802395 L22.941048,15.8802395 L18.8135593,4.35928144 L22.6030126,4.35928144 Z M78.955782,4.04790419 C79.4944944,4.04790419 79.9772116,4.13194338 80.4077954,4.30193173 C80.8345175,4.47383006 81.1955899,4.73167756 81.4929438,5.07356425 C81.8173297,5.44219068 82.0586884,5.88148642 82.2208813,6.3895415 C82.3830743,6.89950656 82.4661017,7.56418011 82.4661017,8.38356217 L82.4661017,15.8802395 L78.8167594,15.8802395 L78.8167594,10.1273753 C78.8167594,9.56011077 78.8051742,9.08070542 78.7858655,8.69297917 C78.7626951,8.30334295 78.7028382,7.98437604 78.5966404,7.73798843 C78.4962352,7.49160082 78.3340422,7.31397254 78.1177849,7.20128363 C77.8995967,7.08668474 77.5983811,7.03129528 77.2064147,7.03129528 C76.9303005,7.03129528 76.658048,7.0905047 76.3877263,7.21083354 C76.1193355,7.32925239 75.8297052,7.49924074 75.5130427,7.71697863 L75.5130427,15.8802395 L71.8617695,15.8802395 L71.8617695,10.1273753 C71.8617695,9.5677507 71.8501843,9.09025532 71.8231522,8.69679914 C71.8019126,8.30525293 71.7381939,7.98437604 71.6319961,7.73798843 C71.5296601,7.49160082 71.3674671,7.31397254 71.1492789,7.20128363 C70.9349525,7.08668474 70.6279443,7.03129528 70.2437014,7.03129528 C69.9463476,7.03129528 69.6547864,7.10005461 69.3728795,7.2356633 C69.0890418,7.37318197 68.8109966,7.53362041 68.5426059,7.71697863 L68.5426059,15.8802395 L64.9067797,15.8802395 L64.9067797,4.36114116 L68.5426059,4.36114116 L68.5426059,5.63700879 C69.1353826,5.13850362 69.6972655,4.7488674 70.2224618,4.46619014 C70.749589,4.18733284 71.3385041,4.04790419 71.9969304,4.04790419 C72.7074901,4.04790419 73.3330917,4.21407258 73.8718041,4.54831934 C74.4105165,4.88447608 74.8217916,5.38489123 75.1094911,6.04574483 C75.802673,5.40399105 76.4630302,4.91121583 77.0770465,4.56550918 C77.6968554,4.21980253 78.322457,4.04790419 78.955782,4.04790419 Z M37.6153602,6.35184214 C36.9076568,6.35184214 36.3565763,6.55921558 35.960185,6.97396246 C35.5599266,7.39061185 35.341428,7.95565691 35.2988884,8.67100016 L39.6920636,8.67100016 C39.6688602,7.91380172 39.4909675,7.33924412 39.1545184,6.94542483 C38.8200028,6.54970304 38.305661,6.35184214 37.6153602,6.35184214 Z M90.2933263,6.35184214 C89.5856229,6.35184214 89.0345424,6.55921558 88.6381511,6.97396246 C88.2378927,7.39061185 88.0193941,7.95565691 87.9768545,8.67100016 L92.3700297,8.67100016 C92.3468263,7.91380172 92.1689336,7.33924412 91.8324845,6.94542483 C91.4960353,6.54970304 90.9836271,6.35184214 90.2933263,6.35184214 Z M3.76271186,0 L3.76271186,2.79043922 L0,2.79043922 L0,0 L3.76271186,0 Z" id="Combined-Shape"/><path d="M15.005904,28.3353293 C16.792565,28.3353293 18.1325607,28.809054 19.0316921,29.7565033 C19.9327571,30.7058551 20.3813559,32.0604412 20.3813559,33.8259692 L20.3813559,35.1139676 L12.4206596,35.1139676 C12.4535311,35.6447675 12.569548,36.088052 12.7629096,36.4476261 C12.9562712,36.8052978 13.2115085,37.0887715 13.5305551,37.29995 C13.8418672,37.513031 14.205387,37.6633291 14.6191808,37.7546496 C15.0349082,37.84597 15.4873743,37.8935327 15.9785127,37.8935327 C16.400041,37.8935327 16.8157684,37.84597 17.2237613,37.7546496 C17.6317542,37.6633291 18.0030085,37.5415686 18.3433249,37.3893679 C18.6430353,37.2618998 18.9156751,37.1192117 19.1689788,36.9689135 C19.4203489,36.8186153 19.6272458,36.6873422 19.7858023,36.5712892 L20.1705918,36.5712892 L20.1705918,39.5277876 C19.872815,39.6438406 19.6021088,39.7503811 19.3565395,39.8493116 C19.1109703,39.9501445 18.7725876,40.0509775 18.3433249,40.1518104 C17.9488672,40.2545459 17.5428079,40.3344513 17.1251469,40.3915265 C16.7074859,40.4486018 16.1970113,40.4790419 15.5937232,40.4790419 C13.3971356,40.4790419 11.7110226,39.9615596 10.5373178,38.9265949 C9.36554661,37.8897277 8.77966102,36.413381 8.77966102,34.4994573 C8.77966102,32.6254863 9.32494068,31.1301145 10.4193672,30.0114394 C11.5118602,28.8946669 13.0413503,28.3353293 15.005904,28.3353293 Z M39.5075178,28.3353293 C41.3980383,28.3353293 42.8618523,28.8755132 43.9047001,29.9596717 C44.943721,31.0419349 45.4661017,32.526019 45.4661017,34.4119241 C45.4661017,36.292143 44.9456345,37.7724364 43.9085271,38.8546995 C42.8714197,39.9369627 41.4037788,40.4790419 39.5075178,40.4790419 C37.6246513,40.4790419 36.1608373,39.9369627 35.116076,38.8546995 C34.0713146,37.7724364 33.5508475,36.292143 33.5508475,34.4119241 C33.5508475,32.5127513 34.0713146,31.0248764 35.116076,29.9501948 C36.1608373,28.8736178 37.6246513,28.3353293 39.5075178,28.3353293 Z M57.6059375,28.6467066 L57.6059375,34.3575512 C57.6059375,34.9534655 57.6214794,35.4366908 57.6525634,35.8148671 C57.6836473,36.1892235 57.7574717,36.5081904 57.8759792,36.7679479 C57.9867158,37.0066956 58.1596203,37.1881438 58.3908071,37.3103826 C58.6239367,37.4326214 58.9483754,37.4956508 59.3641232,37.4956508 C59.6205658,37.4956508 59.9236343,37.4326214 60.2752715,37.3103826 C60.6249659,37.1881438 60.9494046,37.0200654 61.2485876,36.8080575 L61.2485876,28.6467066 L64.9067797,28.6467066 L64.9067797,40.165805 L61.2485876,40.165805 L61.2485876,38.8899373 C60.6171949,39.4113623 60.0363136,39.8048185 59.5078865,40.0741258 C58.9794594,40.3453432 58.3500095,40.4790419 57.6214794,40.4790419 C56.4616596,40.4790419 55.5563397,40.1199654 54.9074622,39.3979924 C54.2566421,38.6760194 53.9322034,37.5911499 53.9322034,36.1433839 L53.9322034,28.6467066 L57.6059375,28.6467066 Z M88.1092128,28.3353293 C89.9997333,28.3353293 91.4654607,28.8755132 92.5044816,29.9596717 C93.5473294,31.0419349 94.0677966,32.526019 94.0677966,34.4119241 C94.0677966,36.292143 93.5473294,37.7724364 92.510222,38.8546995 C91.4731146,39.9369627 90.0054737,40.4790419 88.1092128,40.4790419 C86.2263462,40.4790419 84.7625322,39.9369627 83.7177709,38.8546995 C82.6730096,37.7724364 82.1525424,36.292143 82.1525424,34.4119241 C82.1525424,32.5127513 82.6730096,31.0248764 83.7177709,29.9501948 C84.7625322,28.8736178 86.2263462,28.3353293 88.1092128,28.3353293 Z M24.4843686,28.6467066 L26.8640607,36.2630322 L29.2072604,28.6467066 L32.9237288,28.6467066 L28.7655097,40.1676647 L24.8224039,40.1676647 L20.6949153,28.6467066 L24.4843686,28.6467066 Z M71.4731686,25.2215569 L71.4731686,28.499262 L74.940678,28.499262 L74.940678,30.9893311 L71.4731686,30.9893311 L71.4731686,35.0470807 C71.4731686,35.4475415 71.4770108,35.7967585 71.4827739,36.0966296 C71.4904582,36.3965007 71.5442478,36.6660051 71.6479849,36.9032449 C71.7421167,37.1404847 71.9130909,37.3283787 72.1570652,37.4669267 C72.3991185,37.6092706 72.7564353,37.6775957 73.2213312,37.6775957 C73.4153581,37.6775957 73.6650956,37.6358415 73.978228,37.5561289 C74.2894394,37.4764163 74.50844,37.4023975 74.6294666,37.3359703 L74.940678,37.3359703 L74.940678,39.8431206 C74.5468611,39.9437103 74.1319126,40.0234229 73.6919904,40.0803604 C73.2520682,40.1391959 72.7122509,40.1676647 72.0725387,40.1676647 C70.6029295,40.1676647 69.5309792,39.8696915 68.8605301,39.2718472 C68.1920019,38.6740029 67.8558168,37.6965749 67.8558168,36.3376652 L67.8558168,30.9893311 L66.4745763,30.9893311 L66.4745763,28.499262 L67.8558168,28.499262 L67.8558168,25.2215569 L71.4731686,25.2215569 Z M103.235743,28.3353293 C104.4288,28.3353293 105.343996,28.7058658 105.975501,29.4488485 C106.607005,30.1899214 106.923729,31.263331 106.923729,32.6709873 L106.923729,40.1676647 L103.249344,40.1676647 L103.249344,34.45682 C103.249344,33.9926945 103.231856,33.528569 103.192995,33.0663535 C103.156076,32.606048 103.082239,32.2660712 102.979255,32.0464234 C102.854897,31.7866659 102.674189,31.6013977 102.439075,31.4887088 C102.202018,31.3760199 101.885295,31.3187204 101.490847,31.3187204 C101.193554,31.3187204 100.890432,31.3741099 100.585367,31.4829788 C100.280302,31.5937578 99.9538625,31.7675661 99.6060492,32.0063138 L99.6060492,40.1676647 L95.9491525,40.1676647 L95.9491525,28.6485663 L99.6060492,28.6485663 L99.6060492,29.9244339 C100.204521,29.4259288 100.787448,29.0362925 101.352888,28.7555253 C101.918327,28.474758 102.545945,28.3353293 103.235743,28.3353293 Z M51.1101695,23.9760479 L51.1101695,39.8562874 L47.3474576,39.8562874 L47.3474576,23.9760479 L51.1101695,23.9760479 Z M79.8703868,28.3987298 L79.8703868,39.8562874 L76.2992243,39.8562874 L76.2992243,28.3987298 L79.8703868,28.3987298 Z M39.5075178,30.8978858 C39.1860528,30.8978858 38.897117,30.9471658 38.6368834,31.0457256 C38.3766498,31.1442855 38.1374645,31.3300329 37.9193275,31.6086541 C37.7145849,31.8740076 37.5500254,32.2360255 37.4275626,32.694708 C37.3050997,33.1552858 37.2438683,33.7352727 37.2438683,34.4327733 C37.2438683,35.1302739 37.3012728,35.6932023 37.4160817,36.123454 C37.5328041,36.5537058 37.6839692,36.8967699 37.869577,37.1545419 C38.0590117,37.418 38.298197,37.6113289 38.5852194,37.7326334 C38.8722417,37.8558332 39.1898798,37.9164854 39.540047,37.9164854 C39.8251559,37.9164854 40.1179187,37.8558332 40.4145084,37.7326334 C40.7110982,37.6113289 40.94837,37.4293723 41.1282373,37.184868 C41.3387204,36.8948745 41.4994529,36.5423335 41.6085214,36.1348263 C41.7195034,35.7254238 41.7730809,35.1568092 41.7730809,34.4327733 C41.7730809,33.7561219 41.7175899,33.1912981 41.6027809,32.7420925 C41.4898855,32.2909916 41.3348934,31.930869 41.1378047,31.6598294 C40.9254082,31.3755221 40.6862229,31.176507 40.4202489,31.0665748 C40.1523614,30.9528519 39.8500312,30.8978858 39.5075178,30.8978858 Z M88.1092128,30.8978858 C87.7877477,30.8978858 87.4988119,30.9471658 87.2385783,31.0457256 C86.9783447,31.1442855 86.7391594,31.3300329 86.5210224,31.6086541 C86.3162798,31.8740076 86.1517204,32.2360255 86.0292575,32.694708 C85.9067946,33.1552858 85.8455632,33.7352727 85.8455632,34.4327733 C85.8455632,35.1302739 85.9029677,35.6932023 86.0196901,36.123454 C86.134499,36.5537058 86.2856641,36.8967699 86.4693584,37.1545419 C86.6607067,37.418 86.8998919,37.6113289 87.1869143,37.7326334 C87.4739366,37.8558332 87.7915747,37.9164854 88.1398285,37.9164854 C88.4268508,37.9164854 88.7196136,37.8558332 89.0162034,37.7326334 C89.3127931,37.6113289 89.5500649,37.4293723 89.7280188,37.184868 C89.9404153,36.8948745 90.1011478,36.5423335 90.2102163,36.1348263 C90.3211983,35.7254238 90.3747758,35.1568092 90.3747758,34.4327733 C90.3747758,33.7561219 90.3192848,33.1912981 90.2063893,32.7420925 C90.0934939,32.2909916 89.9365883,31.930869 89.7394997,31.6598294 C89.5271031,31.3755221 89.2879178,31.176507 89.0219438,31.0665748 C88.7559698,30.9528519 88.4517261,30.8978858 88.1092128,30.8978858 Z M14.7255297,30.6392673 C14.0197599,30.6392673 13.4667458,30.8485432 13.0703545,31.2613876 C12.6720297,31.678037 12.4515975,32.2430821 12.4109915,32.9584253 L16.8002994,32.9584253 C16.7809633,32.2031294 16.6030706,31.6266693 16.2666215,31.23285 C15.9301723,30.8371282 15.4177641,30.6392673 14.7255297,30.6392673 Z M79.9576271,23.9760479 L79.9576271,26.7668209 L76.1949153,26.7668209 L76.1949153,23.9760479 L79.9576271,23.9760479 Z" id="Combined-Shape"/><path d="M108.709083,15.9236593 L105.054549,15.9236593 L105.054549,10.2341051 C105.054549,9.76980705 105.035213,9.3093147 104.996541,8.84882236 C104.959802,8.39023287 104.888258,8.05152362 104.78191,7.83269461 C104.662025,7.57390552 104.480266,7.38932801 104.246298,7.27705921 C104.012331,7.16288756 103.695218,7.10770459 103.302694,7.10770459 C103.00685,7.10770459 102.705206,7.1609847 102.403562,7.27135063 C102.096117,7.38171657 101.77127,7.55297405 101.42902,7.79083167 L101.42902,15.9236593 L97.7880212,15.9236593 L97.7880212,4.44750499 L101.42902,4.44750499 L101.42902,5.7186161 C102.020706,5.22196939 102.602725,4.83378576 103.165407,4.55216234 C103.728089,4.27434464 104.350713,4.1354358 105.039081,4.1354358 C106.224387,4.1354358 107.13512,4.50459082 107.765479,5.24480373 C108.39197,5.98121091 108.709083,7.05252162 108.709083,8.45493014 L108.709083,15.9236593" id="Fill-11"/><path d="M115.87313,16.1462941 C114.393914,16.1462941 113.313023,15.8475449 112.642058,15.2462409 C111.965292,14.6487425 111.628843,13.6668663 111.628843,12.3044178 L111.628843,6.94405855 L110.238573,6.94405855 L110.238573,4.44750499 L111.628843,4.44750499 L111.628843,1.16126414 L115.269842,1.16126414 L115.269842,4.44750499 L118.760018,4.44750499 L118.760018,6.94405855 L115.269842,6.94405855 L115.269842,11.0123752 C115.269842,11.4138789 115.273709,11.7640053 115.281444,12.0627545 C115.285311,12.3653094 115.341386,12.6336128 115.443867,12.8714704 C115.542482,13.109328 115.710706,13.2996141 115.958209,13.438523 C116.201845,13.5793347 116.561497,13.6478377 117.029432,13.6478377 C117.222794,13.6478377 117.476097,13.6078776 117.789343,13.5279574 C118.106456,13.4480373 118.324955,13.3738257 118.448706,13.3072255 L118.760018,13.3072255 L118.760018,15.8209049 C118.363627,15.9217565 117.944032,16.0016766 117.501234,16.0587625 C117.06037,16.1158483 116.51509,16.1462941 115.87313,16.1462941" id="Fill-13"/></g></g></g></svg>