<svg width="387" height="405" viewBox="0 0 387 405" fill="none" xmlns="http://www.w3.org/2000/svg"><g opacity=".2"><circle cx="191" cy="207" r="135.5" stroke="#000" stroke-opacity=".1"/><circle cx="191" cy="207" r="135.5" stroke="#000" stroke-opacity=".1"/><circle cx="191" cy="207" r="135.5" stroke="#04AF70"/></g><g filter="url(#filter0_d)"><circle cx="191.5" cy="207.5" r="84.5" fill="#fff"/></g><path fill-rule="evenodd" clip-rule="evenodd" d="M211.34 191.221C211.211 192.396 210.333 193.365 209.599 193.365C208.865 193.365 204.717 193.365 203.496 193.365C201.867 193.365 201.46 195.423 201.46 195.423L194.74 221.167C194.74 221.167 194.333 223.226 192.501 223.226C190.669 223.226 171.937 223.226 171.937 223.226C171.122 223.226 170.715 222.886 170.715 222.269C170.715 221.275 171.53 219.739 172.751 219.739C173.973 219.739 181.866 219.739 181.866 219.739C183.088 219.739 184.87 218.831 185.375 216.856C185.88 214.882 191.687 193.582 192.094 192.347C192.501 191.112 193.112 190.289 194.333 190.289C197.998 190.289 209.604 190.289 210.214 190.289C211.029 190.289 211.434 190.375 211.34 191.221ZM172.955 214.786C173.362 213.551 178.859 193.377 179.267 192.142C179.674 190.907 179.877 190.083 181.303 190.083H188.022C188.836 190.083 189.195 190.901 188.836 192.142C188.478 193.383 182.928 213.355 182.524 214.786C182.121 216.216 181.41 216.844 180.596 216.844H173.985C172.967 216.844 172.548 216.227 172.955 214.786ZM191.279 165.587C168.883 165.587 150.558 184.114 150.558 206.757C150.558 229.402 168.883 247.928 191.279 247.928C213.676 247.928 232 229.402 232 206.757C232 184.114 213.676 165.587 191.279 165.587Z" fill="url(#paint0_linear)"/><g opacity=".2"><circle cx="191" cy="207" r="173.5" stroke="#000" stroke-opacity=".1"/><circle cx="191" cy="207" r="173.5" stroke="#000" stroke-opacity=".1"/><circle cx="191" cy="207" r="173.5" stroke="#04AF70"/></g><circle r="6" transform="matrix(-1 0 0 1 210 33)" fill="#fff"/><circle r="5.5" transform="matrix(-1 0 0 1 210 33)" stroke="#17CA8E" stroke-opacity=".2"/><circle r="6" transform="matrix(-1 0 0 1 324 182)" fill="#fff"/><circle r="5.5" transform="matrix(-1 0 0 1 324 182)" stroke="#17CA8E" stroke-opacity=".2"/><circle r="6" transform="matrix(-1 0 0 1 299 343)" fill="#fff"/><circle r="5.5" transform="matrix(-1 0 0 1 299 343)" stroke="#17CA8E" stroke-opacity=".2"/><circle r="6" transform="matrix(-1 0 0 1 55 228)" fill="#fff"/><circle r="5.5" transform="matrix(-1 0 0 1 55 228)" stroke="#17CA8E" stroke-opacity=".2"/><defs><filter id="filter0_d" x="87" y="113" width="209" height="209" filterUnits="userSpaceOnUse" color-interpolation-filters="sRGB"><feFlood flood-opacity="0" result="BackgroundImageFix"/><feColorMatrix in="SourceAlpha" type="matrix" values="0 0 0 0 0 0 0 0 0 0 0 0 0 0 0 0 0 0 127 0"/><feOffset dy="10"/><feGaussianBlur stdDeviation="10"/><feColorMatrix type="matrix" values="0 0 0 0 0.313321 0 0 0 0 0.313321 0 0 0 0 0.313321 0 0 0 0.1 0"/><feBlend mode="normal" in2="BackgroundImageFix" result="effect1_dropShadow"/><feBlend mode="normal" in="SourceGraphic" in2="effect1_dropShadow" result="shape"/></filter><linearGradient id="paint0_linear" x1="158.966" y1="198.161" x2="246.167" y2="193.232" gradientUnits="userSpaceOnUse"><stop stop-color="#2A82F2"/><stop offset=".969" stop-color="#2074DE"/></linearGradient></defs></svg>