<svg height="130" viewBox="0 0 270 130" width="270" xmlns="http://www.w3.org/2000/svg"><path d="m51.5794348 66.1150943-5.6798372-13.1831191h-25.6029581l-5.6798372 13.1831191h-14.50543022l26.38939712-61.02649171h13.1946986l26.3893972 61.02649171zm-18.4376252-42.8669634-7.6896257 17.7230012h15.2918692zm53.1619313 42.8669634h-13.1073165v-46.9703184h13.1073165zm-14.2432839-58.40732897c0-2.15354457.7427405-3.9723894 2.2282438-5.45658903 1.4855032-1.48419964 3.3059457-2.22628833 5.4613818-2.22628833 2.1554362 0 3.9758786.74208869 5.461382 2.22628833 1.4855032 1.48419963 2.2282437 3.30304446 2.2282437 5.45658903s-.7427405 3.97238937-2.2282437 5.45658907c-1.4855034 1.4841996-3.3059458 2.2262883-5.461382 2.2262883-2.1554361 0-3.9758786-.7420887-5.4613818-2.2262883-1.4855033-1.4841997-2.2282438-3.3030445-2.2282438-5.45658907zm43.637281 20.86599647v21.0406073c0 1.8043211.466034 3.2157448 1.398114 4.2343132.932081 1.0185682 2.03891 1.5278448 3.32052 1.5278448 2.446712 0 4.514734-1.1058576 6.20413-3.3176061l4.893398 9.1670696c-4.077852 3.72505-8.374096 5.5875471-12.888861 5.5875471s-8.330412-1.4841774-11.447056-4.4525766c-3.116645-2.9683992-4.674943-7.0135102-4.674943-12.135454v-21.6517453h-5.5050732v-9.4289859h5.5050732v-14.05617331h13.194698v14.05617331h11.359675v9.4289859zm37.389461 23.4415065c2.184564 2.4154622 4.980763 3.6231751 8.388683 3.6231751 3.407919 0 6.204119-1.2077129 8.388682-3.6231751 2.184564-2.4154622 3.27683-5.5438753 3.27683-9.3853332s-1.092266-6.9844217-3.27683-9.4289858c-2.184563-2.4445642-4.980763-3.6668278-8.388682-3.6668278-3.40792 0-6.204119 1.2222636-8.388683 3.6668278-2.184563 2.4445641-3.276829 5.5875279-3.276829 9.4289858s1.092266 6.969871 3.276829 9.3853332zm26.170942 7.8138355c-4.718658 4.6563126-10.646019 6.9844339-17.782259 6.9844339-7.136243 0-13.063602-2.3281213-17.78226-6.9844339s-7.07795-10.3893115-7.07795-17.1991687c0-6.8098571 2.359292-12.5574068 7.07795-17.2428212 4.718658-4.6854146 10.646017-7.0280868 17.78226-7.0280868 7.13624 0 13.063601 2.3426722 17.782259 7.0280868 4.718657 4.6854144 7.077951 10.4329641 7.077951 17.2428212 0 6.8098572-2.359294 12.5428561-7.077951 17.1991687zm40.66629-4.6271875c4.369127 0 8.301282-2.1826138 11.796584-6.5479069l7.777008 8.7305425c-6.058524 6.286022-12.612116 9.4289858-19.660975 9.4289858-7.048858 0-13.005346-2.226266-17.869641-6.6788649-4.864296-4.452599-7.296407-10.2729024-7.296407-17.4610849 0-7.1881826 2.461239-13.0375875 7.383788-17.5483903 4.922551-4.510803 10.762531-6.7661705 17.520114-6.7661705 3.378792 0 6.801223.6984365 10.267397 2.0953302 3.466175 1.3968938 6.509955 3.4631014 9.131432 6.1986852l-6.815805 8.9051533c-1.514631-1.8043212-3.364201-3.2011941-5.548764-4.1906604-2.184564-.9894664-4.354531-1.4841922-6.509967-1.4841922-3.437047 0-6.393446 1.1204083-8.869284 3.3612589-2.47584 2.2408504-3.71374 5.3547127-3.71374 9.3416804 0 3.9869676 1.2379 7.0862791 3.71374 9.2980276 2.475838 2.2117485 5.373982 3.3176062 8.69452 3.3176062z" fill="#0bc7ff" fill-rule="evenodd" transform="translate(13 32)"/></svg>