<svg height="128" viewBox="0 0 128 128" width="128" xmlns="http://www.w3.org/2000/svg"><g fill="#fff" fill-rule="evenodd"><path d="m48 83.5 6.8365385-39.5 12.5607829.0271291c4.9556109.0180862 8.6541774.958553 11.0958105 2.8214286s3.5539159 4.4762881 3.3368818 7.8403159c-.2712925 4.1598194-2.5501159 7.107821-6.8365384 8.8440934 1.5373245.5425852 2.7355154 1.5237452 3.5946085 2.9435096.8590931 1.4197645 1.2253326 3.1243605 1.0987294 5.1138393-.2532064 3.8161821-1.7588576 6.7551408-4.5169986 8.8169643-2.7581411 2.0618235-6.5335727 3.0927198-11.326408 3.0927198zm12.2081044-16.7929258-1.6548764 9.4680632 5.5614698.0271291c1.7362724 0 3.1831444-.4295401 4.3406593-1.2886333 1.157515-.8590931 1.8447792-2.0030262 2.0618132-3.4318337.5064128-3.0203906-.6510848-4.6029068-3.4725274-4.7475962zm1.0580357-6.2396978 4.3677885.0271291c4.0332161-.0904309 6.2939536-1.6367753 6.7822802-4.6390797.4340681-2.966132-1.1032334-4.4582187-4.6119506-4.4763049l-4.9375-.0271291z"/><g fill-rule="nonzero"><path d="m63.7754386 99.9298246c-19.7194723 0-35.7052632-15.9857909-35.7052632-35.7052632s15.9857909-35.7052632 35.7052632-35.7052632 35.7052632 15.9857909 35.7052632 35.7052632-15.9857909 35.7052632-35.7052632 35.7052632zm0-1.3473685c18.9753413 0 34.3578947-15.3825534 34.3578947-34.3578947s-15.3825534-34.3578947-34.3578947-34.3578947-34.3578947 15.3825534-34.3578947 34.3578947 15.3825534 34.3578947 34.3578947 34.3578947z" opacity=".8"/><path d="m63.7754386 109.810526c-25.1764332 0-45.5859649-20.4095314-45.5859649-45.5859646s20.4095317-45.5859649 45.5859649-45.5859649 45.5859654 20.4095317 45.5859654 45.5859649-20.4095322 45.5859646-45.5859654 45.5859646zm0-1.347368c24.4323022 0 44.2385964-19.8062944 44.2385964-44.2385966s-19.8062942-44.2385965-44.2385964-44.2385965-44.2385965 19.8062943-44.2385965 44.2385965 19.8062943 44.2385966 44.2385965 44.2385966z" opacity=".6"/><path d="m64 119.242105c-30.5093723 0-55.24210526-24.7327327-55.24210526-55.242105s24.73273296-55.24210526 55.24210526-55.24210526 55.242105 24.73273296 55.242105 55.24210526-24.7327327 55.242105-55.242105 55.242105zm0-1.347368c29.7652413 0 53.894737-24.1294957 53.894737-53.894737s-24.1294957-53.8947368-53.894737-53.8947368-53.8947368 24.1294955-53.8947368 53.8947368 24.1294955 53.894737 53.8947368 53.894737z" opacity=".4"/><path d="m64 127.775439c-35.2222021 0-63.7754386-28.5532369-63.7754386-63.775439s28.5532365-63.7754386 63.7754386-63.7754386 63.775439 28.5532365 63.775439 63.7754386-28.5532369 63.775439-63.775439 63.775439zm0-1.347369c34.4780711 0 62.42807-27.9499989 62.42807-62.42807s-27.9499989-62.42807018-62.42807-62.42807018-62.42807018 27.94999908-62.42807018 62.42807018 27.94999908 62.42807 62.42807018 62.42807z" opacity=".2"/></g></g></svg>