<svg viewBox="0 0 1496 1496" xmlns="http://www.w3.org/2000/svg" xmlns:xlink="http://www.w3.org/1999/xlink"><linearGradient id="a"><stop offset="0" stop-color="#cce3fd"/><stop offset="1" stop-color="#99c7fb"/></linearGradient><linearGradient id="b" gradientUnits="userSpaceOnUse" x1="436.234" x2="748.458" xlink:href="#a" y1="441.154" y2="441.154"/><linearGradient id="c"><stop offset="0" stop-color="#99c7fb"/><stop offset="1" stop-color="#cce3fd"/></linearGradient><linearGradient id="d" gradientUnits="userSpaceOnUse" x1="747.736" x2="1059.961" xlink:href="#c" y1="441.154" y2="441.154"/><linearGradient id="e" gradientUnits="userSpaceOnUse" x1="349.617" x2="960.205" xlink:href="#a" y1="477.768" y2="355.761"/><linearGradient id="f" gradientUnits="userSpaceOnUse" x1="937.269" x2="983.692" xlink:href="#a" y1="481.907" y2="472.631"/><linearGradient id="g" gradientUnits="userSpaceOnUse" x1="410.291" x2="1032.949" xlink:href="#a" y1="404.945" y2="404.945"/><linearGradient id="h" gradientUnits="userSpaceOnUse" x1="985.739" x2="1033.081" xlink:href="#a" y1="524.152" y2="524.152"/><linearGradient id="i" gradientUnits="userSpaceOnUse" x1="416.716" x2="1161.986" xlink:href="#a" y1="406.426" y2="406.426"/><linearGradient id="j" gradientUnits="userSpaceOnUse" x1="934.247" x2="1162.162" xlink:href="#a" y1="579.713" y2="579.713"/><linearGradient id="k" gradientUnits="userSpaceOnUse" x1="435.76" x2="1274.059" xlink:href="#a" y1="420.963" y2="420.963"/><linearGradient id="l" gradientUnits="userSpaceOnUse" x1="876.078" x2="1274.271" xlink:href="#a" y1="641.229" y2="641.229"/><linearGradient id="m" gradientUnits="userSpaceOnUse" x1="466.697" x2="1366.092" xlink:href="#a" y1="447.957" y2="447.957"/><linearGradient id="n" gradientUnits="userSpaceOnUse" x1="813.031" x2="1366.333" xlink:href="#a" y1="706.811" y2="706.811"/><linearGradient id="o" gradientUnits="userSpaceOnUse" x1="508.765" x2="1435.08" xlink:href="#a" y1="486.77" y2="486.77"/><linearGradient id="p" gradientUnits="userSpaceOnUse" x1="746.918" x2="1435.341" xlink:href="#a" y1="774.56" y2="774.56"/><linearGradient id="q" gradientUnits="userSpaceOnUse" x1="559.991" x2="1477.547" xlink:href="#a" y1="535.711" y2="535.711"/><linearGradient id="r" gradientUnits="userSpaceOnUse" x1="680.847" x2="1477.699" xlink:href="#a" y1="841.28" y2="841.28"/><linearGradient id="s" gradientUnits="userSpaceOnUse" x1="618.466" x2="1491.768" xlink:href="#a" y1="592.883" y2="592.883"/><linearGradient id="t" gradientUnits="userSpaceOnUse" x1="617.38" x2="1491.767" xlink:href="#a" y1="904.384" y2="904.384"/><linearGradient id="u" gradientUnits="userSpaceOnUse" x1="680.809" x2="1477.661" xlink:href="#a" y1="654.911" y2="654.911"/><linearGradient id="v" gradientUnits="userSpaceOnUse" x1="559.953" x2="1477.509" xlink:href="#a" y1="960.481" y2="960.481"/><linearGradient id="w" gradientUnits="userSpaceOnUse" x1="747.432" x2="1434.769" xlink:href="#a" y1="722.218" y2="722.218"/><linearGradient id="x" gradientUnits="userSpaceOnUse" x1="508.275" x2="1434.508" xlink:href="#a" y1="1009.8" y2="1009.8"/><linearGradient id="y" gradientUnits="userSpaceOnUse" x1="812.923" x2="1366.225" xlink:href="#a" y1="789.351" y2="789.351"/><linearGradient id="z" gradientUnits="userSpaceOnUse" x1="466.589" x2="1365.983" xlink:href="#a" y1="1048.205" y2="1048.205"/><linearGradient id="A" gradientUnits="userSpaceOnUse" x1="875.94" x2="1274.133" xlink:href="#a" y1="854.909" y2="854.909"/><linearGradient id="B" gradientUnits="userSpaceOnUse" x1="435.623" x2="1273.921" xlink:href="#a" y1="1075.174" y2="1075.174"/><linearGradient id="C" gradientUnits="userSpaceOnUse" x1="934.575" x2="1160.921" xlink:href="#a" y1="916.918" y2="916.918"/><linearGradient id="D" gradientUnits="userSpaceOnUse" x1="416.44" x2="1160.746" xlink:href="#a" y1="1089.754" y2="1089.754"/><linearGradient id="E" gradientUnits="userSpaceOnUse" x1="985.56" x2="1032.9" xlink:href="#a" y1="971.923" y2="971.923"/><linearGradient id="F" gradientUnits="userSpaceOnUse" x1="410.11" x2="1032.769" xlink:href="#a" y1="1091.13" y2="1091.13"/><linearGradient id="G" gradientUnits="userSpaceOnUse" x1="890.69" x2="1028.942" xlink:href="#c" y1="1019.139" y2="1019.139"/><linearGradient id="H" gradientUnits="userSpaceOnUse" x1="416.885" x2="891.398" xlink:href="#a" y1="1079.11" y2="1079.11"/><linearGradient id="I" gradientUnits="userSpaceOnUse" x1="747.542" x2="1059.766" xlink:href="#c" y1="1054.846" y2="1054.846"/><linearGradient id="J" gradientUnits="userSpaceOnUse" x1="436.04" x2="748.264" xlink:href="#a" y1="1054.846" y2="1054.846"/><linearGradient id="K" gradientUnits="userSpaceOnUse" x1="604.41" x2="1078.924" xlink:href="#c" y1="1079.072" y2="1079.072"/><linearGradient id="L" gradientUnits="userSpaceOnUse" x1="466.867" x2="605.119" xlink:href="#a" y1="1019.102" y2="1019.102"/><linearGradient id="M" gradientUnits="userSpaceOnUse" x1="463.051" x2="1085.71" xlink:href="#c" y1="1091.054" y2="1091.054"/><linearGradient id="N" gradientUnits="userSpaceOnUse" x1="462.919" x2="510.261" xlink:href="#c" y1="971.848" y2="971.848"/><linearGradient id="O" gradientUnits="userSpaceOnUse" x1="335.092" x2="1079.398" xlink:href="#c" y1="1089.646" y2="1089.646"/><linearGradient id="P" gradientUnits="userSpaceOnUse" x1="334.916" x2="561.263" xlink:href="#c" y1="916.811" y2="916.811"/><linearGradient id="Q" gradientUnits="userSpaceOnUse" x1="222.86" x2="1060.464" xlink:href="#c" y1="1075.223" y2="1075.223"/><linearGradient id="R" gradientUnits="userSpaceOnUse" x1="222.648" x2="619.378" xlink:href="#c" y1="855.342" y2="855.342"/><linearGradient id="S" gradientUnits="userSpaceOnUse" x1="130.63" x2="1029.628" xlink:href="#c" y1="1048.336" y2="1048.336"/><linearGradient id="T" gradientUnits="userSpaceOnUse" x1="130.389" x2="682.392" xlink:href="#c" y1="789.786" y2="789.786"/><linearGradient id="U" gradientUnits="userSpaceOnUse" x1="61.916" x2="988.065" xlink:href="#c" y1="1010.01" y2="1010.01"/><linearGradient id="V" gradientUnits="userSpaceOnUse" x1="61.656" x2="747.905" xlink:href="#c" y1="722.638" y2="722.638"/><linearGradient id="W" gradientUnits="userSpaceOnUse" x1="18.707" x2="936.497" xlink:href="#c" y1="960.762" y2="960.762"/><linearGradient id="X" gradientUnits="userSpaceOnUse" x1="18.553" x2="814.575" xlink:href="#c" y1="655.298" y2="655.298"/><linearGradient id="Y" gradientUnits="userSpaceOnUse" x1="4.231" x2="878.077" xlink:href="#c" y1="903.654" y2="903.654"/><linearGradient id="Z" gradientUnits="userSpaceOnUse" x1="4.231" x2="878.077" xlink:href="#c" y1="592.152" y2="592.152"/><linearGradient id="aa" gradientUnits="userSpaceOnUse" x1="18.088" x2="815.767" xlink:href="#c" y1="841.667" y2="841.667"/><linearGradient id="ab" gradientUnits="userSpaceOnUse" x1="18.24" x2="935.559" xlink:href="#c" y1="535.993" y2="535.993"/><linearGradient id="ac" gradientUnits="userSpaceOnUse" x1="60.734" x2="749.156" xlink:href="#c" y1="774.381" y2="774.381"/><linearGradient id="ad" gradientUnits="userSpaceOnUse" x1="60.995" x2="987.31" xlink:href="#c" y1="486.59" y2="486.59"/><linearGradient id="ae" gradientUnits="userSpaceOnUse" x1="129.775" x2="683.078" xlink:href="#c" y1="706.649" y2="706.649"/><linearGradient id="af" gradientUnits="userSpaceOnUse" x1="130.016" x2="1029.41" xlink:href="#c" y1="447.795" y2="447.795"/><linearGradient id="ag" gradientUnits="userSpaceOnUse" x1="221.867" x2="620.06" xlink:href="#c" y1="641.091" y2="641.091"/><linearGradient id="ah" gradientUnits="userSpaceOnUse" x1="222.08" x2="1060.378" xlink:href="#c" y1="420.826" y2="420.826"/><linearGradient id="ai" gradientUnits="userSpaceOnUse" x1="334" x2="561.915" xlink:href="#c" y1="579.605" y2="579.605"/><linearGradient id="aj" gradientUnits="userSpaceOnUse" x1="334.175" x2="1079.446" xlink:href="#c" y1="406.318" y2="406.318"/><linearGradient id="ak" gradientUnits="userSpaceOnUse" x1="461.9" x2="510.858" xlink:href="#c" y1="524.534" y2="524.534"/><linearGradient id="al" gradientUnits="userSpaceOnUse" x1="462.033" x2="1085.89" xlink:href="#c" y1="404.825" y2="404.825"/><linearGradient id="am" gradientUnits="userSpaceOnUse" x1="467.385" x2="604.036" xlink:href="#a" y1="477.231" y2="477.231"/><linearGradient id="an" gradientUnits="userSpaceOnUse" x1="603.329" x2="1079.232" xlink:href="#c" y1="416.727" y2="416.727"/><path d="m747.9 1084.5c-90 0-174.6-35-238.2-98.7-63.7-63.6-98.7-148.2-98.7-238.2s35-174.6 98.7-238.2c63.6-63.6 148.2-98.7 238.2-98.7s174.6 35 238.2 98.7c63.6 63.6 98.7 148.2 98.7 238.2s-35 174.6-98.7 238.2c-63.6 63.7-148.2 98.7-238.2 98.7zm0-673c-89.8 0-174.2 35-237.7 98.4s-98.4 147.9-98.4 237.7 35 174.2 98.4 237.7c63.5 63.5 147.9 98.4 237.7 98.4s174.2-35 237.7-98.4c63.5-63.5 98.4-147.9 98.4-237.7s-35-174.2-98.4-237.7c-63.5-63.4-147.9-98.4-237.7-98.4z" fill="#cce3fd"/><path d="m748.2 1492.4c-100.5 0-197.9-19.7-289.7-58.5-88.6-37.5-168.2-91.1-236.5-159.5-68.3-68.3-122-147.9-159.5-236.5-38.7-91.7-58.4-189.2-58.4-289.7s19.7-197.9 58.5-289.7c37.5-88.6 91.1-168.2 159.5-236.5s147.9-121.9 236.5-159.4c91.7-38.8 189.2-58.5 289.6-58.5 100.5 0 197.9 19.7 289.7 58.5 88.6 37.5 168.2 91.1 236.5 159.5 68.3 68.3 122 147.9 159.5 236.5 38.8 91.7 58.5 189.2 58.5 289.7s-19.7 197.9-58.5 289.7c-37.5 88.6-91.1 168.2-159.5 236.5-68.3 68.3-147.9 122-236.5 159.5-91.7 38.7-189.2 58.4-289.7 58.4zm0-1487.5c-100.4 0-197.7 19.7-289.3 58.4-88.5 37.4-168 91-236.3 159.3s-121.8 147.8-159.3 236.3c-38.8 91.6-58.4 189-58.4 289.3 0 100.4 19.7 197.7 58.4 289.3 37.4 88.5 91 168 159.3 236.3s147.8 121.9 236.3 159.3c91.6 38.8 189 58.4 289.3 58.4 100.4 0 197.7-19.7 289.3-58.4 88.5-37.4 168-91 236.3-159.3s121.9-147.8 159.3-236.3c38.8-91.6 58.4-189 58.4-289.3 0-100.4-19.7-197.7-58.4-289.3-37.4-88.5-91-168-159.3-236.3s-147.8-121.9-236.3-159.3c-91.5-38.7-188.9-58.4-289.3-58.4z" fill="#99c7fb" opacity=".9"/><path d="m437 878.1-.8-.3 311.5-873.6.8.3z" fill="url(#b)"/><path d="m1059.2 878.1-311.5-873.6.8-.3 311.5 873.6z" fill="url(#d)"/><path d="m417.6 815.2-.6-.4 475.2-796.5.7.4z" fill="url(#e)"/><path d="m1028 936-135.8-917.4.7-.1 135.9 917.4z" fill="url(#f)"/><path d="m410.9 749.2-.6-.6 622.1-687.9.5.6z" fill="url(#g)"/><path d="m986.5 987.3h-.8l46.6-926.3h.8z" fill="url(#h)"/><path d="m417.2 683.1-.5-.7 744.8-552.6.5.6z" fill="url(#i)"/><path d="m935 1029.4-.8-.2 227.2-899.2.8.2z" fill="url(#j)"/><path d="m436.1 620.1-.3-.8 837.9-397.4.4.7z" fill="url(#k)"/><path d="m876.8 1060.4-.7-.4 397.4-837.9.8.3z" fill="url(#l)"/><path d="m466.9 561.9-.2-.8 899.2-227.1.2.8z" fill="url(#m)"/><path d="m813.7 1079.4-.7-.4 552.7-744.8.6.5z" fill="url(#n)"/><path d="m508.8 510.4v-.8l926.2-46.5.1.8z" fill="url(#o)"/><path d="m747.5 1085.9-.6-.6 687.9-622.1.5.6z" fill="url(#p)"/><path d="m1477.4 604-917.4-135.8.1-.8 917.4 135.8z" fill="url(#q)"/><path d="m681.3 1079.2-.5-.7 796.5-475.2.4.7z" fill="url(#r)"/><path d="m1491.5 749.8-873-313 .2-.8 873.1 313z" fill="url(#s)"/><path d="m617.6 1059.7-.2-.7 874.1-310 .3.8z" fill="url(#t)"/><path d="m1477.3 892.9-796.5-475.3.4-.6 796.5 475.2z" fill="url(#u)"/><path d="m560.1 1028.8-.1-.8 917.4-135.8.1.7z" fill="url(#v)"/><path d="m1434.2 1034.1-686.8-623.2.6-.6 686.8 623.3z" fill="url(#w)"/><path d="m1434.5 1034.3-926.2-48.2v-.8l926.2 48.2z" fill="url(#x)"/><path d="m1365.6 1162-552.7-744.8.7-.5 552.6 744.8z" fill="url(#y)"/><path d="m1365.8 1162.2-899.2-227.2.2-.8 899.2 227.2z" fill="url(#z)"/><path d="m1273.4 1274.1-397.5-838 .8-.3 397.4 837.9z" fill="url(#A)"/><path d="m1273.6 1274.3-838-397.5.4-.7 837.9 397.4z" fill="url(#B)"/><path d="m1160.1 1366.8-225.5-899.6.8-.2 225.5 899.6z" fill="url(#C)"/><path d="m1160.3 1367.1-743.9-554 .5-.6 743.8 553.9z" fill="url(#D)"/><path d="m1032.1 1435.1-46.5-926.3h.8l46.5 926.2z" fill="url(#E)"/><path d="m1032.2 1435.3-622.1-687.8.6-.6 622.1 687.9z" fill="url(#F)"/><path d="m891.5 1477.8-.8-.1 137.5-917.2.7.1z" fill="url(#G)"/><path d="m890.7 1477.9-473.8-797.2.7-.4 473.8 797.2z" fill="url(#H)"/><path d="m748.3 1491.8-.8-.3 311.5-873.6.8.3z" fill="url(#I)"/><path d="m747.5 1491.8-311.5-873.6.8-.3 311.5 873.6z" fill="url(#J)"/><path d="m605.1 1477.9-.7-.4 473.8-797.3.7.4z" fill="url(#K)"/><path d="m604.3 1477.8-137.4-917.2.8-.2 137.4 917.2z" fill="url(#L)"/><path d="m463.6 1435.3-.5-.6 622-687.9.6.6z" fill="url(#M)"/><path d="m463.7 1435h-.8l46.6-926.3h.8z" fill="url(#N)"/><path d="m335.6 1366.9-.5-.6 743.8-554 .5.7z" fill="url(#O)"/><path d="m335.7 1366.7-.8-.2 225.6-899.6.8.2z" fill="url(#P)"/><path d="m223.2 1275-.3-.7 837.2-398.9.4.7z" fill="url(#Q)"/><path d="m223.4 1274.8-.8-.3 396.1-838.7.7.4z" fill="url(#R)"/><path d="m130.8 1163.1-.2-.8 898.8-228.7.2.8z" fill="url(#S)"/><path d="m131 1162.9-.6-.5 551.3-745.7.7.4z" fill="url(#T)"/><path d="m62 1035.3-.1-.8 926.1-49.8.1.8z" fill="url(#U)"/><path d="m62.2 1035.2-.5-.6 685.7-624.5.5.6z" fill="url(#V)"/><path d="m936.4 1028.3-917.7-134.3.1-.8 917.7 134.3z" fill="url(#W)"/><path d="m19 893.9-.4-.6 795.6-476.6.4.6z" fill="url(#X)"/><path d="m877.8 1059.8-873.6-311.5.3-.8 873.6 311.5z" fill="url(#Y)"/><path d="m4.5 748.3-.3-.8 873.6-311.5.3.8z" fill="url(#Z)"/><path d="m815.4 1078.9-797.3-473.8.4-.7 797.3 473.8z" fill="url(#aa)"/><path d="m18.4 605.1-.2-.8 917.2-137.4.2.8z" fill="url(#ab)"/><path d="m748.6 1085.7-687.9-622.1.6-.5 687.9 622z" fill="url(#ac)"/><path d="m987.3 510.3-926.3-46.6v-.8l926.3 46.6z" fill="url(#ad)"/><path d="m682.4 1079.3-552.6-744.8.6-.5 552.7 744.8z" fill="url(#ae)"/><path d="m1029.2 561.8-899.2-227.2.2-.8 899.2 227.2z" fill="url(#af)"/><path d="m619.3 1060.2-397.4-837.9.7-.4 397.5 838z" fill="url(#ag)"/><path d="m1060 619.9-837.9-397.4.3-.8 838 397.5z" fill="url(#ah)"/><path d="m561.1 1029.3-227.1-899.2.8-.2 227.1 899.2z" fill="url(#ai)"/><path d="m1079 683-744.8-552.7.5-.6 744.7 552.6z" fill="url(#aj)"/><path d="m510.1 987.7-48.2-926.2.8-.1 48.2 926.2z" fill="url(#ak)"/><path d="m1085.3 748.5-623.3-686.8.6-.5 623.3 686.8z" fill="url(#al)"/><path d="m468.2 936-.8-.1 135.8-917.4.8.1z" fill="url(#am)"/><path d="m1078.5 815.2-475.2-796.5.7-.4 475.2 796.4z" fill="url(#an)"/><g fill="#4a9af6"><circle cx="436.6" cy="877.1" r="2"/><circle cx="418.3" cy="681.9" r="2"/><circle cx="935" cy="1027.9" r="2"/><circle cx="877" cy="1059.4" r="2"/><circle cx="467.3" cy="561.4" r="2"/><circle cx="748" cy="1084.6" r="2"/><circle cx="682.1" cy="1078" r="2"/><circle cx="619" cy="436.4" r="2"/><circle cx="681.5" cy="417.3" r="2"/><circle cx="560.9" cy="1028.4" r="2"/><circle cx="747.6" cy="410.6" r="2"/><circle cx="509.9" cy="986.2" r="2"/><circle cx="813.8" cy="417.3" r="2"/><circle cx="467.8" cy="935.2" r="2"/><circle cx="877" cy="436.9" r="2"/><circle cx="935" cy="467.3" r="2"/><circle cx="418" cy="813.6" r="2"/><circle cx="986" cy="509.9" r="2"/><circle cx="411" cy="748.2" r="2"/><circle cx="1028.4" cy="561.4" r="2"/><circle cx="1059.4" cy="619" r="2"/><circle cx="437.2" cy="619.5" r="2"/><circle cx="1077.9" cy="681.8" r="2"/><circle cx="1084.7" cy="747.5" r="2"/><circle cx="509.9" cy="509.9" r="2"/><circle cx="1078.6" cy="813.5" r="2"/><circle cx="560.9" cy="467.8" r="2"/><circle cx="1059.4" cy="876.4" r="2"/><circle cx="1028.4" cy="934.6" r="2"/><circle cx="986.6" cy="985.7" r="2"/><circle cx="814.3" cy="1078" r="2"/><circle cx="619" cy="1058.8" r="2"/></g><g fill="#0072f6"><circle cx="748.1" cy="4.4" r="3.5"/><circle cx="748.1" cy="4.4" r="3.5"/><circle cx="892.5" cy="18.5" r="3.5"/><circle cx="892.6" cy="18.5" r="3.5"/><circle cx="1032.7" cy="61" r="3.5"/><circle cx="1032.7" cy="61" r="3.5"/><circle cx="1161.7" cy="130.1" r="3.5"/><circle cx="1161.8" cy="130.1" r="3.5"/><circle cx="1161.7" cy="130.1" r="3.5"/><circle cx="1161.8" cy="130.1" r="3.5"/><circle cx="1161.7" cy="130.1" r="3.5"/><circle cx="1161.8" cy="130.1" r="3.5"/><circle cx="1273.9" cy="222.2" r="3.5"/><circle cx="1273.9" cy="222.3" r="3.5"/><circle cx="1366" cy="334.4" r="3.5"/><circle cx="1366" cy="334.4" r="3.5"/><circle cx="1366" cy="334.4" r="3.5"/><circle cx="1366" cy="334.4" r="3.5"/><circle cx="1435.1" cy="463.5" r="3.5"/><circle cx="1435.1" cy="463.5" r="3.5"/><circle cx="1477.5" cy="603.6" r="3.5"/><circle cx="1477.5" cy="603.7" r="3.5"/><circle cx="1491.6" cy="749.4" r="3.5"/><circle cx="1491.6" cy="749.4" r="3.5"/><circle cx="1477.5" cy="892.5" r="3.5"/><circle cx="1477.5" cy="892.6" r="3.5"/><circle cx="1434.5" cy="1033.9" r="3.5"/><circle cx="1434.5" cy="1033.9" r="3.5"/><circle cx="1365.9" cy="1161.7" r="3.5"/><circle cx="1365.9" cy="1161.8" r="3.5"/><circle cx="1273.8" cy="1273.9" r="3.5"/><circle cx="1273.7" cy="1273.9" r="3.5"/><circle cx="1160.5" cy="1366.7" r="3.5"/><circle cx="1160.5" cy="1366.7" r="3.5"/><circle cx="1032.5" cy="1435.1" r="3.5"/><circle cx="1032.5" cy="1435.1" r="3.5"/><circle cx="891.1" cy="1477.7" r="3.5"/><circle cx="891.1" cy="1477.7" r="3.5"/><circle cx="747.9" cy="1491.6" r="3.5"/><circle cx="747.9" cy="1491.6" r="3.5"/><circle cx="604.8" cy="1477.7" r="3.5"/><circle cx="604.7" cy="1477.7" r="3.5"/><circle cx="463.3" cy="1435" r="3.5"/><circle cx="463.3" cy="1435" r="3.5"/><circle cx="335.3" cy="1366.6" r="3.5"/><circle cx="335.3" cy="1366.6" r="3.5"/><circle cx="223" cy="1274.7" r="3.5"/><circle cx="223" cy="1274.7" r="3.5"/><circle cx="130.7" cy="1162.7" r="3.5"/><circle cx="130.7" cy="1162.7" r="3.5"/><circle cx="61.9" cy="1034.9" r="3.5"/><circle cx="61.9" cy="1034.9" r="3.5"/><circle cx="18.8" cy="893.6" r="3.5"/><circle cx="18.8" cy="893.6" r="3.5"/><circle cx="4.4" cy="747.9" r="3.5"/><circle cx="4.4" cy="747.9" r="3.5"/><circle cx="18.3" cy="604.8" r="3.5"/><circle cx="18.3" cy="604.7" r="3.5"/><circle cx="61" cy="463.3" r="3.5"/><circle cx="61" cy="463.3" r="3.5"/><circle cx="130.1" cy="334.3" r="3.5"/><circle cx="130.1" cy="334.2" r="3.5"/><circle cx="222.2" cy="222.1" r="3.5"/><circle cx="222.3" cy="222.1" r="3.5"/><circle cx="334.4" cy="130" r="3.5"/><circle cx="334.4" cy="130" r="3.5"/><circle cx="462.3" cy="61.4" r="3.5"/><circle cx="462.3" cy="61.4" r="3.5"/><circle cx="603.6" cy="18.5" r="3.5"/><circle cx="603.7" cy="18.5" r="3.5"/></g></svg>