<svg width="1440" height="476" viewBox="0 0 1440 476" fill="none" xmlns="http://www.w3.org/2000/svg">
<mask id="mask0" mask-type="alpha" maskUnits="userSpaceOnUse" x="0" y="0" width="1440" height="476">
<rect width="1440" height="476" fill="white"/>
</mask>
<g mask="url(#mask0)">
<path fill-rule="evenodd" clip-rule="evenodd" d="M720 0C79.3497 0 -440 519.35 -440 1160C-440 1800.65 79.3497 2320 720 2320C1360.65 2320 1880 1800.65 1880 1160C1880 519.35 1360.65 0 720 0ZM720 165.714C171.429 165.714 -273.275 610.419 -273.275 1158.99C-273.275 1707.56 171.429 2152.26 720 2152.26C1268.57 2152.26 1713.28 1707.56 1713.28 1158.99C1713.28 610.419 1268.57 165.714 720 165.714Z" fill="white"/>
<path fill-rule="evenodd" clip-rule="evenodd" d="M720 0C79.3497 0 -440 519.35 -440 1160C-440 1800.65 79.3497 2320 720 2320C1360.65 2320 1880 1800.65 1880 1160C1880 519.35 1360.65 0 720 0ZM720 165.714C171.429 165.714 -273.275 610.419 -273.275 1158.99C-273.275 1707.56 171.429 2152.26 720 2152.26C1268.57 2152.26 1713.28 1707.56 1713.28 1158.99C1713.28 610.419 1268.57 165.714 720 165.714Z" fill="#F1F8FF"/>
</g>
</svg>
