<svg viewBox="0 0 230 130" xmlns="http://www.w3.org/2000/svg"><path d="m178.9 88.8c-3.8 0-7 3.1-7 7s3.1 7 7 7 7-3.1 7-7-3.1-7-7-7zm-3.1 8.3c.1-.2 1-3.6 1.1-3.8s.1-.3.3-.3h1.1c.1 0 .2.1.1.3s-1 3.6-1.1 3.8-.2.3-.3.3h-1c-.2 0-.3-.1-.2-.3zm6.6-4c0 .2-.2.4-.3.4h-1c-.3 0-.3.3-.3.3l-1.1 4.4s-.1.3-.4.3h-3.5c-.1 0-.2-.1-.2-.2 0-.2.1-.4.3-.4h1.6c.2 0 .5-.2.6-.5s1.1-3.9 1.1-4.1c.1-.2.2-.3.4-.3h2.7s.1 0 .1.1zm6.5-.1c0-.1 0-.1.1-.2 0-.1.1-.1.2-.1s.1 0 .2.1c0 .1.1.1.1.2s0 .1-.1.2c0 0-.1.1-.2.1s-.1 0-.2-.1-.1-.2-.1-.2zm.5 4.5h-.4v-3.5h.4zm1.4-3.5v.6c.1-.2.3-.4.5-.5s.4-.2.7-.2c.4 0 .7.1.8.3.2.2.3.5.3 1v2.3h-.4v-2.3c0-.3-.1-.5-.2-.7s-.3-.2-.6-.2c-.2 0-.5.1-.6.2-.2.2-.3.4-.4.6v2.4h-.4v-3.5zm3.9-.9v.9h.7v.3h-.7v2.3c0 .2 0 .3.1.4s.2.1.4.1h.3v.3c-.1 0-.2.1-.4.1-.3 0-.5-.1-.6-.2-.1-.2-.2-.4-.2-.7v-2.3h-.6v-.3h.6v-.9zm2.9 4.5c-.3 0-.6-.1-.8-.2s-.4-.4-.6-.6c-.1-.3-.2-.6-.2-.9v-.1c0-.3.1-.6.2-.9s.3-.5.5-.6c.2-.2.5-.2.8-.2.4 0 .8.1 1 .4s.4.7.4 1.2v.2h-2.5v.1c0 .4.1.7.3 1s.5.4.9.4c.2 0 .4 0 .6-.1s.3-.2.4-.4l.2.2c-.3.3-.7.5-1.2.5zm-.1-3.3c-.3 0-.5.1-.7.3s-.3.5-.4.9h2.1c0-.3-.1-.6-.3-.8-.2-.3-.4-.4-.7-.4zm2.6 3.2h-.4v-5h.4zm1.5 0h-.4v-5h.4zm2.4.1c-.3 0-.6-.1-.8-.2s-.4-.4-.6-.6c-.1-.3-.2-.6-.2-.9v-.1c0-.3.1-.6.2-.9s.3-.5.5-.6c.2-.2.5-.2.8-.2.4 0 .8.1 1 .4s.4.7.4 1.2v.2h-2.5v.1c0 .4.1.7.3 1s.5.4.9.4c.2 0 .4 0 .6-.1s.3-.2.4-.4l.2.2c-.3.3-.7.5-1.2.5zm-.1-3.3c-.3 0-.5.1-.7.3s-.3.5-.4.9h2.1c0-.3-.1-.6-.3-.8-.2-.3-.4-.4-.7-.4zm3.4 2.9c.3 0 .5-.1.7-.2.2-.2.3-.4.3-.6h.4c0 .2-.1.4-.2.6s-.3.3-.5.4-.4.1-.7.1c-.5 0-.8-.2-1.1-.5s-.4-.8-.4-1.3v-.1c0-.3.1-.7.2-.9.1-.3.3-.5.5-.6s.5-.2.8-.2c.4 0 .7.1 1 .3.2.2.4.5.4.9h-.4c0-.3-.1-.5-.3-.7s-.4-.3-.7-.3c-.4 0-.6.1-.8.4s-.3.6-.3 1.1v.1c0 .4.1.8.3 1 .2.4.5.5.8.5zm2.8-4.1v.9h.7v.3h-.7v2.3c0 .2 0 .3.1.4s.2.1.4.1h.3v.3c-.1 0-.2.1-.4.1-.3 0-.5-.1-.6-.2-.1-.2-.2-.4-.2-.7v-2.3h-.7v-.3h.6v-.9zm3.3 3.4c0-.1-.1-.2-.2-.3s-.3-.1-.5-.2c-.8-.2-1.3-.5-1.3-1.1 0-.3.1-.6.4-.8s.6-.3 1-.3.8.1 1.1.3.4.5.4.8h-.9c0-.1 0-.2-.1-.3s-.2-.1-.4-.1-.3 0-.4.1-.1.2-.1.3 0 .2.1.3.3.1.5.2c.2 0 .4.1.6.2.5.2.7.5.7.9 0 .3-.1.6-.4.8s-.6.3-1.1.3c-.3 0-.6-.1-.8-.2s-.4-.2-.5-.4-.2-.4-.2-.6h.9c0 .2.1.3.2.4s.3.1.5.1.3 0 .4-.1c0-.1.1-.2.1-.3zm1.3-.8c0-.3.1-.7.2-.9.1-.3.3-.5.6-.6s.5-.2.9-.2c.5 0 .9.1 1.2.4s.5.7.5 1.2v.2c0 .5-.2 1-.5 1.3s-.7.5-1.2.5-.9-.2-1.2-.5-.5-.8-.5-1.4zm1 .1c0 .3.1.6.2.8s.3.3.5.3.4-.1.5-.3.2-.5.2-.8-.1-.6-.2-.8-.3-.3-.5-.3-.4.1-.5.3c-.2.1-.2.4-.2.8zm3.2 1.7v-2.8h-.5v-.7h.5v-.3c0-.4.1-.7.3-.9s.5-.3.9-.3c.1 0 .3 0 .5.1v.7h-.3c-.4 0-.5.2-.5.5v.2h.7v.7h-.7v2.8zm3.2-4.4v.9h.6v.7h-.6v1.8c0 .1 0 .2.1.3 0 .1.1.1.3.1h.3v.7c-.2.1-.4.1-.6.1-.7 0-1-.3-1-1v-1.9h-.5v-.8h.5v-.9zm-12.4 7.8c.1 0 .2 0 .2-.1.1-.1.1-.2.1-.3h.3c0 .2-.1.4-.2.5s-.3.2-.5.2c-.3 0-.4-.1-.6-.3-.1-.2-.2-.4-.2-.7v-.1c0-.3.1-.5.2-.7s.3-.3.6-.3c.2 0 .4.1.5.2s.2.3.2.5h-.3c0-.1 0-.2-.1-.3s-.1-.1-.2-.1-.2.1-.3.2-.1.3-.1.5v.1c0 .2 0 .4.1.5.1.2.2.2.3.2zm1-.8c0-.3.1-.6.2-.8s.3-.3.6-.3.5.1.6.3.2.4.2.8v.1c0 .3-.1.6-.2.7-.1.2-.3.3-.6.3s-.5-.1-.6-.3-.2-.4-.2-.8zm.4.1c0 .2 0 .4.1.5s.2.2.3.2.2-.1.3-.2.1-.3.1-.5v-.1c0-.2 0-.4-.1-.5s-.2-.2-.3-.2-.2.1-.3.2-.1.3-.1.6zm1.9-1.1v.3c.1-.1.1-.2.2-.2.1-.1.2-.1.3-.1s.2 0 .3.1.1.2.2.3c.1-.1.1-.2.2-.3s.2-.1.3-.1c.2 0 .3.1.4.2s.2.4.2.7v1.2h-.4v-1.2c0-.2 0-.4-.1-.4-.1-.1-.1-.1-.2-.1s-.2 0-.2.1c-.1.1-.1.2-.1.3v1.5h-.4v-1.4c0-.2 0-.4-.1-.4-.1-.1-.1-.1-.2-.1s-.2 0-.2.1c-.1 0-.1.1-.1.2v1.5h-.4v-2.1h.3zm4.2 1.1c0 .3-.1.5-.2.7s-.3.3-.5.3c-.1 0-.2 0-.3-.1-.1 0-.1-.1-.2-.2v1h-.4v-2.8h.3v.2c.1-.1.1-.2.2-.2s.2-.1.3-.1c.2 0 .4.1.5.3.2.3.3.6.3.9zm-.4 0c0-.2 0-.4-.1-.6-.1-.1-.2-.2-.3-.2s-.2 0-.2.1c-.1 0-.1.1-.1.2v1c0 .1.1.1.1.2.1 0 .1.1.2.1s.2-.1.3-.2c0-.2.1-.4.1-.6zm1.8 1v-.3c-.1.1-.1.2-.2.3s-.2.1-.3.1c-.2 0-.3-.1-.4-.2s-.1-.3-.1-.4c0-.2.1-.3.2-.5.1-.1.3-.2.6-.2h.3v-.2c0-.1 0-.2-.1-.3s-.1-.1-.2-.1-.2 0-.2.1c-.1.1-.1.1-.1.2h-.4c0-.2.1-.3.2-.4s.3-.2.5-.2.4.1.5.2.2.3.2.5v1.4zm-.5-.3c.1 0 .2 0 .3-.1l.2-.2v-.4h-.3c-.1 0-.2 0-.3.1s-.1.2-.1.3 0 .2.1.2c0 .1 0 .1.1.1zm1.6-1.8v.3c.1-.1.1-.2.2-.3s.2-.1.3-.1c.2 0 .3.1.4.2s.2.3.2.6v1.3h-.4v-1.3c0-.2 0-.3-.1-.4s-.1-.1-.2-.1-.2 0-.2.1c-.1 0-.1.1-.2.2v1.5h-.4v-2.1h.4zm2.2 1.4v.1l.4-1.5h.4l-.7 2.4c0 .1-.1.3-.2.4s-.2.2-.4.2h-.2v-.3h.2c.1 0 .1 0 .2-.1 0-.1.1-.1.1-.2l.1-.2-.6-2h.4zm-31.7-8.4v-.3c-.1.1-.1.2-.2.3s-.2.1-.3.1c-.2 0-.3-.1-.4-.2s-.1-.3-.1-.4c0-.2.1-.3.2-.5.1-.1.3-.2.6-.2h.3v-.2c0-.1 0-.2-.1-.3s-.1-.1-.2-.1-.2 0-.2.1c-.1.1-.1.1-.1.2h-.4c0-.2.1-.3.2-.4s.3-.2.5-.2.4.1.5.2.2.3.2.5v1.4zm-.5-.3c.1 0 .2 0 .3-.1l.2-.2v-.4h-.3c-.1 0-.2 0-.3.1s-.1.2-.1.3 0 .2.1.2c-.1.1 0 .1.1.1zm1.6-1.8v.3c.1-.1.1-.2.2-.3s.2-.1.3-.1c.2 0 .3.1.4.2s.2.3.2.6v1.3h-.4v-1.3c0-.2 0-.3-.1-.4s-.1-.1-.2-.1-.2 0-.2.1c-.1 0-.1.1-.2.2v1.5h-.3v-2z" fill="#0098ce"/><path d="m147.4 52.2c-6.5 0-12.7 4.1-12.7 15.2s6.2 15.2 12.7 15.2 12.7-4.1 12.7-15.2-6.1-15.2-12.7-15.2m0 26.7c-4.3 0-8.6-3.1-8.6-11.5s4.3-11.5 8.6-11.5 8.6 3.1 8.6 11.5-4.3 11.5-8.6 11.5m-16.3-11.8c0-11.1-5.2-14.9-11.7-14.9s-12.7 4.1-12.7 15.2 6.2 15.2 12.7 15.2c4.7 0 7.8-1.4 10.1-3.6l-2-3c-2.3 1.8-5 2.9-8.1 2.9-4.1 0-8.3-2.9-8.5-10.7h20.3v-1.1zm-20.1-2.6c.9-6.2 4.6-8.6 8.4-8.6 4.3 0 7.6 2.8 7.6 8.6zm113.8 2.6c0-11.1-5.2-14.9-11.7-14.9s-12.7 4.1-12.7 15.2 6.2 15.2 12.7 15.2c4.7 0 7.8-1.4 10.1-3.6l-2-3c-2.3 1.8-5 2.9-8.1 2.9-4.1 0-8.3-2.9-8.5-10.7h20.3v-1.1zm-20.1-2.6c.9-6.2 4.6-8.6 8.4-8.6 4.3 0 7.6 2.8 7.6 8.6zm-27.8-12.3c-3.7 0-7 1.8-8.9 5.6h-.1v-4.9h-4.1v40.7h4.1v-17h.1c1.4 3.8 5.3 6 8.4 6 6.5 0 12.6-4.1 12.6-15.2s-5.9-15.2-12.1-15.2m-.5 26.7c-5.2 0-8.4-4.5-8.4-9.4v-2.6c0-7.8 4-11 9-11 4 0 7.9 3.1 7.9 11.5-.1 8.4-4.3 11.5-8.5 11.5m20.4 3h-4.1v-42.3h4.1zm-114.8-.4s-6.2-16.9-6.3-17.3c-1.5-4.2-4.2-11.5-5.5-16.5h-.1s-.6 8.9-1.5 16.6c-.5 4.3-1.9 17.5-1.9 17.5h-4.2l4.5-40.4h4.8s5.8 16.1 6.2 17.1c2.3 6.4 3.9 11.3 5.2 15.7h.1c1.4-4.3 2.9-9.3 5.2-15.7.4-1 6.2-17.1 6.2-17.1h4.8l4.5 40.5h-4.2s-1.5-13.2-1.9-17.5c-.9-7.7-1.5-16.6-1.5-16.6h-.1c-1.3 5-4 12.3-5.5 16.5-.1.4-6.3 17.3-6.3 17.3h-2.5z" fill="#1d1d1b"/><path d="m34.1 73.4v-.1l-7-31.9h-18.9v8.3z" fill="#ffd635"/><path d="m48.7 41.4h-13.2v.1l13.1 16h.1z" fill="#0098ce"/><path d="m8.2 81.9h6.3l.1-.1-6.4-16.8z" fill="#e2231a"/><path d="m19.4 81.9h17.2l.1-.1-26.3-24h-.1z" fill="#8b69d3"/><path d="m40.6 81.9h8.1v-17.2l-16.2-19.7z" fill="#77bc1f"/></svg>