<svg height="130" viewBox="0 0 332 130" width="332" xmlns="http://www.w3.org/2000/svg"><g fill="none" fill-rule="evenodd"><g fill="#222428" transform="translate(88.766871 47.022474)"><path d="m28.1609299.71202091v32.71560979h-5.0245398l-18.59079759-26.20587112v26.20587112h-4.52208589v-32.71560979h5.19202454l18.25582824 26.03895469v-26.03895469z"/><path d="m54.456022 18.7389895v7.0104879c0 1.8360801-.6699387 8.011986-10.2165645 8.011986-9.5466257 0-10.384049-6.1759059-10.384049-8.011986 0-4.840575 4.3546012-7.6781534 11.5564417-7.6781534 1.5073619 0 3.0147239.1669164 4.5220859.3338328-.1674847-4.3398258-2.009816-6.0089896-6.6993865-6.0089896-2.8472393 0-5.1920246.6676656-6.6993865 1.1684147v-3.83907667c1.8423312-.66766551 4.3546012-1.33533101 7.3693251-1.33533101 6.6993865 0 10.5515338 3.67216028 10.5515338 10.34881528zm-4.5220859 3.0044948c-1.1723927-.1669164-2.6797546-.3338327-4.3546013-.3338327-2.1773006 0-7.2018405.6676655-7.2018405 4.1729094 0 2.8375784 2.009816 4.1729094 5.8619632 4.1729094 3.6846626 0 5.6944786-1.335331 5.6944786-4.005993z"/><path d="m80.9185986 8.89092334-9.3791411 24.36979096h-4.6895705l-9.3791411-24.36979096h4.8570552l6.8668712 19.02846686 6.8668711-19.02846686z"/><path d="m90.8001937 5.05184669h-4.8570552v-4.67365854h4.8570552zm-4.6895705 3.83907665h4.5220859v24.36979096h-4.5220859z"/><path d="m116.927801 16.0683275v18.193885c0 3.8390767-1.842331 8.5127352-10.719018 8.5127352-2.679755 0-5.02454-.3338327-7.2018408-1.0014982v-4.3398258c2.0098158.6676655 4.3546008 1.0014983 6.8668708 1.0014983 6.699387 0 6.699387-2.6706621 6.699387-4.3398258v-2.1699129c-1.674847.5007491-3.349693.6676655-5.02454.6676655-7.034356 0-10.8865031-4.3398258-10.8865031-12.0179791 0-7.1774042 3.014724-12.51872824 10.5515341-12.51872824 5.694478.33383276 9.71411 3.00449474 9.71411 8.01198604zm-4.522086-.1669164c0-.8345818 0-3.5052439-5.359509-3.5052439-2.847239 0-6.029448 1.0014983-6.029448 8.5127352 0 7.0104878 3.014724 7.8450697 6.364417 7.8450697 1.674847 0 3.349694-.3338327 5.02454-1.0014982z"/><path d="m128.316758 5.05184669h-4.857055v-4.67365854h4.857055zm-4.522086 3.83907665h4.522086v24.36979096h-4.522086z"/><path d="m135.686083 33.2607143v-22.3667944c.167485-.1669164 4.689571-2.50374568 10.384049-2.50374568 6.196933 0 9.881595 3.50524388 9.881595 9.18040068v15.6901394h-4.522085v-16.0239721c0-2.3368293-.669939-4.6736586-5.526994-4.6736586-2.177301 0-4.187117.3338328-5.694479.8345819v19.8630488z"/><path d="m181.744366 28.0863066v4.0059931c-2.344786 1.0014982-5.192025 1.6691637-8.709203 1.6691637-5.192024 0-11.221472-2.1699129-11.221472-12.3518118 0-3.1714112 0-12.85256101 10.886503-12.85256101 6.531902 0 10.886503 4.67365851 10.886503 11.85106271 0 1.1684146 0 2.3368293-.167485 3.3383275h-16.915951c.669939 5.0074913 3.684663 6.175906 6.866871 6.175906 3.517178 0 6.364418-.8345819 8.374234-1.8360802zm-15.408589-8.5127352h12.561349c-.167484-2.8375784-1.507362-7.1774042-6.364417-7.1774042-4.019632 0-5.861963 2.0029966-6.196932 7.1774042z"/></g><g transform="translate(0 32)"><ellipse cx="33.687924" cy="33.594547" fill="#3362a3" rx="32.32454" ry="32.214861"/><ellipse cx="33.687924" cy="33.594547" fill="#3363a4" rx="32.157055" ry="32.047944"/><ellipse cx="33.687924" cy="33.594547" fill="#3464a4" rx="31.989571" ry="31.881028"/><ellipse cx="33.687924" cy="33.594547" fill="#3465a5" rx="31.822086" ry="31.714112"/><ellipse cx="33.687924" cy="33.594547" fill="#3466a6" rx="31.654601" ry="31.547195"/><ellipse cx="33.687924" cy="33.594547" fill="#3567a6" rx="31.487117" ry="31.380279"/><ellipse cx="33.687924" cy="33.594547" fill="#3568a7" rx="31.319632" ry="31.213362"/><ellipse cx="33.687924" cy="33.594547" fill="#3569a8" rx="31.152147" ry="31.046446"/><ellipse cx="33.687924" cy="33.594547" fill="#366aa8" rx="30.984663" ry="30.87953"/><ellipse cx="33.687924" cy="33.594547" fill="#366ba9" rx="30.817178" ry="30.712613"/><ellipse cx="33.687924" cy="33.594547" fill="#366caa" rx="30.649693" ry="30.545697"/><ellipse cx="33.687924" cy="33.594547" fill="#376daa" rx="30.482209" ry="30.378781"/><ellipse cx="33.687924" cy="33.594547" fill="#376eab" rx="30.314724" ry="30.211864"/><ellipse cx="33.687924" cy="33.594547" fill="#386fab" rx="30.147239" ry="30.044948"/><ellipse cx="33.687924" cy="33.594547" fill="#3870ac" rx="29.979755" ry="29.878031"/><ellipse cx="33.687924" cy="33.594547" fill="#3871ad" rx="29.81227" ry="29.711115"/><ellipse cx="33.687924" cy="33.594547" fill="#3972ad" rx="29.644785" ry="29.544199"/><ellipse cx="33.687924" cy="33.594547" fill="#3973ae" rx="29.477301" ry="29.377282"/><ellipse cx="33.687924" cy="33.594547" fill="#3974af" rx="29.309816" ry="29.210366"/><ellipse cx="33.687924" cy="33.594547" fill="#3a75af" rx="29.142331" ry="29.04345"/><ellipse cx="33.687924" cy="33.594547" fill="#3a76b0" rx="28.974847" ry="28.876533"/><ellipse cx="33.687924" cy="33.594547" fill="#3a77b1" rx="28.807362" ry="28.709617"/><ellipse cx="33.687924" cy="33.594547" fill="#3b78b1" rx="28.639877" ry="28.5427"/><ellipse cx="33.687924" cy="33.594547" fill="#3b79b2" rx="28.472393" ry="28.375784"/><ellipse cx="33.687924" cy="33.594547" fill="#3b7ab3" rx="28.304908" ry="28.208868"/><ellipse cx="33.687924" cy="33.594547" fill="#3c7bb3" rx="28.137423" ry="28.041951"/><ellipse cx="33.687924" cy="33.594547" fill="#3c7cb4" rx="27.969939" ry="27.875035"/><ellipse cx="33.687924" cy="33.594547" fill="#3c7db5" rx="27.802454" ry="27.708119"/><ellipse cx="33.687924" cy="33.594547" fill="#3d7eb5" rx="27.634969" ry="27.541202"/><ellipse cx="33.687924" cy="33.594547" fill="#3d7fb6" rx="27.3" ry="27.207369"/><ellipse cx="33.687924" cy="33.594547" fill="#3d80b7" rx="27.132515" ry="27.040453"/><ellipse cx="33.687924" cy="33.594547" fill="#3e81b7" rx="26.965031" ry="26.873537"/><ellipse cx="33.687924" cy="33.594547" fill="#3e82b8" rx="26.797546" ry="26.70662"/><ellipse cx="33.687924" cy="33.594547" fill="#3e83b9" rx="26.630061" ry="26.539704"/><ellipse cx="33.687924" cy="33.594547" fill="#3f84b9" rx="26.462577" ry="26.372788"/><ellipse cx="33.687924" cy="33.594547" fill="#3f85ba" rx="26.295092" ry="26.205871"/><ellipse cx="33.687924" cy="33.594547" fill="#3f86bb" rx="26.127607" ry="26.038955"/><ellipse cx="33.687924" cy="33.594547" fill="#4087bb" rx="25.960123" ry="25.872038"/><ellipse cx="33.687924" cy="33.594547" fill="#4089bc" rx="25.792638" ry="25.705122"/><ellipse cx="33.687924" cy="33.594547" fill="#418abc" rx="25.625153" ry="25.538206"/><ellipse cx="33.687924" cy="33.594547" fill="#418bbd" rx="25.457669" ry="25.371289"/><ellipse cx="33.687924" cy="33.594547" fill="#418cbe" rx="25.290184" ry="25.204373"/><ellipse cx="33.687924" cy="33.594547" fill="#428dbe" rx="25.122699" ry="25.037456"/><ellipse cx="33.687924" cy="33.594547" fill="#428ebf" rx="24.955215" ry="24.87054"/><ellipse cx="33.687924" cy="33.594547" fill="#428fc0" rx="24.78773" ry="24.703624"/><ellipse cx="33.687924" cy="33.594547" fill="#4390c0" rx="24.620245" ry="24.536707"/><ellipse cx="33.687924" cy="33.594547" fill="#4391c1" rx="24.452761" ry="24.369791"/><ellipse cx="33.687924" cy="33.594547" fill="#4392c2" rx="24.285276" ry="24.202875"/><ellipse cx="33.687924" cy="33.594547" fill="#4493c2" rx="24.117791" ry="24.035958"/><ellipse cx="33.687924" cy="33.594547" fill="#4494c3" rx="23.950307" ry="23.869042"/><ellipse cx="33.687924" cy="33.594547" fill="#4495c4" rx="23.782822" ry="23.702125"/><ellipse cx="33.687924" cy="33.594547" fill="#4596c4" rx="23.615337" ry="23.535209"/><ellipse cx="33.687924" cy="33.594547" fill="#4597c5" rx="23.447853" ry="23.368293"/><ellipse cx="33.687924" cy="33.594547" fill="#4598c6" rx="23.280368" ry="23.201376"/><ellipse cx="33.687924" cy="33.594547" fill="#4699c6" rx="23.112883" ry="23.03446"/><ellipse cx="33.687924" cy="33.594547" fill="#469ac7" rx="22.945399" ry="22.867544"/><ellipse cx="33.687924" cy="33.594547" fill="#469bc8" rx="22.777914" ry="22.700627"/><ellipse cx="33.687924" cy="33.594547" fill="#479cc8" rx="22.610429" ry="22.533711"/><ellipse cx="33.687924" cy="33.594547" fill="#479dc9" rx="22.442945" ry="22.366794"/><ellipse cx="33.687924" cy="33.594547" fill="#479eca" rx="22.27546" ry="22.199878"/><ellipse cx="33.687924" cy="33.594547" fill="#489fca" rx="22.107976" ry="22.032962"/><ellipse cx="33.687924" cy="33.594547" fill="#48a0cb" rx="21.940491" ry="21.866045"/><ellipse cx="33.687924" cy="33.594547" fill="#48a1cc" rx="21.773006" ry="21.699129"/><ellipse cx="33.687924" cy="33.594547" fill="#49a2cc" rx="21.605522" ry="21.532213"/><ellipse cx="33.687924" cy="33.594547" fill="#49a3cd" rx="21.438037" ry="21.365296"/><ellipse cx="33.687924" cy="33.594547" fill="#4aa4cd" rx="21.270552" ry="21.19838"/><ellipse cx="33.687924" cy="33.594547" fill="#4aa5ce" rx="21.103068" ry="21.031463"/><ellipse cx="33.687924" cy="33.594547" fill="#4aa6cf" rx="20.935583" ry="20.864547"/><ellipse cx="33.687924" cy="33.594547" fill="#4ba7cf" rx="20.768098" ry="20.697631"/><ellipse cx="33.687924" cy="33.594547" fill="#4ba8d0" rx="20.600614" ry="20.530714"/><ellipse cx="33.687924" cy="33.594547" fill="#4ba9d1" rx="20.433129" ry="20.363798"/><ellipse cx="33.687924" cy="33.594547" fill="#4caad1" rx="20.265644" ry="20.196882"/><ellipse cx="33.687924" cy="33.594547" fill="#4cabd2" rx="20.09816" ry="20.029965"/><ellipse cx="33.687924" cy="33.594547" fill="#4cacd3" rx="19.930675" ry="19.863049"/><ellipse cx="33.687924" cy="33.594547" fill="#4dadd3" rx="19.76319" ry="19.696132"/><ellipse cx="33.687924" cy="33.594547" fill="#4daed4" rx="19.428221" ry="19.3623"/><g fill="#fff"><path d="m67.1848563 33.0937979-8.2067485-10.0149826-1.3398773-12.8525609-.6699386-.66766555s-6.5319018-.66766551-12.896319-1.33533101l-.3349693-.33383275c-4.6895706-4.00599303-9.5466258-7.84506969-9.5466258-7.84506969h-1.004908s-4.8570552 4.00599303-9.7141104 7.84506969l-.3349693.33383275c-6.1969326.83458188-12.7288344 1.50224739-12.8963191 1.50224739l-.66993861.66766547s-.66993865 6.5097387-1.3398773 12.852561l-.33496933.3338328c-4.0196319 4.6736585-7.87177914 9.5142334-7.87177914 9.6811498v.8345819s3.85214724 4.8405749 7.87177914 9.5142334l.50245399.5007491c.50245399 6.3428223 1.17239264 12.6856446 1.17239264 12.852561l.66993861.6676655s6.5319019.6676655 12.8963191 1.1684147l.3349693.3338327c4.6895705 4.005993 9.5466257 7.8450697 9.7141104 7.8450697h1.004908l10.0490797-8.1789024 12.8963191-1.335331.6699386-.6676656s.6699387-6.5097386 1.3398773-12.8525609l.1674847-.3338328c4.0196319-4.6736585 7.8717791-9.6811498 8.0392638-9.6811498zm-11.0539877-21.8660453 1.1723926 11.1833972c-1.6748466-.8345819-4.8570552-2.670662-8.0392638-4.1729094l-.1674846-.3338327c-1.6748467-3.0044948-3.1822086-6.0089896-4.0196319-7.6781533 4.6895705.3338327 9.3791411.8345818 11.0539877 1.0014982zm-16.7484663 37.5561847c-.8374233-.3338328-2.5122699-.8345819-4.3546012-1.335331 1.6748466-.5007492 3.0147239-1.1684147 4.0196319-1.5022474.6699386-.3338328 1.8423313-.8345819 3.0147239-1.5022474-1.0049079 1.8360801-2.0098159 3.5052439-2.5122699 4.3398258zm-11.7239264-.1669164c-.5024539-.8345819-1.5073619-2.5037456-2.5122699-4.3398258 1.1723926.6676655 2.3447853 1.1684147 3.0147239 1.5022474.8374233.3338328 2.3447853 1.0014983 4.0196319 1.5022474-1.8423313.6676655-3.5171779 1.1684146-4.3546012 1.5022474v-.1669164zm-14.9061349-13.5202265c1.004908 1.1684147 2.5122699 3.1714112 4.1871165 5.1744077.1674847 2.670662.502454 5.5082404.6699387 7.0104878l-7.5368098-4.005993c.6699386-1.335331 1.6748466-4.6736586 2.6797546-8.1789025zm0-2.8375784c-1.1723927-3.5052439-2.1773006-6.8435714-2.51227-8.1789024 1.1723927-.6676655 4.3546013-2.3368293 7.5368099-4.005993-.1674847 1.6691637-.502454 4.3398257-.6699387 7.0104878-1.6748466 2.0029965-3.3496932 4.005993-4.3546012 5.1744076zm4.8570552 6.6766551c-1.8423313-2.1699129-3.6846626-4.3398258-4.3546012-5.1744077.6699386-.8345819 2.5122699-3.0044948 4.3546012-5.1744077.3349693 1.0014983 1.004908 3.1714112 1.6748466 5.1744077-.6699386 2.0029965-1.3398773 4.1729094-1.6748466 5.1744077zm10.3840491-20.3637979c.8374233.3338327 2.5122699.8345819 4.1871165 1.335331-1.6748466.5007491-3.1822086 1.1684146-4.0196319 1.5022474-.6699386.3338327-1.8423313.8345818-3.0147239 1.5022474 1.004908-1.8360802 2.009816-3.5052439 2.5122699-4.3398258zm11.7239263 0c.502454.8345819 1.507362 2.5037456 2.51227 4.3398258-1.1723926-.6676656-2.1773006-1.1684147-3.0147239-1.5022474-.8374234-.3338328-2.3447853-1.0014983-4.0196319-1.5022474 1.8423312-.6676655 3.3496932-1.1684147 4.1871165-1.335331v.1669163zm-3.0147239 23.2013763c-.3349693-.1669164-1.004908-.3338328-1.8423313-.6676655.6699387-.1669164 1.3398773-.5007492 1.6748467-.6676655.3349693-.1669164.6699386-.3338328 1.1723926-.6676655-.3349693.8345818-.6699387 1.5022473-1.004908 2.0029965zm-7.2018405-2.0029965c.502454.1669163.8374233.5007491 1.1723927.6676655.3349693.1669163 1.0049079.3338327 1.6748466.6676655-.8374233.3338327-1.507362.5007491-1.8423313.6676655-.1674847-.5007492-.502454-1.1684147-1.004908-2.0029965zm1.004908-14.187892c.3349693.1669164 1.004908.3338327 1.8423313.6676655-.6699387.3338327-1.3398773.5007491-1.8423313.6676655-.3349693.1669164-.6699386.3338327-1.1723926.5007491.6699386-.6676655 1.0049079-1.5022474 1.1723926-1.8360801zm7.3693252 1.8360801c-.502454-.1669164-.8374234-.5007491-1.1723927-.5007491-.3349693-.1669164-1.004908-.5007491-1.8423313-.6676655.8374233-.3338328 1.507362-.5007491 1.8423313-.6676655.3349693.3338327.6699387 1.1684146 1.1723927 1.8360801zm-1.8423313 12.1848955c-.3349694-.1669164-.8374233-.3338328-1.507362-.5007491.502454-.1669164 1.1723926-.3338328 1.3398773-.5007492.3349693-.1669163.6699387-.3338327 1.004908-.5007491-.3349693.6676655-.8374233 1.1684146-.8374233 1.5022474zm-5.5269939-1.5022474c.3349693.1669164.8374233.3338328 1.004908.5007491.3349693.1669164.8374233.3338328 1.3398773.5007492-.6699387.1669163-1.3398773.3338327-1.507362.5007491-.1674846-.3338328-.502454-.8345819-.8374233-1.5022474zm.8374233-10.3488153c.3349693.1669163.8374233.3338327 1.507362.5007491-.502454.1669164-1.1723927.3338327-1.507362.5007491s-.6699386.3338328-1.004908.5007492c.502454-.6676656.8374234-1.3353311 1.004908-1.5022474zm5.5269939 1.5022474c-.3349693-.1669164-.8374233-.3338328-1.004908-.5007492-.3349693-.1669164-.8374233-.3338327-1.507362-.5007491.6699387-.1669164 1.3398773-.5007491 1.507362-.5007491.1674847.1669163.6699387.8345818 1.004908 1.5022474zm0 6.8435714c.1674846-.3338328.3349693-.6676655.3349693-.8345819.1674847-.3338328.3349693-.6676655.502454-1.1684146.1674847.5007491.3349693 1.0014982.3349693 1.1684146 0 .3338328-.502454.5007491-1.1723926.8345819zm-1.507362 2.0029965c-.1674846 0-.6699386-.1669164-1.1723926-.3338328.502454-.1669163.8374233-.3338327 1.1723926-.5007491.1674847-.1669164.502454-.1669164.8374233-.5007491-.3349693.6676655-.6699386 1.1684146-.8374233 1.335331zm-4.1871165-1.1684146c.3349693.1669163.6699386.3338327.8374233.5007491.3349693.1669164.6699386.3338327 1.1723926.5007491-.502454.1669164-1.004908.3338328-1.1723926.3338328-.1674847-.3338328-.502454-.8345819-.8374233-1.335331zm-2.009816-1.5022474c0-.1669164.1674847-.6676655.3349693-1.1684147.1674847.5007492.3349694.8345819.502454 1.1684147.1674847.1669164.1674847.5007491.3349693.8345819-.5024539-.5007492-1.0049079-.6676655-1.1723926-.8345819zm1.1723926-4.1729094c-.1674846.3338327-.3349693.6676655-.3349693.8345819-.1674846.3338327-.3349693.6676655-.502454 1.1684146-.1674846-.5007491-.3349693-1.0014983-.3349693-1.1684146.1674847-.3338328.6699387-.5007492 1.1723926-.8345819zm1.507362-2.1699129c.1674847 0 .6699387.1669164 1.1723926.3338327-.5024539.1669164-.8374233.3338328-1.1723926.5007492-.1674847.1669163-.502454.1669163-.8374233.3338327.502454-.3338327.8374233-.8345819.8374233-1.1684146zm4.1871166 1.335331c-.3349694-.1669164-.6699387-.3338328-.8374233-.3338328-.3349694-.1669163-.6699387-.3338327-1.1723927-.5007491.502454-.1669164 1.004908-.3338327 1.1723927-.3338327.3349693.1669163.6699386.6676655.8374233 1.1684146zm.1674846 4.3398258c-.1674846.1669163-.3349693.5007491-.502454.8345819-.3349693.1669163-.6699386.3338327-1.0049079.5007491-.1674847.1669164-.6699387.3338327-1.1723927.3338327-.502454-.1669163-.8374233-.3338327-1.1723926-.3338327-.1674847-.1669164-.502454-.3338328-1.004908-.5007491-.1674846-.3338328-.3349693-.6676656-.502454-.8345819-.1674846-.1669164-.3349693-.6676655-.3349693-1.1684147.1674847-.5007491.3349693-.8345818.3349693-1.1684146.1674847-.1669164.3349694-.5007491.502454-.8345819.3349693-.1669164.6699387-.3338327.8374233-.5007491.1674847-.1669164.6699387-.3338328 1.1723927-.3338328.502454.1669164.8374233.3338328 1.1723926.3338328.1674847.1669164.502454.3338327.8374233.5007491.1674847.3338328.3349693.6676655.502454.8345819s.3349693.6676655.3349693 1.1684146c.1674847.5007492 0 1.0014983 0 1.1684147zm.502454-.8345819c.1674847.5007491.3349693.8345819.3349693 1.0014982-.1674846.1669164-.6699386.3338328-1.0049079.6676656.1674846-.3338328.3349693-.5007492.3349693-.6676656 0-.3338327.1674847-.6676655.3349693-1.0014982zm-1.1723926 2.0029965c-.3349693.5007491-.502454.8345819-.6699387 1.0014983-.1674846 0-.502454-.1669164-1.0049079-.3338328.3349693-.1669164.6699386-.3338327.8374233-.3338327.3349693 0 .502454-.1669164.8374233-.3338328zm-2.1773006.6676655c-.502454.1669164-.8374233.3338328-1.004908.3338328-.1674847-.1669164-.3349693-.6676655-.6699387-1.0014983.3349694.1669164.502454.3338328.6699387.3338328.3349693.1669163.6699386.3338327 1.004908.3338327zm-2.009816-1.0014982c-.502454-.3338328-.8374233-.5007492-1.004908-.6676656 0-.1669163.1674847-.5007491.3349694-1.0014982.1674846.3338327.3349693.6676655.3349693 1.0014982zm-.6699386-2.1699129c-.1674847-.5007492-.3349694-.8345819-.3349694-1.0014983.1674847-.1669164.502454-.3338327 1.004908-.6676655-.1674846.3338328-.3349693.5007491-.3349693.6676655-.1674847.3338328-.1674847.6676655-.3349693 1.0014983zm1.1723926-2.0029966c.3349693-.5007491.502454-.8345818.6699387-1.0014982.1674846 0 .5024539.1669164 1.0049079.3338327-.3349693.1669164-.6699386.3338328-1.0049079.3338328-.1674847 0-.502454.1669164-.6699387.3338327zm2.009816-.6676655c.5024539-.1669163.8374233-.3338327 1.0049079-.3338327.1674847.1669164.3349694.6676655.6699387 1.0014982-.3349693-.1669163-.502454-.3338327-.6699387-.3338327-.1674846-.1669164-.6699386-.3338328-1.0049079-.3338328zm2.5122699 1.6691638c0-.1669164-.1674847-.5007491-.3349693-.6676655.502454.3338328.8374233.5007491 1.0049079.6676655 0 .1669164-.1674846.5007491-.3349693 1.0014983-.1674846-.3338328-.3349693-.6676655-.3349693-1.0014983zm-.502454-.8345819c-.3349693-.5007491-.6699386-1.1684146-.6699386-1.335331h.1674846c.3349693.1669164.6699387.3338328 1.1723927.6676655.3349693.5007491.5024539 1.0014983.6699386 1.1684147v.1669163c-.3349693-.1669163-.8374233-.5007491-1.3398773-.6676655zm-1.004908-1.335331c-.1674846 0-.6699386.1669164-1.1723926.3338328-.502454-.1669164-1.1723926-.3338328-1.1723926-.3338328.3349693-.1669164.8374233-.3338327 1.1723926-.5007491.502454.1669164.8374233.3338327 1.1723926.5007491zm-2.6797546 0c0 .1669164-.3349693.6676655-.6699386 1.1684146-.502454.3338328-1.1723927.6676656-1.3398773.6676656 0 0 0 0 0-.1669164.1674846-.3338328.3349693-.6676655.6699386-1.1684147.502454-.1669163 1.004908-.3338327 1.3398773-.5007491zm-2.0098159 2.1699129c0 .1669164.1674846.6676655.3349693 1.1684146-.1674847.5007492-.3349693 1.1684147-.3349693 1.1684147-.1674847-.3338328-.3349693-.8345819-.502454-1.1684147.1674847-.3338327.3349693-.8345818.502454-1.1684146zm.1674846 2.670662c-.1674846 0-.1674846 0 0 0 .1674847 0 .6699387.3338328 1.1723927.6676655.3349693.5007492.6699386 1.1684147.6699386 1.335331-.3349693-.1669163-.8374233-.3338327-1.3398773-.6676655-.1674846-.5007491-.502454-1.0014982-.502454-1.335331zm2.009816 2.0029965c.1674847 0 .6699386-.1669163 1.1723926-.3338327.502454.1669164 1.1723927.3338327 1.1723927.3338327-.3349694.1669164-.8374233.3338328-1.1723927.5007492-.3349693-.1669164-.8374233-.3338328-1.1723926-.5007492zm2.8472393 0c0-.1669163.3349693-.6676655.6699386-1.1684146.502454-.3338327 1.1723926-.6676655 1.3398773-.6676655v.1669164c-.1674847.3338327-.3349693.6676655-.6699386 1.1684146-.6699387 0-1.1723927.3338328-1.3398773.5007491zm2.0098159-2.1699129c0-.1669163-.1674847-.6676655-.3349693-1.1684146.1674846-.5007491.3349693-1.1684146.3349693-1.1684146.1674847.3338327.3349693.8345819.502454 1.1684146-.3349693.3338328-.502454.8345819-.502454 1.1684146zm.1674847-2.8375783c-.1674847-.1669164-.1674847-.5007492-.3349694-.8345819.502454.3338327 1.004908.6676655 1.1723927.6676655 0 .1669164-.1674847.6676655-.3349693 1.1684146-.3349694-.3338327-.502454-.8345819-.502454-1.0014982zm-.6699387-1.3353311c-.3349693-.5007491-.6699386-1.0014982-.8374233-1.335331.3349693.1669164.8374233.5007492 1.507362.6676655.3349693.5007492.502454 1.0014983.6699386 1.5022474-.3349693-.3338327-.8374233-.6676655-1.3398773-.8345819zm-1.6748466-1.8360801c-.3349693.1669164-.8374233.3338328-1.3398773.5007491-.502454-.1669163-1.004908-.3338327-1.3398773-.5007491.3349693-.1669164.8374233-.3338328 1.3398773-.5007491.502454.1669163.8374233.3338327 1.3398773.5007491zm-3.5171779.3338328c-.1674847.3338327-.502454.8345818-.8374233 1.335331-.502454.3338327-1.004908.6676655-1.3398773.8345818.1674846-.3338327.502454-.8345818.6699386-1.5022473.502454-.1669164 1.004908-.5007492 1.507362-.6676655zm-2.8472393 2.1699128c-.1674846.3338328-.3349693.8345819-.502454 1.5022474-.1674846-.6676655-.3349693-1.335331-.502454-1.5022474.3349694-.1669163.8374234-.5007491 1.507362-.8345818-.1674847.3338327-.3349693.6676655-.502454.8345818zm.1674847.8345819c.1674846.3338328.3349693.8345819.502454 1.335331-.1674847.5007492-.3349694 1.0014983-.502454 1.335331-.1674847-.3338327-.3349693-.8345818-.502454-1.335331.3349693-.3338327.502454-.8345818.502454-1.335331zm-.1674847 3.5052439c.1674847.3338328.3349693.6676655.502454 1.0014983-.6699386-.3338328-1.3398773-.6676655-1.507362-.8345819.1674847-.3338327.3349694-.8345819.502454-1.5022474.1674847.5007491.3349694 1.1684147.502454 1.335331zm.6699387.1669164c.3349693.1669164.8374233.5007491 1.3398773.8345819.3349693.5007491.6699386 1.0014982.8374233 1.335331-.3349693-.1669164-.8374233-.5007491-1.507362-.8345819-.3349693-.5007491-.502454-1.0014982-.6699386-1.335331zm3.0147239 2.5037457c.3349693-.1669164.8374233-.3338328 1.3398773-.5007492.502454.1669164 1.004908.3338328 1.3398773.5007492-.3349693.1669163-.8374233.3338327-1.3398773.5007491-.502454-.1669164-1.004908-.3338328-1.3398773-.5007491zm3.5171779-.3338328c.1674847-.3338328.502454-.8345819.8374233-1.335331.502454-.3338328 1.004908-.6676655 1.3398773-.8345819-.1674846.3338328-.502454.8345819-.6699386 1.5022474-.6699387.1669164-1.1723927.5007491-1.507362.6676655zm2.6797546-2.3368293c.1674847-.3338327.3349693-.8345819.502454-1.5022474.1674847.6676655.3349693 1.3353311.502454 1.5022474-.3349693.1669164-.8374233.5007492-1.507362.8345819.1674847-.1669164.3349693-.5007491.502454-.8345819zm-.1674847-.8345819c-.1674846-.3338327-.3349693-.8345818-.5024539-1.335331.1674846-.5007491.3349693-1.0014982.5024539-1.335331.1674847.3338328.3349694.8345819.502454 1.335331-.1674846.5007492-.3349693 1.0014983-.502454 1.335331zm.1674847-3.5052439c-.1674847-.3338327-.3349693-.6676655-.502454-1.0014982.6699387.3338327 1.3398773.6676655 1.507362.8345819-.1674847.3338327-.3349693.8345819-.502454 1.5022474-.1674847-.5007492-.3349693-1.0014983-.502454-1.3353311zm-.8374233-1.6691637c-.3349693-.6676655-.8374233-1.5022474-1.1723926-2.0029965.5024539.1669163 1.1723926.6676655 2.0098159 1.0014982.3349693.8345819.8374233 1.5022474 1.004908 2.0029965-.502454-.1669163-1.1723927-.6676655-1.8423313-1.0014982zm-2.1773006-2.5037457c-.502454.1669164-1.1723927.3338328-1.8423313.6676655-.6699387-.1669163-1.507362-.5007491-1.8423313-.6676655.502454-.1669163 1.1723926-.5007491 1.8423313-.6676655.6699386.3338328 1.3398773.5007492 1.8423313.6676655zm-4.8570552.5007492c-.3349694.5007491-.6699387 1.1684146-1.1723927 2.0029965-.6699386.3338327-1.5073619.8345819-2.0098159 1.1684146.1674846-.5007491.6699386-1.1684146 1.004908-2.0029965 1.0049079-.5007491 1.6748466-1.0014983 2.1773006-1.1684146zm-3.8521473 2.8375784c-.1674846.3338327-.502454 1.0014982-.6699386 1.8360801-.3349693-.8345819-.502454-1.5022474-.6699387-1.8360801.3349694-.1669164 1.004908-.6676655 1.8423313-1.0014983-.1674846.3338328-.3349693.8345819-.502454 1.0014983zm.502454 1.1684146c.1674847.5007491.3349693 1.1684146.6699387 1.8360801-.1674847.6676655-.502454 1.5022474-.6699387 1.8360802-.1674846-.5007492-.502454-1.1684147-.6699386-1.8360802.1674846-.6676655.502454-1.335331.6699386-1.8360801zm-.502454 4.8405749c.1674847.3338328.3349694.6676655.502454 1.1684146-.8374233-.5007491-1.5073619-.8345818-1.8423313-1.0014982.1674847-.3338328.3349694-1.0014983.6699387-1.8360802.3349693.6676656.502454 1.3353311.6699386 1.6691638zm.8374233 0c.502454.3338328 1.1723927.6676655 2.009816 1.1684146.3349693.6676656.8374233 1.5022474 1.1723926 2.0029966-.502454-.1669164-1.1723926-.6676655-2.0098159-1.0014983-.502454-1.0014983-.8374233-1.6691638-1.1723927-2.1699129zm4.1871166 3.3383275c.502454-.1669163 1.1723926-.3338327 1.8423313-.6676655.6699386.1669164 1.507362.5007492 1.8423313.6676655-.502454.1669164-1.1723927.5007492-1.8423313.6676655-.6699387-.1669163-1.3398773-.3338327-1.8423313-.6676655zm4.6895706-.3338327c.3349693-.5007491.6699386-1.1684146 1.1723926-2.0029965.6699386-.3338328 1.507362-.8345819 2.0098159-1.1684147-.1674846.5007492-.6699386 1.1684147-1.0049079 2.0029966-1.004908.5007491-1.6748467.8345818-2.1773006 1.1684146zm3.8521472-3.0044948c.1674847-.3338327.502454-1.0014982.6699387-1.8360801.3349693.8345819.5024539 1.5022474.6699386 1.8360801-.3349693.1669164-1.004908.6676655-1.8423313 1.0014983.1674847-.1669164.3349693-.6676655.502454-1.0014983zm-.3349693-1.0014982c-.1674847-.5007492-.3349694-1.1684147-.6699387-1.8360802.1674847-.6676655.502454-1.5022474.6699387-1.8360801.1674846.5007491.502454 1.1684146.6699386 1.8360801-.3349693.5007491-.502454 1.1684146-.6699386 1.8360802zm.3349693-5.0074913c-.1674847-.3338328-.3349693-.6676655-.502454-1.1684147.8374233.5007492 1.507362.8345819 1.8423313 1.0014983-.1674847.3338327-.3349693 1.0014982-.6699386 1.8360801-.1674847-.5007491-.502454-1.1684146-.6699387-1.6691637zm-1.1723926-2.3368293c-.502454-.8345819-1.004908-1.6691638-1.3398773-2.3368293.6699386.3338328 1.5073619.8345819 2.5122699 1.335331.502454.8345819 1.004908 1.8360802 1.3398773 2.5037457-.8374233-.6676655-1.6748466-1.1684147-2.5122699-1.5022474zm-1.507362-3.5052439c-.502454-.3338328-1.507362-.6676655-2.5122699-1.0014983 1.1723926-.3338327 2.1773006-.6676655 2.6797546-.8345818.3349693.5007491.8374233 1.5022473 1.5073619 2.670662-.6699386-.3338328-1.3398773-.6676655-1.6748466-.8345819zm-1.8423313.3338327c-.6699386.1669164-1.507362.5007492-2.3447853.8345819-.8374233-.3338327-1.6748466-.5007491-2.3447852-.8345819.6699386-.3338327 1.5073619-.5007491 2.3447852-.8345818 1.004908.3338327 1.6748467.5007491 2.3447853.8345818zm-6.1969325-.3338327c-.502454.1669164-1.004908.5007491-1.6748466.8345819.6699386-1.1684147 1.1723926-2.1699129 1.5073619-2.670662.502454.1669163 1.507362.5007491 2.6797546.8345818-1.0049079.3338328-2.0098159.6676655-2.5122699 1.0014983zm-.1674847 1.0014983c-.3349693.6676655-.8374233 1.5022473-1.3398773 2.3368292-.8374233.5007491-1.6748466 1.0014983-2.3447852 1.335331.3349693-.6676655.8374233-1.5022474 1.3398773-2.5037456.8374233-.3338328 1.6748466-.8345819 2.3447852-1.1684146zm-4.8570552 3.8390766c-.3349693.5007491-.6699386 1.5022474-1.004908 2.5037457-.3349693-1.1684147-.6699386-2.1699129-.8374233-2.6706621.502454-.3338327 1.507362-.8345819 2.6797546-1.5022474-.3349693.6676655-.6699386 1.3353311-.8374233 1.6691638zm.3349693 1.8360801c.1674847.6676656.502454 1.5022474.8374234 2.3368293-.3349694.8345819-.502454 1.6691638-.8374234 2.3368293-.3349693-.6676655-.5024539-1.5022474-.8374233-2.3368293.3349694-.8345819.6699387-1.6691637.8374233-2.3368293zm-.3349693 6.175906c.1674847.5007491.502454 1.0014982.8374233 1.6691637-1.1723926-.6676655-2.1773006-1.1684146-2.6797546-1.5022474.1674847-.5007491.502454-1.5022473.8374233-2.670662.3349694 1.0014983.6699387 2.0029965 1.004908 2.5037457zm1.1723927.1669163c.6699386.3338328 1.5073619.8345819 2.3447852 1.3353311.502454.8345818 1.004908 1.6691637 1.3398773 2.3368292-.6699386-.3338327-1.5073619-.8345819-2.5122699-1.335331-.502454-.8345819-.8374233-1.6691637-1.1723926-2.3368293zm3.8521472 4.840575c.502454.3338327 1.507362.6676655 2.5122699 1.0014982-1.1723926.3338328-2.1773006.6676655-2.6797546.8345819-.3349693-.5007491-.8374233-1.5022474-1.5073619-2.670662.6699386.3338327 1.1723926.6676655 1.6748466.8345819zm1.6748466-.3338328c.6699387-.1669164 1.507362-.5007491 2.3447853-.8345819.8374233.3338328 1.6748466.5007492 2.3447853.8345819-.6699387.3338328-1.507362.5007491-2.3447853.8345819-.8374233-.3338328-1.6748466-.5007491-2.3447853-.8345819zm6.1969325.3338328c.502454-.1669164 1.004908-.5007492 1.6748467-.8345819-.6699387 1.1684146-1.1723927 2.1699129-1.507362 2.670662-.502454-.1669164-1.507362-.5007491-2.6797546-.8345819 1.1723926-.3338327 2.0098159-.6676655 2.5122699-1.0014982zm.3349694-1.1684147c.3349693-.6676655.8374233-1.5022474 1.3398773-2.3368292.8374233-.5007492 1.6748466-1.0014983 2.3447852-1.3353311-.3349693.6676656-.8374233 1.5022474-1.3398773 2.5037457-.8374233.5007491-1.6748466.8345819-2.3447852 1.1684146zm4.8570552-3.8390766c.3349693-.5007492.6699386-1.5022474 1.004908-2.5037457.3349693 1.1684147.6699386 2.1699129.8374233 2.670662-.502454.3338328-1.507362.8345819-2.6797546 1.5022474.3349693-.6676655.502454-1.1684146.8374233-1.6691637zm-.502454-1.6691638c-.1674847-.6676655-.502454-1.5022474-.8374233-2.3368293.3349693-.8345818.502454-1.6691637.8374233-2.3368292.3349693.6676655.502454 1.5022474.8374233 2.3368292-.1674847.8345819-.502454 1.6691638-.8374233 2.3368293zm.502454-6.3428223c-.1674847-.5007491-.502454-1.0014983-.8374233-1.6691638 1.1723926.6676655 2.1773006 1.1684147 2.6797546 1.5022474-.1674847.5007492-.502454 1.5022474-.8374233 2.6706621-.502454-1.0014983-.8374234-1.8360802-1.004908-2.5037457zm-1.8423313-3.1714111c-1.004908-1.8360802-2.009816-3.6721603-2.3447853-4.1729095h.1674847c1.0049079.5007492 2.5122699 1.3353311 4.1871165 2.1699129.8374234 1.6691638 1.6748467 3.1714112 2.1773007 4.1729094v.1669164c-.502454-.3338327-2.3447853-1.335331-4.1871166-2.3368292zm-7.2018405-3.1714112c-1.8423313-.6676655-3.5171779-1.1684146-4.0196319-1.335331 1.1723926-.5007491 2.5122699-1.0014983 4.0196319-1.5022474 1.507362.5007491 3.0147239 1.0014983 4.0196319 1.5022474-.502454.1669164-2.3447853.6676655-4.0196319 1.335331zm-7.3693252 3.1714112c-1.8423312 1.0014982-3.6846625 2.0029965-4.1871165 2.3368292v-.1669164c.502454-1.0014982 1.3398773-2.5037456 2.1773006-4.1729094 1.6748466-.8345818 3.1822086-1.6691637 4.1871166-2.1699129h.1674846c-.3349693.5007492-1.3398773 2.3368293-2.3447853 4.1729095zm-4.5220858 3.1714111c.1674846.5007491.6699386 2.3368293 1.3398773 4.005993-.6699387 1.8360802-1.1723927 3.5052439-1.3398773 4.0059931-.502454-1.1684147-1.004908-2.5037457-1.507362-4.0059931.502454-1.5022473 1.004908-2.8375784 1.507362-4.005993zm4.5220858 11.3503136c1.004908 1.8360801 2.009816 3.6721603 2.3447853 4.1729094 0 0 0 0-.1674846 0-1.004908-.5007491-2.51227-1.335331-4.1871166-2.1699129-.8374233-1.6691638-1.6748466-3.1714111-2.1773006-4.1729094v-.1669164c.502454.3338328 2.3447853 1.335331 4.1871165 2.3368293zm7.3693252 3.1714111c1.8423313.6676656 3.5171779 1.1684147 4.0196319 1.3353311-1.1723926.5007491-2.5122699 1.0014982-4.0196319 1.5022473-1.507362-.5007491-3.0147239-1.0014982-4.0196319-1.5022473.502454-.1669164 2.1773006-.6676655 4.0196319-1.3353311zm7.2018405-3.1714111c1.8423313-1.0014983 3.6846626-2.0029965 4.1871166-2.3368293v.1669164c-.502454 1.0014983-1.3398773 2.5037456-2.1773007 4.1729094-1.6748466.8345819-3.3496932 1.8360802-4.1871165 2.1699129 0 0 0 0-.1674847 0 .3349693-.5007491 1.3398773-2.3368293 2.3447853-4.1729094zm4.5220859-3.1714112c-.1674847-.5007491-.6699387-2.3368292-1.3398773-4.005993.6699386-1.8360801 1.1723926-3.5052439 1.3398773-4.005993.502454 1.1684146 1.004908 2.5037456 1.5073619 4.005993-.5024539 1.335331-1.0049079 2.8375784-1.5073619 4.005993zm.502454-9.5142334c-.3349694-.6676655-.8374233-1.8360801-1.507362-3.0044948 1.8423313 1.0014983 3.5171779 2.0029965 4.3546012 2.5037457v.1669163h.1674847c-.1674847.8345819-.8374233 2.5037457-1.507362 4.3398258-.502454-1.6691637-1.0049079-3.1714111-1.5073619-4.005993zm-2.3447853-4.5067422c-1.004908-1.8360801-2.1773006-3.8390766-2.8472393-5.0074913 3.014724.3338328 5.8619632.5007492 7.2018405.6676656l.6699387 7.1774041c-1.1723927-.6676655-3.014724-1.8360801-5.0245399-2.8375784zm-9.8815951-4.3398257c-2.1773006-.6676656-4.1871166-1.3353311-5.1920245-1.6691638 2.1773006-1.8360802 4.3546012-3.6721603 5.1920245-4.3398258.8374233.6676655 3.0147239 2.5037456 5.1920245 4.3398258-1.0049079.3338327-3.1822086 1.0014982-5.1920245 1.6691638zm-10.0490798 4.3398257c-1.8423312 1.0014983-3.8521472 2.1699129-5.0245398 2.8375784.3349693-3.0044947.502454-5.8420731.6699386-7.1774041 1.1723927-.1669164 4.1871166-.5007492 7.2018405-.6676656-.6699386 1.1684147-1.6748466 3.1714112-2.8472393 5.0074913zm-.8374233 1.5022474c-.6699386 1.1684147-1.1723926 2.1699129-1.5073619 3.0044948-.3349694.8345819-1.004908 2.3368293-1.507362 4.005993-.502454-1.6691637-1.1723926-3.3383275-1.3398773-4.1729094v-.5007491c1.004908-.3338328 2.6797546-1.335331 4.3546012-2.3368293zm-3.0147239 9.8480662c.502454 1.6691638 1.1723926 3.1714112 1.507362 4.0059931.3349693.6676655.8374233 1.8360801 1.5073619 3.0044947-1.8423313-1.0014982-3.5171779-2.0029965-4.3546012-2.5037456v-.5007491c.3349693-.8345819.8374233-2.3368293 1.3398773-4.0059931zm3.8521472 8.5127352c1.004908 1.8360802 2.1773007 3.8390767 2.8472393 5.0074913-3.0147239-.3338327-5.8619632-.5007491-7.2018405-.6676655-.1674846-1.1684146-.502454-4.1729094-.6699386-7.1774042 1.1723926.6676655 3.1822086 1.8360802 5.0245398 2.8375784zm10.0490798 4.3398258c2.1773006.6676655 4.1871166 1.335331 5.1920245 1.6691638l-5.1920245 4.3398257c-.8374233-.6676655-3.0147239-2.5037456-5.1920245-4.3398257 1.0049079-.3338328 3.0147239-1.0014983 5.1920245-1.6691638zm9.8815951-4.3398258c1.8423313-1.0014982 3.8521472-2.1699129 5.0245399-2.8375784-.3349694 3.0044948-.502454 5.8420732-.6699387 7.1774042l-7.2018405.6676655c.6699387-1.1684146 1.8423313-3.1714111 2.8472393-5.0074913zm.8374233-1.5022474c.6699387-1.1684146 1.1723926-2.1699129 1.507362-3.0044947.3349693-.8345819 1.0049079-2.3368293 1.5073619-4.0059931.6699387 1.8360802 1.1723927 3.3383276 1.3398773 4.1729094h-.1674846v.3338328c-.6699387.5007491-2.3447853 1.5022474-4.1871166 2.5037456zm3.5171779-8.5127352c.6699387-2.1699129 1.3398773-4.1729094 1.6748466-5.1744076l4.3546013 5.1744076c-.6699387.8345819-2.51227 3.0044948-4.3546013 5.1744077-.1674846-.8345819-.8374233-3.0044948-1.6748466-5.1744077zm2.1773006 6.6766551c1.6748467-2.0029965 3.3496933-4.005993 4.3546013-5.1744077 1.1723926 3.5052439 2.1773006 6.8435715 2.5122699 8.1789025l-7.5368098 4.005993c.1674846-1.6691638.502454-4.3398258.6699386-7.0104878zm4.3546013-8.0119861-4.1871166-5.1744076-.6699387-7.1774042c3.1822086 1.6691637 6.1969326 3.3383275 7.5368099 4.005993-.502454 1.5022474-1.507362 4.8405749-2.6797546 8.3458188zm-7.2018405-14.3548083c-1.6748467-.1669164-4.3546013-.5007492-7.0343559-.6676655-2.0098159-1.6691638-4.0196319-3.3383276-5.1920245-4.1729094 3.5171779-1.1684147 6.8668712-2.1699129 8.2067485-2.5037457.6699386 1.0014983 2.3447852 4.1729094 4.0196319 7.3443206zm-13.5662577-16.02397216c1.3398773 1.00149826 5.0245399 4.00599303 8.7092025 7.0104878-1.6748467.50074913-5.0245399 1.50224736-8.3742332 2.50374566l-.3349693.1669164c-3.3496933-1.0014983-6.8668712-2.16991293-8.7092025-2.67066206 3.6846626-3.00449477 7.3693252-5.84207317 8.7092025-7.0104878zm-9.7141104 8.51273516c1.3398773.3338328 4.8570552 1.335331 8.3742331 2.5037457-1.1723926 1.0014982-3.1822086 2.670662-5.1920245 4.3398258-2.6797546.1669163-5.5269939.5007491-7.0343559.6676655 1.507362-3.1714112 3.1822086-6.3428223 3.8521473-7.511237zm-12.8963191.8345819c1.6748467-.1669164 6.3644172-.6676655 11.2214724-1.1684146-.8374233 1.6691637-2.6797546 4.8405749-4.1871165 8.011986l-.3349693.1669164c-3.014724 1.6691638-6.1969326 3.3383275-7.7042945 4.1729094.3349693-4.8405749.8374233-9.5142334 1.0049079-11.1833972zm-2.17730056 31.046446c-3.18220859-3.6721603-6.02944786-7.3443206-7.20184049-8.6796516 1.00490797-1.335331 4.0196319-5.0074913 7.03435582-8.6796515.50245399 1.6691637 1.50736193 5.0074913 2.51226993 8.3458188l.1674847.3338327c-.8374233 3.5052439-2.00981598 7.0104878-2.51226996 8.6796516zm2.17730056 13.8540592c-.1674846-1.6691637-.6699386-6.3428223-1.17239259-11.1833972l8.03926379 4.3398258 4.3546012 8.0119861c-4.6895705-.5007492-9.5466257-1.0014983-11.2214724-1.1684147zm8.8766872-6.676655c1.5073619.1669164 4.3546012.5007491 7.0343558.6676655h.1674847c2.0098159 1.6691638 4.0196319 3.3383275 5.1920245 4.3398258-3.5171779 1.1684146-6.8668712 2.1699129-8.2067485 2.5037456zm13.7337423 16.0239721c-1.3398773-1.0014982-5.0245399-4.005993-8.7092025-7.0104878 1.6748467-.5007491 5.1920246-1.5022474 8.5417178-2.670662h.1674847c3.3496932 1.0014982 6.8668712 2.1699129 8.7092025 2.670662zm9.7141104-8.5127352c-1.3398773-.3338327-4.8570552-1.335331-8.3742331-2.5037456l5.1920245-4.1729094 7.0343559-.6676655zm12.7288344-.8345819-11.2214724 1.1684147 4.3546012-8.0119861 8.0392638-4.3398258c-.502454 4.8405749-1.004908 9.5142335-1.1723926 11.1833972zm2.1773006-13.8540592c-.502454-1.6691638-1.507362-5.0074913-2.5122699-8.3458188l-.1674847-.3338328c1.004908-3.3383275 2.1773006-6.8435714 2.6797546-8.6796515l7.2018405 8.6796515c-1.004908 1.335331-4.0196319 5.0074913-7.2018405 8.6796516z"/><path d="m35.5302551 35.4306272s-1.3398773.1669164-1.8423313.1669164-1.8423313-.1669164-1.8423313-.1669164-.1674847-1.335331-.1674847-1.8360802c0-.5007491.1674847-1.8360801.1674847-1.8360801s1.3398773-.1669164 1.8423313-.1669164 1.8423313.1669164 1.8423313.1669164.1674846 1.335331.1674846 1.8360801c0 .5007492-.1674846 1.8360802-.1674846 1.8360802z"/></g></g></g></svg>