<svg fill="none" height="61" viewBox="0 0 62 61" width="62" xmlns="http://www.w3.org/2000/svg"><path d="m60.9996 17.3636v-4.0909c0-.9546-3.6818-2.7273-6.8182-2.7273-3.1363 0-6.8181 1.7727-6.8181 2.7273v4.0909" stroke="#1476f2" stroke-width=".857143"/><path d="m50.0898 5.09089c0-2.07272 1.9773-4.09089 4.0909-4.09089 2.1137 0 4.0909 2.01817 4.0909 4.09089v1.36363c0 2.07272-1.9772 4.09088-4.0909 4.09088-2.1136 0-4.0909-2.01816-4.0909-4.09088z" stroke="#1476f2" stroke-width=".857143"/><path d="m60.9996 60.9998v-4.0909c0-.9545-3.6818-2.7273-6.8182-2.7273-3.1363 0-6.8181 1.7728-6.8181 2.7273v4.0909" stroke="#1476f2" stroke-width=".857143"/><path d="m50.0898 48.727c0-2.0727 1.9773-4.0909 4.0909-4.0909 2.1137 0 4.0909 2.0182 4.0909 4.0909v1.3636c0 2.0728-1.9772 4.0909-4.0909 4.0909-2.1136 0-4.0909-2.0181-4.0909-4.0909z" stroke="#1476f2" stroke-width=".857143"/><path d="m31.0671 50.0908c9.7772 0 17.6863-7.9227 17.659-17.6999-.0273-9.7773-7.9636-17.7-17.7408-17.7-9.7773 0-17.6863 7.9227-17.6591 17.7.0137 9.7772 7.9636 17.6999 17.7409 17.6999z" stroke="#323232"/><path d="m56.9079 40.9817c.8864-2.6999 1.3637-5.5908 1.3637-8.5908-.0137-4.9773-1.3637-9.6409-3.7091-13.6636" stroke="#323232"/><path d="m1 17.3636v-4.0909c0-.9546 3.6818-2.7273 6.81816-2.7273 3.13634 0 6.81814 1.7727 6.81814 2.7273v4.0909" stroke="#1476f2" stroke-width=".857143"/><path d="m11.9083 5.09089c0-2.07272-1.97722-4.09089-4.09084-4.09089-2.11363 0-4.0909 2.01817-4.0909 4.09089v1.36363c0 2.07272 1.97727 4.09088 4.0909 4.09088 2.11362 0 4.09084-2.01816 4.09084-4.09088z" stroke="#1476f2" stroke-width=".857143"/><path d="m1 60.9998v-4.0909c0-.9545 3.6818-2.7273 6.81816-2.7273 3.13634 0 6.81814 1.7728 6.81814 2.7273v4.0909" stroke="#1476f2" stroke-width=".857143"/><path d="m11.9083 48.727c0-2.0727-1.97722-4.0909-4.09084-4.0909-2.11363 0-4.0909 2.0182-4.0909 4.0909v1.3636c0 2.0728 1.97727 4.0909 4.0909 4.0909 2.11362 0 4.09084-2.0181 4.09084-4.0909z" stroke="#1476f2" stroke-width=".857143"/><g stroke="#323232"><path d="m5.03551 40.9817c-.88636-2.6999-1.36363-5.5908-1.36363-8.5908.01363-4.9773 1.36363-9.6409 3.70907-13.6636"/><path d="m18.6719 56.7724c3.6681 1.8409 7.7999 2.8637 12.1772 2.8637h.2318c4.3773 0 8.5227-1.0364 12.1772-2.8773"/><path d="m17.3223 8.78638c4.0227-2.33181 8.6999-3.69544 13.6772-3.69544h-.0409c4.9772 0 9.6409 1.35 13.6772 3.68181"/><path d="m30.9731 14.6364c-5.2909 0-9.5727 7.9363-9.5727 17.7272 0 9.7908 4.2818 17.7272 9.5727 17.7272s9.5727-7.9364 9.5727-17.7272c0-9.7909-4.2818-17.7272-9.5727-17.7272z"/><path d="m47.3639 25.5454h-32.7272"/><path d="m47.3639 39.1818h-32.7272"/><path d="m31 14.6364v35.4544"/></g></svg>