<svg fill="none" height="61" viewBox="0 0 53 61" width="53" xmlns="http://www.w3.org/2000/svg"><g stroke="#323232"><path d="m11.4342 17.9566c2.9869 0 5.2174-2.5028 5.2174-5.5892v-1.8652c0-3.0864-2.2305-5.58911-5.2174-5.58911-2.98697 0-5.2174 2.50271-5.2174 5.58911v1.8636c0 3.088 2.23043 5.5908 5.2174 5.5908z"/><path d="m11.438 39.5207-4.40539-.8967c-1.24076-.1745-2.08207-.4517-3.23968-2.2011l-1.11358-2.4554c-.97989-2.1587-1.67935-3.0848-1.67935-4.8408 0-3.6783 1.87989-7.2571 6.02446-7.2571h7.51794c2.4098.0979 3.8886.5201 5.2043 2.1066 1.3158 1.5864 2.55 3.0831 2.55 3.0831"/><path d="m7.17773 28.7631 1.17881 2.9478c.47119 1.1772 1.04022 1.6386 2.13746 2.0446l3.0359 1.0793"/><path d="m25.1851 37.5217s-3.5348 0-4.6043 0c-.2495-3.0978 2.4472-5.2174 2.4472-5.2174h4.1381c.9097 0 1.5016 1.0207 1.094 1.8881l-.8853 1.888c-.4142.8837-1.262 1.4413-2.1897 1.4413z"/><path d="m26.55 32.3043 1.7152-3.5104c.3913-.7956-.1777-1.7331-1.0532-1.7331h-9.137c-.4451 0-.8527.256-1.0533.6619l-5.8842 11.9789c-.3913.7956.1777 1.7331 1.0533 1.7331h9.1369c.4451 0 .8527-.256 1.0533-.662l1.5962-3.251"/><path d="m6.2168 38.4657v22.5343"/><path d="m12.7402 46.6522v14.3478"/><path d="m19.2617 41.4348v19.5652"/></g><path d="m21.8691 16.6522v-15.6522h23.4783" stroke="#1476f2" stroke-width=".857143"/><path d="m51.8699 11.4348v20.8696h-19.5652" stroke="#1476f2" stroke-width=".857143"/><path d="m28.3906 16.6522 6.5218 7.8261 15.6522-20.86954" stroke="#1476f2" stroke-width=".857143"/></svg>