<svg fill="none" height="61" viewBox="0 0 66 61" width="66" xmlns="http://www.w3.org/2000/svg"><path d="m42.9128 27.3634 2.7384-.6349v-6.8041l-4.8279-1.1215c-.4274-1.6552-1.078-3.2163-1.9256-4.6535l2.6197-4.20521-4.8104-4.81047-4.2053 2.61977c-1.4354-.84768-2.9982-1.5-4.6534-1.92558l-1.1216-4.82791h-6.8023l-1.1215 4.82791c-1.6552.42732-3.2163 1.0779-4.6535 1.92558l-4.20521-2.61977-4.81047 4.81047 2.61977 4.20521c-.84768 1.4372-1.5 2.9983-1.92558 4.6535l-4.82791 1.1215v6.8041l4.82791 1.1215c.42732 1.6552 1.0779 3.2163 1.92558 4.6535l-2.61977 4.2035 4.81047 4.8104 4.20521-2.6197" stroke="#323232"/><path d="m23.3255 28.9069c3.0826 0 5.5814-2.4988 5.5814-5.5814 0-3.0825-2.4988-5.5814-5.5814-5.5814-3.0825 0-5.5814 2.4989-5.5814 5.5814 0 3.0826 2.4989 5.5814 5.5814 5.5814z" stroke="#323232"/><g stroke="#1476f2" stroke-width=".857143"><path d="m55.4173 40.0698c-3.1953 0-5.5814-2.6773-5.5814-5.9791v-1.9936c0-3.3017 2.3861-5.9791 5.5814-5.9791 3.1954 0 5.5814 2.6774 5.5814 5.9791v1.9936c0 3.3018-2.386 5.9791-5.5814 5.9791z"/><path d="m48.4434 41.8262c2.1226-1.1895 5.004-1.7564 6.9767-1.7564 3.4744 0 9.7674 1.7233 9.7674 5.5483v1.4285"/><path d="m38.6732 47.0465c-3.1954 0-5.5814-2.6773-5.5814-5.9791v-1.9936c0-3.3017 2.386-5.9791 5.5814-5.9791 3.1953 0 5.5814 2.6774 5.5814 5.9791v1.9936c0 3.3018-2.3861 5.9791-5.5814 5.9791z"/><path d="m31.6992 48.8029c2.1227-1.1895 5.0023-1.7564 6.9768-1.7564 3.4744 0 9.7674 1.7233 9.7674 5.5483v1.4285"/><path d="m21.9291 54.0231c-3.1954 0-5.5814-2.6773-5.5814-5.979v-1.9936c0-3.3018 2.386-5.9791 5.5814-5.9791 3.1953 0 5.5813 2.6773 5.5813 5.9791v1.9936c0 3.3017-2.386 5.979-5.5813 5.979z"/><path d="m12.1621 60.9999v-1.3953c0-3.825 6.293-5.5814 9.7675-5.5814 3.4744 0 9.7674 1.7232 9.7674 5.5482v1.4285"/></g></svg>