<svg width="46" height="61" viewBox="0 0 46 61" fill="none" xmlns="http://www.w3.org/2000/svg"><path d="M25.7832 34.9131H28.3919C29.2136 34.9131 30.5017 35.4348 31.0006 36.2174H33.6093C34.8321 36.2174 36.218 37.3587 36.218 38.8261H38.8267C40.0495 38.8261 41.4354 39.9674 41.4354 41.4348V55.0098C41.4354 57.6495 38.8267 59.2424 38.8267 61" stroke="#323232"/><path d="M25.783 40.1305V25.7826C25.783 24.3413 24.6156 23.174 23.1743 23.174C21.733 23.174 20.5656 24.3413 20.5656 25.7826V45.3479C19.6624 46.2153 18.1917 46.0424 17.5135 44.9908L15.4135 41.7365C13.3265 38.862 10.1309 40.4745 10.1309 41.7365C10.1309 41.7365 14.0879 50.9826 14.6553 51.8696C15.5667 53.2962 20.5656 59.112 20.5656 60.2272V61" stroke="#323232"/><path d="M31 36.2174V41.4348" stroke="#323232"/><path d="M36.2168 38.826V42.7391" stroke="#323232"/><path d="M23.1744 14.0435C26.1614 14.0435 28.3918 11.5408 28.3918 8.45435V6.58913C28.3918 3.50272 26.1614 1 23.1744 1C20.1875 1 17.957 3.50272 17.957 6.58913V8.45272C17.957 11.5408 20.1875 14.0435 23.1744 14.0435Z" stroke="#1476F2" stroke-width=".857"/><path d="M33.6078 24.4782V20.5652C33.6078 16.9636 29.147 14.0435 23.1731 14.0435C17.1992 14.0435 12.7383 16.9636 12.7383 20.5652V24.4782" stroke="#1476F2" stroke-width=".857"/><path d="M38.1746 12.7391C40.7882 12.7391 42.7398 10.4875 42.7398 7.70924V6.02989C42.7398 3.25163 40.7882 1 38.1746 1C35.561 1 33.6094 3.25163 33.6094 6.02989V7.70761C33.6094 10.4875 35.561 12.7391 38.1746 12.7391Z" stroke="#323232"/><path d="M33.6074 13.9408C34.8302 13.1891 36.4248 12.7391 38.2199 12.7391C42.3009 12.7391 45.3482 15.0755 45.3482 17.9565V21.8696" stroke="#323232"/><path d="M8.17459 12.7391C5.56101 12.7391 3.60938 10.4875 3.60938 7.70924V6.02989C3.60938 3.25163 5.56101 1 8.17459 1C10.7882 1 12.7398 3.25163 12.7398 6.02989V7.70761C12.7398 10.4875 10.7882 12.7391 8.17459 12.7391Z" stroke="#323232"/><path d="M12.9788 14.0957C11.7266 13.2527 10.0408 12.7391 8.12826 12.7391C4.04728 12.7391 1 15.0755 1 17.9565V21.8696" stroke="#323232"/></svg>