<svg fill="none" height="46" viewBox="0 0 56 46" width="56" xmlns="http://www.w3.org/2000/svg"><g stroke="#323232"><path d="m11.8 35.6001c-2.748 0-4.8-2.3025-4.8-5.142v-1.7145c0-2.841 2.052-5.1435 4.8-5.1435s4.8 2.3025 4.8 5.142v1.7145c0 2.841-2.052 5.1435-4.8 5.1435z"/><path d="m3.40039 44.0001v-3.6c0-3.2895 5.412-4.8 8.40001-4.8 2.988 0 8.4 1.482 8.4 4.7715"/><path d="m9.39961 14c-2.748 0-4.8-2.3025-4.8-5.142v-1.716c0-2.8395 2.052-5.142 4.8-5.142 2.74799 0 4.79999 2.3025 4.79999 5.142v1.7145c0 2.841-2.052 5.1435-4.79999 5.1435z"/><path d="m1 22.4v-3.6c0-3.2895 5.412-4.8 8.4-4.8s8.4 1.482 8.4 4.7715"/><path d="m28.6008 21.2002c2.748 0 4.8-2.3025 4.8-5.142v-1.716c0-2.8395-2.052-5.142-4.8-5.142s-4.8 2.3025-4.8 5.142v1.7145c0 2.841 2.052 5.1435 4.8 5.1435z"/><path d="m28.5992 21.2002c-2.988 0-8.4 1.482-8.4 4.7715"/><path d="m28.5996 21.2002c2.988 0 8.4 1.482 8.4 4.7715"/></g><path d="m45.9351 38.1605c2.9265-3.528 4.2645-7.848 4.2645-13.3605v-7.2h4.8l-8.4-15.6-8.4 15.6h4.8v7.2c0 12.375-10.35 20.4-21.6 20.4h-4.8" stroke="#1476f2"/></svg>