<svg width="56" height="53" viewBox="0 0 56 53" fill="none" xmlns="http://www.w3.org/2000/svg"><path d="M26.7724 36.591C23.9619 36.591 21.8633 34.2362 21.8633 31.3322V29.5787C21.8633 26.6747 23.9619 24.3198 26.7724 24.3198C27.6775 24.3198 28.5105 24.5637 29.2208 24.9933" stroke="#323232" stroke-linejoin="round"/><path d="M18.1816 42.7272V41.4999C18.1816 38.1356 23.7166 36.5908 26.7725 36.5908" stroke="#323232" stroke-linejoin="round"/><path d="M20.6357 13.2727C17.8252 13.2727 15.7266 10.9179 15.7266 8.01386V6.25886C15.7266 3.35483 17.8252 1 20.6357 1C23.4461 1 25.5447 3.35483 25.5447 6.25886V8.01233C25.5447 10.9179 23.4461 13.2727 20.6357 13.2727Z" stroke="#323232" stroke-linejoin="round"/><path d="M12.0449 19.4093V18.182C12.0449 14.8178 17.5799 13.2729 20.6358 13.2729C23.6917 13.2729 29.2267 14.7886 29.2267 18.1529V19.4093" stroke="#323232" stroke-linejoin="round"/><path d="M37.8173 13.2727C35.0068 13.2727 32.9082 10.9179 32.9082 8.01386V6.25886C32.9082 3.35483 35.0068 1 37.8173 1C40.6277 1 42.7264 3.35483 42.7264 6.25886V8.01233C42.7264 10.9179 40.6277 13.2727 37.8173 13.2727Z" stroke="#323232" stroke-linejoin="round"/><path d="M29.2266 19.4093V18.182C29.2266 14.8178 34.7616 13.2729 37.8175 13.2729C40.8734 13.2729 46.4084 14.7886 46.4084 18.1529V19.4093" stroke="#323232" stroke-linejoin="round"/><path d="M9.59073 36.5911C6.78028 36.5911 4.68164 34.2363 4.68164 31.3322V29.5788C4.68164 26.6732 6.78028 24.3184 9.59073 24.3184C12.4012 24.3184 14.4998 26.6732 14.4998 29.5772V31.3307C14.4998 34.2363 12.4012 36.5911 9.59073 36.5911Z" stroke="#323232" stroke-linejoin="round"/><path d="M1 42.7272V41.4999C1 38.1356 6.535 36.5908 9.59091 36.5908C12.6468 36.5908 18.1818 38.1065 18.1818 41.4708V42.7272" stroke="#323232" stroke-linejoin="round"/><path d="M42.7278 47.6363C49.5058 47.6363 55.0005 42.1416 55.0005 35.3635C55.0005 28.5855 49.5058 23.0908 42.7278 23.0908C35.9498 23.0908 30.4551 28.5855 30.4551 35.3635C30.4551 42.1416 35.9498 47.6363 42.7278 47.6363Z" stroke="#1476F2"/><path d="M35.3633 35.3637C35.3633 32.2035 37.353 29.5081 40.1496 28.4634" stroke="#1476F2"/><path d="M34.1358 43.9546L25.5449 52.5455" stroke="#1476F2"/></svg>