<svg width="56" height="51" viewBox="0 0 56 51" fill="none" xmlns="http://www.w3.org/2000/svg"><path d="M11.5648 12.7392C14.2531 12.7392 16.2605 10.4868 16.2605 7.70898V6.03027C16.2605 3.25247 14.2531 1 11.5648 1C8.87655 1 6.86914 3.25247 6.86914 6.03027V7.70751C6.86914 10.4868 8.87655 12.7392 11.5648 12.7392Z" stroke="#323232" stroke-linejoin="round"/><path d="M17.4349 50.3051V23.3048C17.4349 23.3048 22.0866 21.3385 23.3046 20.9569C25.4881 20.2717 26.8263 18.8659 26.8263 16.2612C24.9921 16.2612 10.2036 16.2612 8.04355 16.2612C3.8365 16.2612 1 18.0353 1 23.3048V31.5223C1 34.0403 2.00371 36.218 4.52177 36.218H5.6957" stroke="#323232" stroke-linejoin="round"/><path d="M11.5645 32.6958V50.3047" stroke="#323232" stroke-linejoin="round"/><path d="M5.69531 23.3047V50.305" stroke="#323232" stroke-linejoin="round"/><path d="M22.8105 12.7378C24.8312 5.94956 31.1205 1 38.5646 1C47.642 1 54.9996 8.35757 54.9996 17.4349C54.9996 26.5123 47.642 33.8699 38.5646 33.8699C32.0669 33.8699 26.4512 30.1001 23.7834 24.6282" stroke="#1476F2"/><path d="M38.5647 25.6524C40.5098 25.6524 42.0865 24.0757 42.0865 22.1307C42.0865 20.1856 40.5098 18.6089 38.5647 18.6089C36.6197 18.6089 35.043 20.1856 35.043 22.1307C35.043 24.0757 36.6197 25.6524 38.5647 25.6524Z" stroke="#1476F2"/><path d="M35.6058 24.0381L32.0723 26.3786" stroke="#1476F2"/><path d="M51.4794 13.5215L41.4746 20.1512" stroke="#1476F2"/><path d="M36.1354 8.36336L35.2227 4.96191" stroke="#1476F2"/><path d="M31.9272 10.7949L29.4355 8.30322" stroke="#1476F2"/><path d="M45.2051 10.7949L47.6967 8.30322" stroke="#1476F2"/><path d="M40.9941 8.36336L41.9069 4.96191" stroke="#1476F2"/></svg>