<svg width="56" height="56" viewBox="0 0 56 56" fill="none" xmlns="http://www.w3.org/2000/svg"><path d="M49.9842 16.33L48.8066 11.5585L44.9926 11.9555C44.3042 10.5831 43.3942 9.36682 42.3207 8.33193L43.8329 4.80202L39.6264 2.2609L37.2087 5.24512C35.7946 4.77525 34.2944 4.53735 32.7584 4.5656L31.3339 1L26.5624 2.17763L26.9624 5.99452C25.59 6.68444 24.3737 7.59294 23.3388 8.66649L19.8059 7.15133L17.2633 11.3578L20.2505 13.7785C19.7821 15.194 19.5427 16.6928 19.571 18.2288L16.0039 19.6532L17.1815 24.4247L21.0029 24.0277C21.6913 25.4001 22.6013 26.6164 23.6734 27.6498L22.1552 31.1797L26.3617 33.7209L28.7854 30.7381C30.1994 31.208 31.6997 31.4459 33.2357 31.4176L34.6557 34.9818L39.4272 33.8041L39.0331 29.9872C40.4055 29.2988 41.6218 28.3888 42.6567 27.3153L46.1837 28.8304L48.7263 24.624L45.7465 22.2033C46.2164 20.7892 46.4543 19.2889 46.426 17.753L49.9842 16.33Z" stroke="#323232"/><path d="M50.2436 32.8599L38.3483 44.7551L32.4007 38.8075L27.6426 43.5656L38.3483 54.2713L55.0017 37.618L50.2436 32.8599Z" stroke="#1476F2"/><path d="M32.9934 22.1543C35.2928 22.1543 37.1568 20.2903 37.1568 17.991C37.1568 15.6916 35.2928 13.8276 32.9934 13.8276C30.6941 13.8276 28.8301 15.6916 28.8301 17.991C28.8301 20.2903 30.6941 22.1543 32.9934 22.1543Z" stroke="#323232"/><path d="M18.663 29.9753C17.4853 29.5842 16.2363 29.385 14.9561 29.4088L13.7681 26.4409L9.79357 27.4208L10.1266 30.5998C8.9832 31.1737 7.97062 31.9306 7.10821 32.8257L4.16563 31.5633L2.04827 35.0665L4.53587 37.0827C4.14481 38.2603 3.94556 39.5108 3.96935 40.7881L1 41.9746L1.97987 45.9491L5.16185 45.619C5.7358 46.7625 6.49264 47.7751 7.38627 48.636L6.12091 51.5756L9.62406 53.6929L11.6433 51.2083C12.8209 51.5994 14.0699 51.7986 15.3501 51.7748L16.5337 54.7427L20.5082 53.7628L20.1796 50.5838C21.323 50.0099 22.3356 49.253 23.1965 48.3594L26.1347 49.6218L27.1562 47.9312" stroke="#323232"/><path d="M15.1516 44.7549C17.451 44.7549 19.315 42.8909 19.315 40.5916C19.315 38.2922 17.451 36.4282 15.1516 36.4282C12.8523 36.4282 10.9883 38.2922 10.9883 40.5916C10.9883 42.8909 12.8523 44.7549 15.1516 44.7549Z" stroke="#323232"/></svg>