<svg width="56" height="56" viewBox="0 0 56 56" fill="none" xmlns="http://www.w3.org/2000/svg"><path d="M55.0003 55.1737V49.3041C55.0003 45.4258 52.0171 43.4346 49.1307 43.4346C45.0528 43.4346 24.4785 43.4346 24.4785 43.4346C24.4785 43.4346 25.1755 48.2946 30.3481 49.3041L37.3916 50.478V55.1737" stroke="#323232" stroke-linejoin="round"/><path d="M43.2601 39.913C40.5234 39.913 38.5645 37.9951 38.5645 35.2173V32.8695C38.5645 30.0917 40.5234 28.1738 43.2601 28.1738C45.9968 28.1738 47.9558 30.0917 47.9558 32.8695V35.2173C47.9558 37.9951 45.9968 39.913 43.2601 39.913Z" stroke="#323232" stroke-linejoin="round"/><path d="M1 55.174V38.7392C1 34.8609 3.98321 32.8696 6.86957 32.8696C10.9474 32.8696 31.5217 32.8696 31.5217 32.8696C31.5217 32.8696 30.8247 37.7296 25.6522 38.7392L18.6087 39.9131V55.174" stroke="#323232" stroke-linejoin="round"/><path d="M12.7386 29.348C15.4753 29.348 17.4343 27.4301 17.4343 24.6524V22.3045C17.4343 19.5268 15.4753 17.6089 12.7386 17.6089C10.0019 17.6089 8.04297 19.5268 8.04297 22.3045V24.6524C8.04297 27.4301 10.0019 29.348 12.7386 29.348Z" stroke="#323232" stroke-linejoin="round"/><path d="M5.69531 41.0869V55.1739" stroke="#323232" stroke-linejoin="round"/><path d="M40.8281 8.5536C45.9596 6.64159 50.1798 7.62914 55.0002 11.0687L51.0192 14.8414L54.9782 22.3045C50.1578 18.865 45.9611 17.8774 40.8296 19.7894V16.0256" stroke="#1476F2"/><path d="M28 16.0253C31.849 14.3745 36.9804 14.2953 40.8279 16.0253V4.7807C36.979 3.05064 31.8475 3.12988 28 4.7807" stroke="#1476F2"/><path d="M28 0V32.8696" stroke="#1476F2"/><path d="M28 48.4531V55.1738" stroke="#1476F2"/><path d="M28 37.8882V43.4349" stroke="#1476F2"/></svg>